solid CATIA STL
  facet normal  0.000000e+000  1.000000e+000  0.000000e+000
    outer loop
      vertex -1.000000e+000  3.000000e+000  5.625000e+001
      vertex -9.009688e-001  3.000000e+000  5.581612e+001
      vertex -1.009429e+001  3.000000e+000  5.588960e+001
    endloop
  endfacet
  facet normal  0.000000e+000  1.000000e+000  0.000000e+000
    outer loop
      vertex -2.000000e+000  3.000000e+000  4.336104e+001
      vertex -2.225209e-001  3.000000e+000  5.527507e+001
      vertex  2.000000e+000  3.000000e+000  4.336104e+001
    endloop
  endfacet
  facet normal  0.000000e+000  9.999999e-001  0.000000e+000
    outer loop
      vertex  6.234898e-001  3.000000e+000  8.453183e+001
      vertex  8.472136e+000  3.000000e+000  8.427708e+001
      vertex  9.009688e-001  3.000000e+000  8.418388e+001
    endloop
  endfacet
  facet normal  0.000000e+000  9.999999e-001  -0.000000e+000
    outer loop
      vertex -6.234898e-001  3.000000e+000  8.453183e+001
      vertex -9.009688e-001  3.000000e+000  8.418388e+001
      vertex -8.472136e+000  3.000000e+000  8.427708e+001
    endloop
  endfacet
  facet normal  0.000000e+000  1.000000e+000  0.000000e+000
    outer loop
      vertex  7.656854e+000  3.000000e+000  8.523165e+001
      vertex  8.472136e+000  3.000000e+000  8.427708e+001
      vertex  6.234898e-001  3.000000e+000  8.453183e+001
    endloop
  endfacet
  facet normal  0.000000e+000  9.999999e-001  -0.000000e+000
    outer loop
      vertex  7.656854e+000  3.000000e+000  8.523165e+001
      vertex  6.234898e-001  3.000000e+000  8.453183e+001
      vertex  2.225209e-001  3.000000e+000  8.472493e+001
    endloop
  endfacet
  facet normal  0.000000e+000  1.000000e+000  0.000000e+000
    outer loop
      vertex  7.656854e+000  3.000000e+000  8.523165e+001
      vertex  2.225209e-001  3.000000e+000  8.472493e+001
      vertex  2.000000e+000  3.000000e+000  8.757480e+001
    endloop
  endfacet
  facet normal  0.000000e+000  1.000000e+000  0.000000e+000
    outer loop
      vertex  7.656854e+000  3.000000e+000  8.523165e+001
      vertex  2.000000e+000  3.000000e+000  8.757480e+001
      vertex  3.251476e+000  3.000000e+000  8.747630e+001
    endloop
  endfacet
  facet normal  0.000000e+000  1.000000e+000  0.000000e+000
    outer loop
      vertex  7.656854e+000  3.000000e+000  8.523165e+001
      vertex  3.251476e+000  3.000000e+000  8.747630e+001
      vertex  4.472136e+000  3.000000e+000  8.718325e+001
    endloop
  endfacet
  facet normal  0.000000e+000  1.000000e+000  0.000000e+000
    outer loop
      vertex  7.656854e+000  3.000000e+000  8.523165e+001
      vertex  4.472136e+000  3.000000e+000  8.718325e+001
      vertex  5.631924e+000  3.000000e+000  8.670285e+001
    endloop
  endfacet
  facet normal  0.000000e+000  1.000000e+000  0.000000e+000
    outer loop
      vertex  7.656854e+000  3.000000e+000  8.523165e+001
      vertex  5.631924e+000  3.000000e+000  8.670285e+001
      vertex  6.702282e+000  3.000000e+000  8.604694e+001
    endloop
  endfacet
  facet normal  0.000000e+000  1.000000e+000  -0.000000e+000
    outer loop
      vertex -2.225209e-001  3.000000e+000  8.472493e+001
      vertex -6.234898e-001  3.000000e+000  8.453183e+001
      vertex -8.472136e+000  3.000000e+000  8.427708e+001
    endloop
  endfacet
  facet normal  0.000000e+000  1.000000e+000  0.000000e+000
    outer loop
      vertex -2.225209e-001  3.000000e+000  8.472493e+001
      vertex -8.472136e+000  3.000000e+000  8.427708e+001
      vertex -7.656854e+000  3.000000e+000  8.523165e+001
    endloop
  endfacet
  facet normal  -0.000000e+000  1.000000e+000  0.000000e+000
    outer loop
      vertex -2.225209e-001  3.000000e+000  8.472493e+001
      vertex -7.656854e+000  3.000000e+000  8.523165e+001
      vertex -6.702282e+000  3.000000e+000  8.604694e+001
    endloop
  endfacet
  facet normal  -0.000000e+000  1.000000e+000  0.000000e+000
    outer loop
      vertex -2.225209e-001  3.000000e+000  8.472493e+001
      vertex -6.702282e+000  3.000000e+000  8.604694e+001
      vertex -5.631924e+000  3.000000e+000  8.670285e+001
    endloop
  endfacet
  facet normal  -0.000000e+000  1.000000e+000  0.000000e+000
    outer loop
      vertex -2.225209e-001  3.000000e+000  8.472493e+001
      vertex -5.631924e+000  3.000000e+000  8.670285e+001
      vertex -4.472136e+000  3.000000e+000  8.718325e+001
    endloop
  endfacet
  facet normal  -0.000000e+000  1.000000e+000  0.000000e+000
    outer loop
      vertex -2.225209e-001  3.000000e+000  8.472493e+001
      vertex -4.472136e+000  3.000000e+000  8.718325e+001
      vertex -3.251476e+000  3.000000e+000  8.747630e+001
    endloop
  endfacet
  facet normal  -0.000000e+000  9.999999e-001  0.000000e+000
    outer loop
      vertex -2.225209e-001  3.000000e+000  8.472493e+001
      vertex -3.251476e+000  3.000000e+000  8.747630e+001
      vertex -2.000000e+000  3.000000e+000  8.757480e+001
    endloop
  endfacet
  facet normal  -0.000000e+000  1.000000e+000  0.000000e+000
    outer loop
      vertex -2.225209e-001  3.000000e+000  8.472493e+001
      vertex -2.000000e+000  3.000000e+000  8.757480e+001
      vertex  2.000000e+000  3.000000e+000  8.757480e+001
    endloop
  endfacet
  facet normal  0.000000e+000  1.000000e+000  0.000000e+000
    outer loop
      vertex -2.225209e-001  3.000000e+000  8.472493e+001
      vertex  2.000000e+000  3.000000e+000  8.757480e+001
      vertex  2.225209e-001  3.000000e+000  8.472493e+001
    endloop
  endfacet
  facet normal  0.000000e+000  1.000000e+000  0.000000e+000
    outer loop
      vertex  9.128052e+000  3.000000e+000  8.320673e+001
      vertex  9.608452e+000  3.000000e+000  8.204694e+001
      vertex  6.234898e-001  3.000000e+000  8.296817e+001
    endloop
  endfacet
  facet normal  0.000000e+000  1.000000e+000  0.000000e+000
    outer loop
      vertex  9.128052e+000  3.000000e+000  8.320673e+001
      vertex  6.234898e-001  3.000000e+000  8.296817e+001
      vertex  9.009688e-001  3.000000e+000  8.331612e+001
    endloop
  endfacet
  facet normal  -0.000000e+000  1.000000e+000  0.000000e+000
    outer loop
      vertex  9.128052e+000  3.000000e+000  8.320673e+001
      vertex  9.009688e-001  3.000000e+000  8.331612e+001
      vertex  1.000000e+000  3.000000e+000  8.375000e+001
    endloop
  endfacet
  facet normal  -0.000000e+000  1.000000e+000  -0.000000e+000
    outer loop
      vertex  9.128052e+000  3.000000e+000  8.320673e+001
      vertex  1.000000e+000  3.000000e+000  8.375000e+001
      vertex  9.009688e-001  3.000000e+000  8.418388e+001
    endloop
  endfacet
  facet normal  -0.000000e+000  1.000000e+000  0.000000e+000
    outer loop
      vertex  9.128052e+000  3.000000e+000  8.320673e+001
      vertex  9.009688e-001  3.000000e+000  8.418388e+001
      vertex  8.472136e+000  3.000000e+000  8.427708e+001
    endloop
  endfacet
  facet normal  0.000000e+000  1.000000e+000  0.000000e+000
    outer loop
      vertex  1.009429e+001  3.000000e+000  5.588960e+001
      vertex  9.009688e-001  3.000000e+000  5.581612e+001
      vertex  1.000000e+000  3.000000e+000  5.625000e+001
    endloop
  endfacet
  facet normal  -0.000000e+000  1.000000e+000  -0.000000e+000
    outer loop
      vertex  1.009429e+001  3.000000e+000  5.588960e+001
      vertex  1.000000e+000  3.000000e+000  5.625000e+001
      vertex  9.009688e-001  3.000000e+000  5.668388e+001
    endloop
  endfacet
  facet normal  -0.000000e+000  1.000000e+000  -0.000000e+000
    outer loop
      vertex  1.009429e+001  3.000000e+000  5.588960e+001
      vertex  9.009688e-001  3.000000e+000  5.668388e+001
      vertex  6.234898e-001  3.000000e+000  5.703183e+001
    endloop
  endfacet
  facet normal  -0.000000e+000  1.000000e+000  0.000000e+000
    outer loop
      vertex  1.009429e+001  3.000000e+000  5.588960e+001
      vertex  6.234898e-001  3.000000e+000  5.703183e+001
      vertex  1.000000e+001  3.000000e+000  5.711426e+001
    endloop
  endfacet
  facet normal  0.000000e+000  1.000000e+000  0.000000e+000
    outer loop
      vertex  1.037494e+001  3.000000e+000  5.469382e+001
      vertex  1.083534e+001  3.000000e+000  5.355509e+001
      vertex  2.225209e-001  3.000000e+000  5.527507e+001
    endloop
  endfacet
  facet normal  -0.000000e+000  1.000000e+000  0.000000e+000
    outer loop
      vertex  1.037494e+001  3.000000e+000  5.469382e+001
      vertex  2.225209e-001  3.000000e+000  5.527507e+001
      vertex  6.234898e-001  3.000000e+000  5.546817e+001
    endloop
  endfacet
  facet normal  -0.000000e+000  1.000000e+000  0.000000e+000
    outer loop
      vertex  1.037494e+001  3.000000e+000  5.469382e+001
      vertex  6.234898e-001  3.000000e+000  5.546817e+001
      vertex  9.009688e-001  3.000000e+000  5.581612e+001
    endloop
  endfacet
  facet normal  -0.000000e+000  1.000000e+000  0.000000e+000
    outer loop
      vertex  1.037494e+001  3.000000e+000  5.469382e+001
      vertex  9.009688e-001  3.000000e+000  5.581612e+001
      vertex  1.009429e+001  3.000000e+000  5.588960e+001
    endloop
  endfacet
  facet normal  0.000000e+000  1.000000e+000  0.000000e+000
    outer loop
      vertex -1.037494e+001  3.000000e+000  5.469382e+001
      vertex -1.009429e+001  3.000000e+000  5.588960e+001
      vertex -9.009688e-001  3.000000e+000  5.581612e+001
    endloop
  endfacet
  facet normal  0.000000e+000  1.000000e+000  0.000000e+000
    outer loop
      vertex -1.037494e+001  3.000000e+000  5.469382e+001
      vertex -9.009688e-001  3.000000e+000  5.581612e+001
      vertex -6.234898e-001  3.000000e+000  5.546817e+001
    endloop
  endfacet
  facet normal  0.000000e+000  1.000000e+000  0.000000e+000
    outer loop
      vertex -1.037494e+001  3.000000e+000  5.469382e+001
      vertex -6.234898e-001  3.000000e+000  5.546817e+001
      vertex -2.225209e-001  3.000000e+000  5.527507e+001
    endloop
  endfacet
  facet normal  0.000000e+000  1.000000e+000  0.000000e+000
    outer loop
      vertex -1.037494e+001  3.000000e+000  5.469382e+001
      vertex -2.225209e-001  3.000000e+000  5.527507e+001
      vertex -2.000000e+000  3.000000e+000  4.336104e+001
    endloop
  endfacet
  facet normal  0.000000e+000  1.000000e+000  0.000000e+000
    outer loop
      vertex -1.037494e+001  3.000000e+000  5.469382e+001
      vertex -2.000000e+000  3.000000e+000  4.336104e+001
      vertex -1.083534e+001  3.000000e+000  5.355509e+001
    endloop
  endfacet
  facet normal  0.000000e+000  9.999999e-001  0.000000e+000
    outer loop
      vertex  1.000000e+001  3.000000e+000  5.711426e+001
      vertex  6.234898e-001  3.000000e+000  5.703183e+001
      vertex  6.500000e+000  3.000000e+000  5.850000e+001
    endloop
  endfacet
  facet normal  0.000000e+000  9.999999e-001  0.000000e+000
    outer loop
      vertex  6.500000e+000  3.000000e+000  5.850000e+001
      vertex  6.234898e-001  3.000000e+000  5.703183e+001
      vertex  2.225209e-001  3.000000e+000  5.722493e+001
    endloop
  endfacet
  facet normal  0.000000e+000  1.000000e+000  -0.000000e+000
    outer loop
      vertex  6.500000e+000  3.000000e+000  5.850000e+001
      vertex  2.225209e-001  3.000000e+000  5.722493e+001
      vertex -2.225209e-001  3.000000e+000  5.722493e+001
    endloop
  endfacet
  facet normal  0.000000e+000  1.000000e+000  0.000000e+000
    outer loop
      vertex -2.225209e-001  3.000000e+000  5.527507e+001
      vertex  2.225209e-001  3.000000e+000  5.527507e+001
      vertex  2.000000e+000  3.000000e+000  4.336104e+001
    endloop
  endfacet
  facet normal  0.000000e+000  1.000000e+000  -0.000000e+000
    outer loop
      vertex  2.000000e+000  3.000000e+000  4.336104e+001
      vertex  2.225209e-001  3.000000e+000  5.527507e+001
      vertex  1.083534e+001  3.000000e+000  5.355509e+001
    endloop
  endfacet
  facet normal  0.000000e+000  9.999999e-001  0.000000e+000
    outer loop
      vertex  2.000000e+000  3.000000e+000  4.336104e+001
      vertex  1.083534e+001  3.000000e+000  5.355509e+001
      vertex  1.146463e+001  3.000000e+000  5.250026e+001
    endloop
  endfacet
  facet normal  0.000000e+000  9.999999e-001  0.000000e+000
    outer loop
      vertex -6.500000e+000  3.000000e+000  5.850000e+001
      vertex  6.500000e+000  3.000000e+000  5.850000e+001
      vertex -1.000000e+001  3.000000e+000  5.711426e+001
    endloop
  endfacet
  facet normal  0.000000e+000  1.000000e+000  0.000000e+000
    outer loop
      vertex -1.000000e+001  3.000000e+000  5.711426e+001
      vertex  6.500000e+000  3.000000e+000  5.850000e+001
      vertex -2.225209e-001  3.000000e+000  5.722493e+001
    endloop
  endfacet
  facet normal  0.000000e+000  1.000000e+000  0.000000e+000
    outer loop
      vertex -1.000000e+001  3.000000e+000  5.711426e+001
      vertex -2.225209e-001  3.000000e+000  5.722493e+001
      vertex -6.234898e-001  3.000000e+000  5.703183e+001
    endloop
  endfacet
  facet normal  0.000000e+000  1.000000e+000  0.000000e+000
    outer loop
      vertex -1.000000e+001  3.000000e+000  5.711426e+001
      vertex -1.000000e+001  3.000000e+000  7.957480e+001
      vertex -6.500000e+000  3.000000e+000  5.850000e+001
    endloop
  endfacet
  facet normal  0.000000e+000  1.000000e+000  0.000000e+000
    outer loop
      vertex -6.500000e+000  3.000000e+000  5.850000e+001
      vertex -1.000000e+001  3.000000e+000  7.957480e+001
      vertex -9.901506e+000  3.000000e+000  8.082627e+001
    endloop
  endfacet
  facet normal  -0.000000e+000  1.000000e+000  0.000000e+000
    outer loop
      vertex -6.500000e+000  3.000000e+000  5.850000e+001
      vertex -9.901506e+000  3.000000e+000  8.082627e+001
      vertex -6.500000e+000  3.000000e+000  8.150000e+001
    endloop
  endfacet
  facet normal  0.000000e+000  1.000000e+000  0.000000e+000
    outer loop
      vertex -6.500000e+000  3.000000e+000  8.150000e+001
      vertex -9.901506e+000  3.000000e+000  8.082627e+001
      vertex -9.608452e+000  3.000000e+000  8.204694e+001
    endloop
  endfacet
  facet normal  0.000000e+000  1.000000e+000  0.000000e+000
    outer loop
      vertex -6.500000e+000  3.000000e+000  8.150000e+001
      vertex -9.608452e+000  3.000000e+000  8.204694e+001
      vertex  6.500000e+000  3.000000e+000  8.150000e+001
    endloop
  endfacet
  facet normal  0.000000e+000  1.000000e+000  0.000000e+000
    outer loop
      vertex  6.500000e+000  3.000000e+000  8.150000e+001
      vertex -9.608452e+000  3.000000e+000  8.204694e+001
      vertex -2.225209e-001  3.000000e+000  8.277507e+001
    endloop
  endfacet
  facet normal  0.000000e+000  1.000000e+000  0.000000e+000
    outer loop
      vertex  6.500000e+000  3.000000e+000  8.150000e+001
      vertex -2.225209e-001  3.000000e+000  8.277507e+001
      vertex  9.608452e+000  3.000000e+000  8.204694e+001
    endloop
  endfacet
  facet normal  0.000000e+000  1.000000e+000  0.000000e+000
    outer loop
      vertex  9.608452e+000  3.000000e+000  8.204694e+001
      vertex -2.225209e-001  3.000000e+000  8.277507e+001
      vertex  2.225209e-001  3.000000e+000  8.277507e+001
    endloop
  endfacet
  facet normal  -0.000000e+000  1.000000e+000  0.000000e+000
    outer loop
      vertex  9.608452e+000  3.000000e+000  8.204694e+001
      vertex  2.225209e-001  3.000000e+000  8.277507e+001
      vertex  6.234898e-001  3.000000e+000  8.296817e+001
    endloop
  endfacet
  facet normal  0.000000e+000  1.000000e+000  0.000000e+000
    outer loop
      vertex  6.500000e+000  3.000000e+000  8.150000e+001
      vertex  9.608452e+000  3.000000e+000  8.204694e+001
      vertex  6.500000e+000  3.000000e+000  5.850000e+001
    endloop
  endfacet
  facet normal  0.000000e+000  1.000000e+000  0.000000e+000
    outer loop
      vertex  6.500000e+000  3.000000e+000  5.850000e+001
      vertex  9.608452e+000  3.000000e+000  8.204694e+001
      vertex  9.901506e+000  3.000000e+000  8.082627e+001
    endloop
  endfacet
  facet normal  0.000000e+000  1.000000e+000  0.000000e+000
    outer loop
      vertex  6.500000e+000  3.000000e+000  5.850000e+001
      vertex  9.901506e+000  3.000000e+000  8.082627e+001
      vertex  1.000000e+001  3.000000e+000  5.711426e+001
    endloop
  endfacet
  facet normal  0.000000e+000  1.000000e+000  -0.000000e+000
    outer loop
      vertex  1.000000e+001  3.000000e+000  5.711426e+001
      vertex  9.901506e+000  3.000000e+000  8.082627e+001
      vertex  1.000000e+001  3.000000e+000  7.957480e+001
    endloop
  endfacet
  facet normal  0.000000e+000  1.000000e+000  0.000000e+000
    outer loop
      vertex  4.500000e+001  3.000000e+000  5.000000e+000
      vertex  2.000000e+000  3.000000e+000  5.000000e+000
      vertex  1.146463e+001  3.000000e+000  5.250026e+001
    endloop
  endfacet
  facet normal  0.000000e+000  1.000000e+000  0.000000e+000
    outer loop
      vertex  1.146463e+001  3.000000e+000  5.250026e+001
      vertex  2.000000e+000  3.000000e+000  5.000000e+000
      vertex  2.000000e+000  3.000000e+000  4.336104e+001
    endloop
  endfacet
  facet normal  0.000000e+000  1.000000e+000  0.000000e+000
    outer loop
      vertex -8.472136e+000  3.000000e+000  8.427708e+001
      vertex -9.009688e-001  3.000000e+000  8.418388e+001
      vertex -9.128052e+000  3.000000e+000  8.320673e+001
    endloop
  endfacet
  facet normal  0.000000e+000  1.000000e+000  0.000000e+000
    outer loop
      vertex -9.128052e+000  3.000000e+000  8.320673e+001
      vertex -9.009688e-001  3.000000e+000  8.418388e+001
      vertex -1.000000e+000  3.000000e+000  8.375000e+001
    endloop
  endfacet
  facet normal  0.000000e+000  1.000000e+000  0.000000e+000
    outer loop
      vertex -9.128052e+000  3.000000e+000  8.320673e+001
      vertex -1.000000e+000  3.000000e+000  8.375000e+001
      vertex -9.009688e-001  3.000000e+000  8.331612e+001
    endloop
  endfacet
  facet normal  0.000000e+000  1.000000e+000  0.000000e+000
    outer loop
      vertex -9.128052e+000  3.000000e+000  8.320673e+001
      vertex -9.009688e-001  3.000000e+000  8.331612e+001
      vertex -9.608452e+000  3.000000e+000  8.204694e+001
    endloop
  endfacet
  facet normal  0.000000e+000  9.999999e-001  0.000000e+000
    outer loop
      vertex -9.608452e+000  3.000000e+000  8.204694e+001
      vertex -9.009688e-001  3.000000e+000  8.331612e+001
      vertex -6.234898e-001  3.000000e+000  8.296817e+001
    endloop
  endfacet
  facet normal  0.000000e+000  1.000000e+000  0.000000e+000
    outer loop
      vertex -9.608452e+000  3.000000e+000  8.204694e+001
      vertex -6.234898e-001  3.000000e+000  8.296817e+001
      vertex -2.225209e-001  3.000000e+000  8.277507e+001
    endloop
  endfacet
  facet normal  0.000000e+000  1.000000e+000  0.000000e+000
    outer loop
      vertex -1.000000e+001  3.000000e+000  5.711426e+001
      vertex -6.234898e-001  3.000000e+000  5.703183e+001
      vertex -1.009429e+001  3.000000e+000  5.588960e+001
    endloop
  endfacet
  facet normal  0.000000e+000  1.000000e+000  0.000000e+000
    outer loop
      vertex -1.009429e+001  3.000000e+000  5.588960e+001
      vertex -6.234898e-001  3.000000e+000  5.703183e+001
      vertex -9.009688e-001  3.000000e+000  5.668388e+001
    endloop
  endfacet
  facet normal  0.000000e+000  1.000000e+000  0.000000e+000
    outer loop
      vertex -1.009429e+001  3.000000e+000  5.588960e+001
      vertex -9.009688e-001  3.000000e+000  5.668388e+001
      vertex -1.000000e+000  3.000000e+000  5.625000e+001
    endloop
  endfacet
  facet normal  0.000000e+000  9.999999e-001  0.000000e+000
    outer loop
      vertex -2.000000e+000  3.000000e+000  5.000000e+000
      vertex -4.500000e+001  3.000000e+000  5.000000e+000
      vertex -2.000000e+000  3.000000e+000  4.336104e+001
    endloop
  endfacet
  facet normal  0.000000e+000  9.999999e-001  0.000000e+000
    outer loop
      vertex -2.000000e+000  3.000000e+000  4.336104e+001
      vertex -4.500000e+001  3.000000e+000  5.000000e+000
      vertex -1.146463e+001  3.000000e+000  5.250026e+001
    endloop
  endfacet
  facet normal  -0.000000e+000  9.999999e-001  0.000000e+000
    outer loop
      vertex -2.000000e+000  3.000000e+000  4.336104e+001
      vertex -1.146463e+001  3.000000e+000  5.250026e+001
      vertex -1.083534e+001  3.000000e+000  5.355509e+001
    endloop
  endfacet
  facet normal  0.000000e+000  0.000000e+000  1.000000e+000
    outer loop
      vertex  2.000000e+000  3.000000e+000  5.000000e+000
      vertex  4.500000e+001  3.000000e+000  5.000000e+000
      vertex  2.000000e+000  2.382064e+001  5.000000e+000
    endloop
  endfacet
  facet normal  -0.000000e+000  0.000000e+000  1.000000e+000
    outer loop
      vertex  2.000000e+000  2.382064e+001  5.000000e+000
      vertex  4.500000e+001  3.000000e+000  5.000000e+000
      vertex  4.500000e+001  3.250000e+001  5.000000e+000
    endloop
  endfacet
  facet normal  0.000000e+000  0.000000e+000  9.999999e-001
    outer loop
      vertex  2.000000e+000  2.382064e+001  5.000000e+000
      vertex  4.500000e+001  3.250000e+001  5.000000e+000
      vertex -2.000000e+000  2.382064e+001  5.000000e+000
    endloop
  endfacet
  facet normal  0.000000e+000  -0.000000e+000  9.999999e-001
    outer loop
      vertex -2.000000e+000  2.382064e+001  5.000000e+000
      vertex  4.500000e+001  3.250000e+001  5.000000e+000
      vertex -4.500000e+001  3.250000e+001  5.000000e+000
    endloop
  endfacet
  facet normal  0.000000e+000  0.000000e+000  1.000000e+000
    outer loop
      vertex -2.000000e+000  2.382064e+001  5.000000e+000
      vertex -4.500000e+001  3.250000e+001  5.000000e+000
      vertex -2.000000e+000  3.000000e+000  5.000000e+000
    endloop
  endfacet
  facet normal  0.000000e+000  0.000000e+000  1.000000e+000
    outer loop
      vertex -2.000000e+000  3.000000e+000  5.000000e+000
      vertex -4.500000e+001  3.250000e+001  5.000000e+000
      vertex -4.500000e+001  3.000000e+000  5.000000e+000
    endloop
  endfacet
  facet normal -1.000000e+000  0.000000e+000  0.000000e+000
    outer loop
      vertex -2.000000e+000  3.000000e+000  4.336104e+001
      vertex -2.000000e+000  2.382064e+001  5.000000e+000
      vertex -2.000000e+000  3.000000e+000  5.000000e+000
    endloop
  endfacet
  facet normal  1.000000e+000  0.000000e+000  0.000000e+000
    outer loop
      vertex  2.000000e+000  3.000000e+000  5.000000e+000
      vertex  2.000000e+000  2.382064e+001  5.000000e+000
      vertex  2.000000e+000  3.000000e+000  4.336104e+001
    endloop
  endfacet
  facet normal  0.000000e+000  8.788912e-001  4.770225e-001
    outer loop
      vertex -2.000000e+000  3.000000e+000  4.336104e+001
      vertex  2.000000e+000  3.000000e+000  4.336104e+001
      vertex -2.000000e+000  2.382064e+001  5.000000e+000
    endloop
  endfacet
  facet normal  -0.000000e+000  8.788912e-001  4.770225e-001
    outer loop
      vertex -2.000000e+000  2.382064e+001  5.000000e+000
      vertex  2.000000e+000  3.000000e+000  4.336104e+001
      vertex  2.000000e+000  2.382064e+001  5.000000e+000
    endloop
  endfacet
  facet normal  0.000000e+000 -1.000000e+000  0.000000e+000
    outer loop
      vertex -1.009429e+001 -3.000000e+000  5.588960e+001
      vertex -9.009688e-001 -3.000000e+000  5.581612e+001
      vertex -1.000000e+000 -3.000000e+000  5.625000e+001
    endloop
  endfacet
  facet normal  0.000000e+000 -1.000000e+000  0.000000e+000
    outer loop
      vertex  1.083534e+001 -3.000000e+000  5.355509e+001
      vertex  2.225209e-001 -3.000000e+000  5.527507e+001
      vertex  1.146463e+001 -3.000000e+000  5.250026e+001
    endloop
  endfacet
  facet normal  -0.000000e+000 -9.999999e-001  0.000000e+000
    outer loop
      vertex  9.009688e-001 -3.000000e+000  8.418388e+001
      vertex  8.472136e+000 -3.000000e+000  8.427708e+001
      vertex  6.234898e-001 -3.000000e+000  8.453183e+001
    endloop
  endfacet
  facet normal  0.000000e+000 -9.999999e-001  0.000000e+000
    outer loop
      vertex -8.472136e+000 -3.000000e+000  8.427708e+001
      vertex -9.009688e-001 -3.000000e+000  8.418388e+001
      vertex -6.234898e-001 -3.000000e+000  8.453183e+001
    endloop
  endfacet
  facet normal  -0.000000e+000 -1.000000e+000  -0.000000e+000
    outer loop
      vertex  4.500000e+001 -3.000000e+000  5.000000e+000
      vertex  1.146463e+001 -3.000000e+000  5.250026e+001
      vertex  2.225209e-001 -3.000000e+000  5.527507e+001
    endloop
  endfacet
  facet normal  -0.000000e+000 -1.000000e+000  -0.000000e+000
    outer loop
      vertex  4.500000e+001 -3.000000e+000  5.000000e+000
      vertex  2.225209e-001 -3.000000e+000  5.527507e+001
      vertex -2.225209e-001 -3.000000e+000  5.527507e+001
    endloop
  endfacet
  facet normal  0.000000e+000 -1.000000e+000  -0.000000e+000
    outer loop
      vertex  4.500000e+001 -3.000000e+000  5.000000e+000
      vertex -2.225209e-001 -3.000000e+000  5.527507e+001
      vertex -1.037494e+001 -3.000000e+000  5.469382e+001
    endloop
  endfacet
  facet normal  0.000000e+000 -1.000000e+000  -0.000000e+000
    outer loop
      vertex  4.500000e+001 -3.000000e+000  5.000000e+000
      vertex -1.037494e+001 -3.000000e+000  5.469382e+001
      vertex -1.083534e+001 -3.000000e+000  5.355509e+001
    endloop
  endfacet
  facet normal  0.000000e+000 -9.999999e-001  -0.000000e+000
    outer loop
      vertex  4.500000e+001 -3.000000e+000  5.000000e+000
      vertex -1.083534e+001 -3.000000e+000  5.355509e+001
      vertex -1.146463e+001 -3.000000e+000  5.250026e+001
    endloop
  endfacet
  facet normal  0.000000e+000 -1.000000e+000  -0.000000e+000
    outer loop
      vertex  4.500000e+001 -3.000000e+000  5.000000e+000
      vertex -1.146463e+001 -3.000000e+000  5.250026e+001
      vertex -4.500000e+001 -3.000000e+000  5.000000e+000
    endloop
  endfacet
  facet normal  -0.000000e+000 -1.000000e+000  -0.000000e+000
    outer loop
      vertex  7.656854e+000 -3.000000e+000  8.523165e+001
      vertex  6.702282e+000 -3.000000e+000  8.604694e+001
      vertex  5.631924e+000 -3.000000e+000  8.670285e+001
    endloop
  endfacet
  facet normal  -0.000000e+000 -1.000000e+000  -0.000000e+000
    outer loop
      vertex  7.656854e+000 -3.000000e+000  8.523165e+001
      vertex  5.631924e+000 -3.000000e+000  8.670285e+001
      vertex  4.472136e+000 -3.000000e+000  8.718325e+001
    endloop
  endfacet
  facet normal  -0.000000e+000 -1.000000e+000  -0.000000e+000
    outer loop
      vertex  7.656854e+000 -3.000000e+000  8.523165e+001
      vertex  4.472136e+000 -3.000000e+000  8.718325e+001
      vertex  3.251476e+000 -3.000000e+000  8.747630e+001
    endloop
  endfacet
  facet normal  -0.000000e+000 -1.000000e+000  -0.000000e+000
    outer loop
      vertex  7.656854e+000 -3.000000e+000  8.523165e+001
      vertex  3.251476e+000 -3.000000e+000  8.747630e+001
      vertex  2.000000e+000 -3.000000e+000  8.757480e+001
    endloop
  endfacet
  facet normal  0.000000e+000 -1.000000e+000  -0.000000e+000
    outer loop
      vertex  7.656854e+000 -3.000000e+000  8.523165e+001
      vertex  2.000000e+000 -3.000000e+000  8.757480e+001
      vertex  2.225209e-001 -3.000000e+000  8.472493e+001
    endloop
  endfacet
  facet normal  0.000000e+000 -9.999999e-001  0.000000e+000
    outer loop
      vertex  7.656854e+000 -3.000000e+000  8.523165e+001
      vertex  2.225209e-001 -3.000000e+000  8.472493e+001
      vertex  6.234898e-001 -3.000000e+000  8.453183e+001
    endloop
  endfacet
  facet normal  0.000000e+000 -1.000000e+000  0.000000e+000
    outer loop
      vertex  7.656854e+000 -3.000000e+000  8.523165e+001
      vertex  6.234898e-001 -3.000000e+000  8.453183e+001
      vertex  8.472136e+000 -3.000000e+000  8.427708e+001
    endloop
  endfacet
  facet normal  0.000000e+000 -9.999999e-001  0.000000e+000
    outer loop
      vertex -2.225209e-001 -3.000000e+000  8.472493e+001
      vertex  2.225209e-001 -3.000000e+000  8.472493e+001
      vertex  2.000000e+000 -3.000000e+000  8.757480e+001
    endloop
  endfacet
  facet normal  -0.000000e+000 -1.000000e+000  0.000000e+000
    outer loop
      vertex -2.225209e-001 -3.000000e+000  8.472493e+001
      vertex  2.000000e+000 -3.000000e+000  8.757480e+001
      vertex -2.000000e+000 -3.000000e+000  8.757480e+001
    endloop
  endfacet
  facet normal  0.000000e+000 -9.999999e-001  -0.000000e+000
    outer loop
      vertex -2.225209e-001 -3.000000e+000  8.472493e+001
      vertex -2.000000e+000 -3.000000e+000  8.757480e+001
      vertex -3.251476e+000 -3.000000e+000  8.747630e+001
    endloop
  endfacet
  facet normal  0.000000e+000 -1.000000e+000  -0.000000e+000
    outer loop
      vertex -2.225209e-001 -3.000000e+000  8.472493e+001
      vertex -3.251476e+000 -3.000000e+000  8.747630e+001
      vertex -4.472136e+000 -3.000000e+000  8.718325e+001
    endloop
  endfacet
  facet normal  0.000000e+000 -1.000000e+000  -0.000000e+000
    outer loop
      vertex -2.225209e-001 -3.000000e+000  8.472493e+001
      vertex -4.472136e+000 -3.000000e+000  8.718325e+001
      vertex -5.631924e+000 -3.000000e+000  8.670285e+001
    endloop
  endfacet
  facet normal  0.000000e+000 -1.000000e+000  -0.000000e+000
    outer loop
      vertex -2.225209e-001 -3.000000e+000  8.472493e+001
      vertex -5.631924e+000 -3.000000e+000  8.670285e+001
      vertex -6.702282e+000 -3.000000e+000  8.604694e+001
    endloop
  endfacet
  facet normal  0.000000e+000 -1.000000e+000  -0.000000e+000
    outer loop
      vertex -2.225209e-001 -3.000000e+000  8.472493e+001
      vertex -6.702282e+000 -3.000000e+000  8.604694e+001
      vertex -7.656854e+000 -3.000000e+000  8.523165e+001
    endloop
  endfacet
  facet normal  0.000000e+000 -1.000000e+000  -0.000000e+000
    outer loop
      vertex -2.225209e-001 -3.000000e+000  8.472493e+001
      vertex -7.656854e+000 -3.000000e+000  8.523165e+001
      vertex -8.472136e+000 -3.000000e+000  8.427708e+001
    endloop
  endfacet
  facet normal  0.000000e+000 -1.000000e+000  0.000000e+000
    outer loop
      vertex -2.225209e-001 -3.000000e+000  8.472493e+001
      vertex -8.472136e+000 -3.000000e+000  8.427708e+001
      vertex -6.234898e-001 -3.000000e+000  8.453183e+001
    endloop
  endfacet
  facet normal  0.000000e+000 -1.000000e+000  -0.000000e+000
    outer loop
      vertex  9.128052e+000 -3.000000e+000  8.320673e+001
      vertex  8.472136e+000 -3.000000e+000  8.427708e+001
      vertex  9.009688e-001 -3.000000e+000  8.418388e+001
    endloop
  endfacet
  facet normal  0.000000e+000 -1.000000e+000  0.000000e+000
    outer loop
      vertex  9.128052e+000 -3.000000e+000  8.320673e+001
      vertex  9.009688e-001 -3.000000e+000  8.418388e+001
      vertex  1.000000e+000 -3.000000e+000  8.375000e+001
    endloop
  endfacet
  facet normal  0.000000e+000 -1.000000e+000  -0.000000e+000
    outer loop
      vertex  9.128052e+000 -3.000000e+000  8.320673e+001
      vertex  1.000000e+000 -3.000000e+000  8.375000e+001
      vertex  9.009688e-001 -3.000000e+000  8.331612e+001
    endloop
  endfacet
  facet normal  0.000000e+000 -1.000000e+000  -0.000000e+000
    outer loop
      vertex  9.128052e+000 -3.000000e+000  8.320673e+001
      vertex  9.009688e-001 -3.000000e+000  8.331612e+001
      vertex  6.234898e-001 -3.000000e+000  8.296817e+001
    endloop
  endfacet
  facet normal  0.000000e+000 -1.000000e+000  0.000000e+000
    outer loop
      vertex  9.128052e+000 -3.000000e+000  8.320673e+001
      vertex  6.234898e-001 -3.000000e+000  8.296817e+001
      vertex  9.608452e+000 -3.000000e+000  8.204694e+001
    endloop
  endfacet
  facet normal  0.000000e+000 -1.000000e+000  -0.000000e+000
    outer loop
      vertex  1.009429e+001 -3.000000e+000  5.588960e+001
      vertex  1.000000e+001 -3.000000e+000  5.711426e+001
      vertex  6.234898e-001 -3.000000e+000  5.703183e+001
    endloop
  endfacet
  facet normal  0.000000e+000 -1.000000e+000  0.000000e+000
    outer loop
      vertex  1.009429e+001 -3.000000e+000  5.588960e+001
      vertex  6.234898e-001 -3.000000e+000  5.703183e+001
      vertex  9.009688e-001 -3.000000e+000  5.668388e+001
    endloop
  endfacet
  facet normal  0.000000e+000 -1.000000e+000  0.000000e+000
    outer loop
      vertex  1.009429e+001 -3.000000e+000  5.588960e+001
      vertex  9.009688e-001 -3.000000e+000  5.668388e+001
      vertex  1.000000e+000 -3.000000e+000  5.625000e+001
    endloop
  endfacet
  facet normal  0.000000e+000 -1.000000e+000  -0.000000e+000
    outer loop
      vertex  1.009429e+001 -3.000000e+000  5.588960e+001
      vertex  1.000000e+000 -3.000000e+000  5.625000e+001
      vertex  9.009688e-001 -3.000000e+000  5.581612e+001
    endloop
  endfacet
  facet normal  0.000000e+000 -1.000000e+000  -0.000000e+000
    outer loop
      vertex  1.037494e+001 -3.000000e+000  5.469382e+001
      vertex  1.009429e+001 -3.000000e+000  5.588960e+001
      vertex  9.009688e-001 -3.000000e+000  5.581612e+001
    endloop
  endfacet
  facet normal  0.000000e+000 -1.000000e+000  -0.000000e+000
    outer loop
      vertex  1.037494e+001 -3.000000e+000  5.469382e+001
      vertex  9.009688e-001 -3.000000e+000  5.581612e+001
      vertex  6.234898e-001 -3.000000e+000  5.546817e+001
    endloop
  endfacet
  facet normal  0.000000e+000 -1.000000e+000  -0.000000e+000
    outer loop
      vertex  1.037494e+001 -3.000000e+000  5.469382e+001
      vertex  6.234898e-001 -3.000000e+000  5.546817e+001
      vertex  2.225209e-001 -3.000000e+000  5.527507e+001
    endloop
  endfacet
  facet normal  0.000000e+000 -1.000000e+000  0.000000e+000
    outer loop
      vertex  1.037494e+001 -3.000000e+000  5.469382e+001
      vertex  2.225209e-001 -3.000000e+000  5.527507e+001
      vertex  1.083534e+001 -3.000000e+000  5.355509e+001
    endloop
  endfacet
  facet normal  0.000000e+000 -1.000000e+000  0.000000e+000
    outer loop
      vertex -2.225209e-001 -3.000000e+000  5.722493e+001
      vertex  2.225209e-001 -3.000000e+000  5.722493e+001
      vertex  6.500000e+000 -3.000000e+000  5.850000e+001
    endloop
  endfacet
  facet normal  0.000000e+000 -9.999999e-001  0.000000e+000
    outer loop
      vertex  6.500000e+000 -3.000000e+000  5.850000e+001
      vertex  2.225209e-001 -3.000000e+000  5.722493e+001
      vertex  6.234898e-001 -3.000000e+000  5.703183e+001
    endloop
  endfacet
  facet normal  0.000000e+000 -9.999999e-001  0.000000e+000
    outer loop
      vertex  6.500000e+000 -3.000000e+000  5.850000e+001
      vertex  6.234898e-001 -3.000000e+000  5.703183e+001
      vertex  1.000000e+001 -3.000000e+000  5.711426e+001
    endloop
  endfacet
  facet normal  0.000000e+000 -1.000000e+000  0.000000e+000
    outer loop
      vertex -6.234898e-001 -3.000000e+000  5.703183e+001
      vertex -2.225209e-001 -3.000000e+000  5.722493e+001
      vertex -1.000000e+001 -3.000000e+000  5.711426e+001
    endloop
  endfacet
  facet normal  0.000000e+000 -1.000000e+000  0.000000e+000
    outer loop
      vertex -1.000000e+001 -3.000000e+000  5.711426e+001
      vertex -2.225209e-001 -3.000000e+000  5.722493e+001
      vertex  6.500000e+000 -3.000000e+000  5.850000e+001
    endloop
  endfacet
  facet normal  -0.000000e+000 -9.999999e-001  0.000000e+000
    outer loop
      vertex -1.000000e+001 -3.000000e+000  5.711426e+001
      vertex  6.500000e+000 -3.000000e+000  5.850000e+001
      vertex -6.500000e+000 -3.000000e+000  5.850000e+001
    endloop
  endfacet
  facet normal  0.000000e+000 -1.000000e+000  0.000000e+000
    outer loop
      vertex  6.234898e-001 -3.000000e+000  8.296817e+001
      vertex  2.225209e-001 -3.000000e+000  8.277507e+001
      vertex  9.608452e+000 -3.000000e+000  8.204694e+001
    endloop
  endfacet
  facet normal  0.000000e+000 -1.000000e+000  0.000000e+000
    outer loop
      vertex  9.608452e+000 -3.000000e+000  8.204694e+001
      vertex  2.225209e-001 -3.000000e+000  8.277507e+001
      vertex -2.225209e-001 -3.000000e+000  8.277507e+001
    endloop
  endfacet
  facet normal  0.000000e+000 -1.000000e+000  0.000000e+000
    outer loop
      vertex  9.608452e+000 -3.000000e+000  8.204694e+001
      vertex -2.225209e-001 -3.000000e+000  8.277507e+001
      vertex  6.500000e+000 -3.000000e+000  8.150000e+001
    endloop
  endfacet
  facet normal  0.000000e+000 -1.000000e+000  0.000000e+000
    outer loop
      vertex  6.500000e+000 -3.000000e+000  8.150000e+001
      vertex -2.225209e-001 -3.000000e+000  8.277507e+001
      vertex -9.608452e+000 -3.000000e+000  8.204694e+001
    endloop
  endfacet
  facet normal  0.000000e+000 -1.000000e+000  0.000000e+000
    outer loop
      vertex  6.500000e+000 -3.000000e+000  8.150000e+001
      vertex -9.608452e+000 -3.000000e+000  8.204694e+001
      vertex -6.500000e+000 -3.000000e+000  8.150000e+001
    endloop
  endfacet
  facet normal  -0.000000e+000 -1.000000e+000  0.000000e+000
    outer loop
      vertex -6.500000e+000 -3.000000e+000  8.150000e+001
      vertex -9.608452e+000 -3.000000e+000  8.204694e+001
      vertex -9.901506e+000 -3.000000e+000  8.082627e+001
    endloop
  endfacet
  facet normal  0.000000e+000 -1.000000e+000  0.000000e+000
    outer loop
      vertex -6.500000e+000 -3.000000e+000  8.150000e+001
      vertex -9.901506e+000 -3.000000e+000  8.082627e+001
      vertex -6.500000e+000 -3.000000e+000  5.850000e+001
    endloop
  endfacet
  facet normal  0.000000e+000 -1.000000e+000  0.000000e+000
    outer loop
      vertex -6.500000e+000 -3.000000e+000  5.850000e+001
      vertex -9.901506e+000 -3.000000e+000  8.082627e+001
      vertex -1.000000e+001 -3.000000e+000  7.957480e+001
    endloop
  endfacet
  facet normal  0.000000e+000 -1.000000e+000  0.000000e+000
    outer loop
      vertex -6.500000e+000 -3.000000e+000  5.850000e+001
      vertex -1.000000e+001 -3.000000e+000  7.957480e+001
      vertex -1.000000e+001 -3.000000e+000  5.711426e+001
    endloop
  endfacet
  facet normal  0.000000e+000 -1.000000e+000  0.000000e+000
    outer loop
      vertex  6.500000e+000 -3.000000e+000  8.150000e+001
      vertex  6.500000e+000 -3.000000e+000  5.850000e+001
      vertex  9.608452e+000 -3.000000e+000  8.204694e+001
    endloop
  endfacet
  facet normal  0.000000e+000 -1.000000e+000  -0.000000e+000
    outer loop
      vertex  9.608452e+000 -3.000000e+000  8.204694e+001
      vertex  6.500000e+000 -3.000000e+000  5.850000e+001
      vertex  9.901506e+000 -3.000000e+000  8.082627e+001
    endloop
  endfacet
  facet normal  0.000000e+000 -1.000000e+000  0.000000e+000
    outer loop
      vertex  6.500000e+000 -3.000000e+000  5.850000e+001
      vertex  1.000000e+001 -3.000000e+000  5.711426e+001
      vertex  9.901506e+000 -3.000000e+000  8.082627e+001
    endloop
  endfacet
  facet normal  0.000000e+000 -1.000000e+000  0.000000e+000
    outer loop
      vertex  9.901506e+000 -3.000000e+000  8.082627e+001
      vertex  1.000000e+001 -3.000000e+000  5.711426e+001
      vertex  1.000000e+001 -3.000000e+000  7.957480e+001
    endloop
  endfacet
  facet normal  0.000000e+000 -1.000000e+000  -0.000000e+000
    outer loop
      vertex -9.009688e-001 -3.000000e+000  8.331612e+001
      vertex -1.000000e+000 -3.000000e+000  8.375000e+001
      vertex -9.128052e+000 -3.000000e+000  8.320673e+001
    endloop
  endfacet
  facet normal  0.000000e+000 -1.000000e+000  0.000000e+000
    outer loop
      vertex -9.128052e+000 -3.000000e+000  8.320673e+001
      vertex -1.000000e+000 -3.000000e+000  8.375000e+001
      vertex -9.009688e-001 -3.000000e+000  8.418388e+001
    endloop
  endfacet
  facet normal  -0.000000e+000 -1.000000e+000  0.000000e+000
    outer loop
      vertex -9.128052e+000 -3.000000e+000  8.320673e+001
      vertex -9.009688e-001 -3.000000e+000  8.418388e+001
      vertex -8.472136e+000 -3.000000e+000  8.427708e+001
    endloop
  endfacet
  facet normal  0.000000e+000 -1.000000e+000  -0.000000e+000
    outer loop
      vertex -2.225209e-001 -3.000000e+000  8.277507e+001
      vertex -6.234898e-001 -3.000000e+000  8.296817e+001
      vertex -9.608452e+000 -3.000000e+000  8.204694e+001
    endloop
  endfacet
  facet normal  0.000000e+000 -9.999999e-001  0.000000e+000
    outer loop
      vertex -9.608452e+000 -3.000000e+000  8.204694e+001
      vertex -6.234898e-001 -3.000000e+000  8.296817e+001
      vertex -9.009688e-001 -3.000000e+000  8.331612e+001
    endloop
  endfacet
  facet normal  0.000000e+000 -1.000000e+000  0.000000e+000
    outer loop
      vertex -9.608452e+000 -3.000000e+000  8.204694e+001
      vertex -9.009688e-001 -3.000000e+000  8.331612e+001
      vertex -9.128052e+000 -3.000000e+000  8.320673e+001
    endloop
  endfacet
  facet normal  0.000000e+000 -1.000000e+000  0.000000e+000
    outer loop
      vertex -1.000000e+000 -3.000000e+000  5.625000e+001
      vertex -9.009688e-001 -3.000000e+000  5.668388e+001
      vertex -1.009429e+001 -3.000000e+000  5.588960e+001
    endloop
  endfacet
  facet normal  0.000000e+000 -1.000000e+000  0.000000e+000
    outer loop
      vertex -1.009429e+001 -3.000000e+000  5.588960e+001
      vertex -9.009688e-001 -3.000000e+000  5.668388e+001
      vertex -6.234898e-001 -3.000000e+000  5.703183e+001
    endloop
  endfacet
  facet normal  -0.000000e+000 -1.000000e+000  0.000000e+000
    outer loop
      vertex -1.009429e+001 -3.000000e+000  5.588960e+001
      vertex -6.234898e-001 -3.000000e+000  5.703183e+001
      vertex -1.000000e+001 -3.000000e+000  5.711426e+001
    endloop
  endfacet
  facet normal  0.000000e+000 -1.000000e+000  -0.000000e+000
    outer loop
      vertex -2.225209e-001 -3.000000e+000  5.527507e+001
      vertex -6.234898e-001 -3.000000e+000  5.546817e+001
      vertex -1.037494e+001 -3.000000e+000  5.469382e+001
    endloop
  endfacet
  facet normal  0.000000e+000 -1.000000e+000  0.000000e+000
    outer loop
      vertex -1.037494e+001 -3.000000e+000  5.469382e+001
      vertex -6.234898e-001 -3.000000e+000  5.546817e+001
      vertex -9.009688e-001 -3.000000e+000  5.581612e+001
    endloop
  endfacet
  facet normal  -0.000000e+000 -1.000000e+000  0.000000e+000
    outer loop
      vertex -1.037494e+001 -3.000000e+000  5.469382e+001
      vertex -9.009688e-001 -3.000000e+000  5.581612e+001
      vertex -1.009429e+001 -3.000000e+000  5.588960e+001
    endloop
  endfacet
  facet normal -4.338902e-001  -0.000000e+000 -9.009658e-001
    outer loop
      vertex  2.225209e-001 -3.000000e+000  8.472493e+001
      vertex  6.234898e-001  3.000000e+000  8.453183e+001
      vertex  6.234898e-001 -3.000000e+000  8.453183e+001
    endloop
  endfacet
  facet normal -7.818301e-001  0.000000e+000 -6.234915e-001
    outer loop
      vertex  6.234898e-001 -3.000000e+000  8.453183e+001
      vertex  6.234898e-001  3.000000e+000  8.453183e+001
      vertex  9.009688e-001  3.000000e+000  8.418388e+001
    endloop
  endfacet
  facet normal -7.818301e-001  -0.000000e+000 -6.234915e-001
    outer loop
      vertex  6.234898e-001 -3.000000e+000  8.453183e+001
      vertex  9.009688e-001  3.000000e+000  8.418388e+001
      vertex  9.009688e-001 -3.000000e+000  8.418388e+001
    endloop
  endfacet
  facet normal -9.749278e-001  0.000000e+000 -2.225210e-001
    outer loop
      vertex  9.009688e-001 -3.000000e+000  8.418388e+001
      vertex  9.009688e-001  3.000000e+000  8.418388e+001
      vertex  1.000000e+000  3.000000e+000  8.375000e+001
    endloop
  endfacet
  facet normal -9.749278e-001  -0.000000e+000 -2.225210e-001
    outer loop
      vertex  9.009688e-001 -3.000000e+000  8.418388e+001
      vertex  1.000000e+000  3.000000e+000  8.375000e+001
      vertex  1.000000e+000 -3.000000e+000  8.375000e+001
    endloop
  endfacet
  facet normal -4.338902e-001  0.000000e+000 -9.009658e-001
    outer loop
      vertex  6.234898e-001  3.000000e+000  8.453183e+001
      vertex  2.225209e-001 -3.000000e+000  8.472493e+001
      vertex  2.225209e-001  3.000000e+000  8.472493e+001
    endloop
  endfacet
  facet normal  0.000000e+000  -0.000000e+000 -1.000000e+000
    outer loop
      vertex  2.225209e-001  3.000000e+000  8.472493e+001
      vertex  2.225209e-001 -3.000000e+000  8.472493e+001
      vertex -2.225209e-001 -3.000000e+000  8.472493e+001
    endloop
  endfacet
  facet normal  0.000000e+000  0.000000e+000 -1.000000e+000
    outer loop
      vertex  2.225209e-001  3.000000e+000  8.472493e+001
      vertex -2.225209e-001 -3.000000e+000  8.472493e+001
      vertex -2.225209e-001  3.000000e+000  8.472493e+001
    endloop
  endfacet
  facet normal  4.338902e-001  0.000000e+000 -9.009658e-001
    outer loop
      vertex -2.225209e-001  3.000000e+000  8.472493e+001
      vertex -2.225209e-001 -3.000000e+000  8.472493e+001
      vertex -6.234898e-001 -3.000000e+000  8.453183e+001
    endloop
  endfacet
  facet normal  4.338902e-001  0.000000e+000 -9.009658e-001
    outer loop
      vertex -2.225209e-001  3.000000e+000  8.472493e+001
      vertex -6.234898e-001 -3.000000e+000  8.453183e+001
      vertex -6.234898e-001  3.000000e+000  8.453183e+001
    endloop
  endfacet
  facet normal  7.818301e-001  0.000000e+000 -6.234915e-001
    outer loop
      vertex -6.234898e-001  3.000000e+000  8.453183e+001
      vertex -6.234898e-001 -3.000000e+000  8.453183e+001
      vertex -9.009688e-001 -3.000000e+000  8.418388e+001
    endloop
  endfacet
  facet normal  7.818301e-001  0.000000e+000 -6.234915e-001
    outer loop
      vertex -6.234898e-001  3.000000e+000  8.453183e+001
      vertex -9.009688e-001 -3.000000e+000  8.418388e+001
      vertex -9.009688e-001  3.000000e+000  8.418388e+001
    endloop
  endfacet
  facet normal  9.749278e-001  0.000000e+000 -2.225210e-001
    outer loop
      vertex -9.009688e-001  3.000000e+000  8.418388e+001
      vertex -9.009688e-001 -3.000000e+000  8.418388e+001
      vertex -1.000000e+000 -3.000000e+000  8.375000e+001
    endloop
  endfacet
  facet normal  9.749278e-001  0.000000e+000 -2.225210e-001
    outer loop
      vertex -9.009688e-001  3.000000e+000  8.418388e+001
      vertex -1.000000e+000 -3.000000e+000  8.375000e+001
      vertex -1.000000e+000  3.000000e+000  8.375000e+001
    endloop
  endfacet
  facet normal  4.338902e-001  0.000000e+000  9.009658e-001
    outer loop
      vertex -2.225209e-001 -3.000000e+000  8.277507e+001
      vertex -6.234898e-001  3.000000e+000  8.296817e+001
      vertex -6.234898e-001 -3.000000e+000  8.296817e+001
    endloop
  endfacet
  facet normal  7.818301e-001  -0.000000e+000  6.234915e-001
    outer loop
      vertex -6.234898e-001 -3.000000e+000  8.296817e+001
      vertex -6.234898e-001  3.000000e+000  8.296817e+001
      vertex -9.009688e-001  3.000000e+000  8.331612e+001
    endloop
  endfacet
  facet normal  7.818301e-001  0.000000e+000  6.234915e-001
    outer loop
      vertex -6.234898e-001 -3.000000e+000  8.296817e+001
      vertex -9.009688e-001  3.000000e+000  8.331612e+001
      vertex -9.009688e-001 -3.000000e+000  8.331612e+001
    endloop
  endfacet
  facet normal  9.749278e-001  -0.000000e+000  2.225210e-001
    outer loop
      vertex -9.009688e-001 -3.000000e+000  8.331612e+001
      vertex -9.009688e-001  3.000000e+000  8.331612e+001
      vertex -1.000000e+000  3.000000e+000  8.375000e+001
    endloop
  endfacet
  facet normal  9.749278e-001  0.000000e+000  2.225210e-001
    outer loop
      vertex -9.009688e-001 -3.000000e+000  8.331612e+001
      vertex -1.000000e+000  3.000000e+000  8.375000e+001
      vertex -1.000000e+000 -3.000000e+000  8.375000e+001
    endloop
  endfacet
  facet normal  4.338902e-001  -0.000000e+000  9.009658e-001
    outer loop
      vertex -6.234898e-001  3.000000e+000  8.296817e+001
      vertex -2.225209e-001 -3.000000e+000  8.277507e+001
      vertex -2.225209e-001  3.000000e+000  8.277507e+001
    endloop
  endfacet
  facet normal  0.000000e+000  0.000000e+000  1.000000e+000
    outer loop
      vertex -2.225209e-001  3.000000e+000  8.277507e+001
      vertex -2.225209e-001 -3.000000e+000  8.277507e+001
      vertex  2.225209e-001 -3.000000e+000  8.277507e+001
    endloop
  endfacet
  facet normal  0.000000e+000  -0.000000e+000  1.000000e+000
    outer loop
      vertex -2.225209e-001  3.000000e+000  8.277507e+001
      vertex  2.225209e-001 -3.000000e+000  8.277507e+001
      vertex  2.225209e-001  3.000000e+000  8.277507e+001
    endloop
  endfacet
  facet normal -4.338902e-001  0.000000e+000  9.009658e-001
    outer loop
      vertex  2.225209e-001  3.000000e+000  8.277507e+001
      vertex  2.225209e-001 -3.000000e+000  8.277507e+001
      vertex  6.234898e-001 -3.000000e+000  8.296817e+001
    endloop
  endfacet
  facet normal -4.338902e-001  0.000000e+000  9.009658e-001
    outer loop
      vertex  2.225209e-001  3.000000e+000  8.277507e+001
      vertex  6.234898e-001 -3.000000e+000  8.296817e+001
      vertex  6.234898e-001  3.000000e+000  8.296817e+001
    endloop
  endfacet
  facet normal -7.818301e-001  0.000000e+000  6.234915e-001
    outer loop
      vertex  6.234898e-001  3.000000e+000  8.296817e+001
      vertex  6.234898e-001 -3.000000e+000  8.296817e+001
      vertex  9.009688e-001 -3.000000e+000  8.331612e+001
    endloop
  endfacet
  facet normal -7.818301e-001  0.000000e+000  6.234915e-001
    outer loop
      vertex  6.234898e-001  3.000000e+000  8.296817e+001
      vertex  9.009688e-001 -3.000000e+000  8.331612e+001
      vertex  9.009688e-001  3.000000e+000  8.331612e+001
    endloop
  endfacet
  facet normal -9.749278e-001  0.000000e+000  2.225210e-001
    outer loop
      vertex  9.009688e-001  3.000000e+000  8.331612e+001
      vertex  9.009688e-001 -3.000000e+000  8.331612e+001
      vertex  1.000000e+000 -3.000000e+000  8.375000e+001
    endloop
  endfacet
  facet normal -9.749278e-001  0.000000e+000  2.225210e-001
    outer loop
      vertex  9.009688e-001  3.000000e+000  8.331612e+001
      vertex  1.000000e+000 -3.000000e+000  8.375000e+001
      vertex  1.000000e+000  3.000000e+000  8.375000e+001
    endloop
  endfacet
  facet normal -4.338902e-001  -0.000000e+000 -9.009658e-001
    outer loop
      vertex  2.225209e-001 -3.000000e+000  5.722493e+001
      vertex  6.234898e-001  3.000000e+000  5.703183e+001
      vertex  6.234898e-001 -3.000000e+000  5.703183e+001
    endloop
  endfacet
  facet normal -7.818301e-001  0.000000e+000 -6.234915e-001
    outer loop
      vertex  6.234898e-001 -3.000000e+000  5.703183e+001
      vertex  6.234898e-001  3.000000e+000  5.703183e+001
      vertex  9.009688e-001  3.000000e+000  5.668388e+001
    endloop
  endfacet
  facet normal -7.818301e-001  -0.000000e+000 -6.234915e-001
    outer loop
      vertex  6.234898e-001 -3.000000e+000  5.703183e+001
      vertex  9.009688e-001  3.000000e+000  5.668388e+001
      vertex  9.009688e-001 -3.000000e+000  5.668388e+001
    endloop
  endfacet
  facet normal -9.749278e-001  0.000000e+000 -2.225210e-001
    outer loop
      vertex  9.009688e-001 -3.000000e+000  5.668388e+001
      vertex  9.009688e-001  3.000000e+000  5.668388e+001
      vertex  1.000000e+000  3.000000e+000  5.625000e+001
    endloop
  endfacet
  facet normal -9.749278e-001  -0.000000e+000 -2.225210e-001
    outer loop
      vertex  9.009688e-001 -3.000000e+000  5.668388e+001
      vertex  1.000000e+000  3.000000e+000  5.625000e+001
      vertex  1.000000e+000 -3.000000e+000  5.625000e+001
    endloop
  endfacet
  facet normal -4.338902e-001  0.000000e+000 -9.009658e-001
    outer loop
      vertex  6.234898e-001  3.000000e+000  5.703183e+001
      vertex  2.225209e-001 -3.000000e+000  5.722493e+001
      vertex  2.225209e-001  3.000000e+000  5.722493e+001
    endloop
  endfacet
  facet normal  0.000000e+000  -0.000000e+000 -1.000000e+000
    outer loop
      vertex  2.225209e-001  3.000000e+000  5.722493e+001
      vertex  2.225209e-001 -3.000000e+000  5.722493e+001
      vertex -2.225209e-001 -3.000000e+000  5.722493e+001
    endloop
  endfacet
  facet normal  0.000000e+000  0.000000e+000 -1.000000e+000
    outer loop
      vertex  2.225209e-001  3.000000e+000  5.722493e+001
      vertex -2.225209e-001 -3.000000e+000  5.722493e+001
      vertex -2.225209e-001  3.000000e+000  5.722493e+001
    endloop
  endfacet
  facet normal  4.338902e-001  0.000000e+000 -9.009658e-001
    outer loop
      vertex -2.225209e-001  3.000000e+000  5.722493e+001
      vertex -2.225209e-001 -3.000000e+000  5.722493e+001
      vertex -6.234898e-001 -3.000000e+000  5.703183e+001
    endloop
  endfacet
  facet normal  4.338902e-001  0.000000e+000 -9.009658e-001
    outer loop
      vertex -2.225209e-001  3.000000e+000  5.722493e+001
      vertex -6.234898e-001 -3.000000e+000  5.703183e+001
      vertex -6.234898e-001  3.000000e+000  5.703183e+001
    endloop
  endfacet
  facet normal  7.818301e-001  0.000000e+000 -6.234915e-001
    outer loop
      vertex -6.234898e-001  3.000000e+000  5.703183e+001
      vertex -6.234898e-001 -3.000000e+000  5.703183e+001
      vertex -9.009688e-001 -3.000000e+000  5.668388e+001
    endloop
  endfacet
  facet normal  7.818301e-001  0.000000e+000 -6.234915e-001
    outer loop
      vertex -6.234898e-001  3.000000e+000  5.703183e+001
      vertex -9.009688e-001 -3.000000e+000  5.668388e+001
      vertex -9.009688e-001  3.000000e+000  5.668388e+001
    endloop
  endfacet
  facet normal  9.749278e-001  0.000000e+000 -2.225210e-001
    outer loop
      vertex -9.009688e-001  3.000000e+000  5.668388e+001
      vertex -9.009688e-001 -3.000000e+000  5.668388e+001
      vertex -1.000000e+000 -3.000000e+000  5.625000e+001
    endloop
  endfacet
  facet normal  9.749278e-001  0.000000e+000 -2.225210e-001
    outer loop
      vertex -9.009688e-001  3.000000e+000  5.668388e+001
      vertex -1.000000e+000 -3.000000e+000  5.625000e+001
      vertex -1.000000e+000  3.000000e+000  5.625000e+001
    endloop
  endfacet
  facet normal  4.338902e-001  0.000000e+000  9.009658e-001
    outer loop
      vertex -2.225209e-001 -3.000000e+000  5.527507e+001
      vertex -6.234898e-001  3.000000e+000  5.546817e+001
      vertex -6.234898e-001 -3.000000e+000  5.546817e+001
    endloop
  endfacet
  facet normal  7.818301e-001  -0.000000e+000  6.234915e-001
    outer loop
      vertex -6.234898e-001 -3.000000e+000  5.546817e+001
      vertex -6.234898e-001  3.000000e+000  5.546817e+001
      vertex -9.009688e-001  3.000000e+000  5.581612e+001
    endloop
  endfacet
  facet normal  7.818301e-001  0.000000e+000  6.234915e-001
    outer loop
      vertex -6.234898e-001 -3.000000e+000  5.546817e+001
      vertex -9.009688e-001  3.000000e+000  5.581612e+001
      vertex -9.009688e-001 -3.000000e+000  5.581612e+001
    endloop
  endfacet
  facet normal  9.749278e-001  -0.000000e+000  2.225210e-001
    outer loop
      vertex -9.009688e-001 -3.000000e+000  5.581612e+001
      vertex -9.009688e-001  3.000000e+000  5.581612e+001
      vertex -1.000000e+000  3.000000e+000  5.625000e+001
    endloop
  endfacet
  facet normal  9.749278e-001  0.000000e+000  2.225210e-001
    outer loop
      vertex -9.009688e-001 -3.000000e+000  5.581612e+001
      vertex -1.000000e+000  3.000000e+000  5.625000e+001
      vertex -1.000000e+000 -3.000000e+000  5.625000e+001
    endloop
  endfacet
  facet normal  4.338902e-001  -0.000000e+000  9.009658e-001
    outer loop
      vertex -6.234898e-001  3.000000e+000  5.546817e+001
      vertex -2.225209e-001 -3.000000e+000  5.527507e+001
      vertex -2.225209e-001  3.000000e+000  5.527507e+001
    endloop
  endfacet
  facet normal  0.000000e+000  0.000000e+000  1.000000e+000
    outer loop
      vertex -2.225209e-001  3.000000e+000  5.527507e+001
      vertex -2.225209e-001 -3.000000e+000  5.527507e+001
      vertex  2.225209e-001 -3.000000e+000  5.527507e+001
    endloop
  endfacet
  facet normal  0.000000e+000  -0.000000e+000  1.000000e+000
    outer loop
      vertex -2.225209e-001  3.000000e+000  5.527507e+001
      vertex  2.225209e-001 -3.000000e+000  5.527507e+001
      vertex  2.225209e-001  3.000000e+000  5.527507e+001
    endloop
  endfacet
  facet normal -4.338902e-001  0.000000e+000  9.009658e-001
    outer loop
      vertex  2.225209e-001  3.000000e+000  5.527507e+001
      vertex  2.225209e-001 -3.000000e+000  5.527507e+001
      vertex  6.234898e-001 -3.000000e+000  5.546817e+001
    endloop
  endfacet
  facet normal -4.338902e-001  0.000000e+000  9.009658e-001
    outer loop
      vertex  2.225209e-001  3.000000e+000  5.527507e+001
      vertex  6.234898e-001 -3.000000e+000  5.546817e+001
      vertex  6.234898e-001  3.000000e+000  5.546817e+001
    endloop
  endfacet
  facet normal -7.818301e-001  0.000000e+000  6.234915e-001
    outer loop
      vertex  6.234898e-001  3.000000e+000  5.546817e+001
      vertex  6.234898e-001 -3.000000e+000  5.546817e+001
      vertex  9.009688e-001 -3.000000e+000  5.581612e+001
    endloop
  endfacet
  facet normal -7.818301e-001  0.000000e+000  6.234915e-001
    outer loop
      vertex  6.234898e-001  3.000000e+000  5.546817e+001
      vertex  9.009688e-001 -3.000000e+000  5.581612e+001
      vertex  9.009688e-001  3.000000e+000  5.581612e+001
    endloop
  endfacet
  facet normal -9.749278e-001  0.000000e+000  2.225210e-001
    outer loop
      vertex  9.009688e-001  3.000000e+000  5.581612e+001
      vertex  9.009688e-001 -3.000000e+000  5.581612e+001
      vertex  1.000000e+000 -3.000000e+000  5.625000e+001
    endloop
  endfacet
  facet normal -9.749278e-001  0.000000e+000  2.225210e-001
    outer loop
      vertex  9.009688e-001  3.000000e+000  5.581612e+001
      vertex  1.000000e+000 -3.000000e+000  5.625000e+001
      vertex  1.000000e+000  3.000000e+000  5.625000e+001
    endloop
  endfacet
  facet normal -1.000000e+000  0.000000e+000  0.000000e+000
    outer loop
      vertex  6.500000e+000  3.000000e+000  8.150000e+001
      vertex  6.500000e+000  3.000000e+000  5.850000e+001
      vertex  6.500000e+000 -3.000000e+000  8.150000e+001
    endloop
  endfacet
  facet normal -1.000000e+000  0.000000e+000  0.000000e+000
    outer loop
      vertex  6.500000e+000 -3.000000e+000  8.150000e+001
      vertex  6.500000e+000  3.000000e+000  5.850000e+001
      vertex  6.500000e+000 -3.000000e+000  5.850000e+001
    endloop
  endfacet
  facet normal  0.000000e+000  0.000000e+000  1.000000e+000
    outer loop
      vertex -6.500000e+000  3.000000e+000  5.850000e+001
      vertex -6.500000e+000 -3.000000e+000  5.850000e+001
      vertex  6.500000e+000  3.000000e+000  5.850000e+001
    endloop
  endfacet
  facet normal  0.000000e+000  0.000000e+000  1.000000e+000
    outer loop
      vertex  6.500000e+000  3.000000e+000  5.850000e+001
      vertex -6.500000e+000 -3.000000e+000  5.850000e+001
      vertex  6.500000e+000 -3.000000e+000  5.850000e+001
    endloop
  endfacet
  facet normal  1.000000e+000  0.000000e+000 -2.073205e-008
    outer loop
      vertex -6.500000e+000  3.000000e+000  5.850000e+001
      vertex -6.500000e+000  3.000000e+000  8.150000e+001
      vertex -6.500000e+000 -3.000000e+000  5.850000e+001
    endloop
  endfacet
  facet normal  1.000000e+000 -7.947286e-008  0.000000e+000
    outer loop
      vertex -6.500000e+000 -3.000000e+000  5.850000e+001
      vertex -6.500000e+000  3.000000e+000  8.150000e+001
      vertex -6.500000e+000 -3.000000e+000  8.150000e+001
    endloop
  endfacet
  facet normal  0.000000e+000  0.000000e+000 -1.000000e+000
    outer loop
      vertex  6.500000e+000  3.000000e+000  8.150000e+001
      vertex  6.500000e+000 -3.000000e+000  8.150000e+001
      vertex -6.500000e+000  3.000000e+000  8.150000e+001
    endloop
  endfacet
  facet normal  0.000000e+000  -0.000000e+000 -1.000000e+000
    outer loop
      vertex -6.500000e+000  3.000000e+000  8.150000e+001
      vertex  6.500000e+000 -3.000000e+000  8.150000e+001
      vertex -6.500000e+000 -3.000000e+000  8.150000e+001
    endloop
  endfacet
  facet normal  1.000000e+000  0.000000e+000  0.000000e+000
    outer loop
      vertex  1.000000e+001 -3.000000e+000  5.711426e+001
      vertex  1.000000e+001  3.000000e+000  5.711426e+001
      vertex  1.000000e+001 -3.000000e+000  7.957480e+001
    endloop
  endfacet
  facet normal  1.000000e+000  -0.000000e+000  0.000000e+000
    outer loop
      vertex  1.000000e+001 -3.000000e+000  7.957480e+001
      vertex  1.000000e+001  3.000000e+000  5.711426e+001
      vertex  1.000000e+001  3.000000e+000  7.957480e+001
    endloop
  endfacet
  facet normal  8.169211e-001  -0.000000e+000  5.767494e-001
    outer loop
      vertex  1.146463e+001  3.000000e+000  5.250026e+001
      vertex  1.146463e+001 -3.000000e+000  5.250026e+001
      vertex  4.500000e+001  3.000000e+000  5.000000e+000
    endloop
  endfacet
  facet normal  8.169211e-001  0.000000e+000  5.767494e-001
    outer loop
      vertex  4.500000e+001  3.000000e+000  5.000000e+000
      vertex  1.146463e+001 -3.000000e+000  5.250026e+001
      vertex  4.500000e+001 -3.000000e+000  5.000000e+000
    endloop
  endfacet
  facet normal  9.735455e-001  0.000000e+000  2.284929e-001
    outer loop
      vertex  1.037494e+001 -3.000000e+000  5.469382e+001
      vertex  1.009429e+001  3.000000e+000  5.588960e+001
      vertex  1.009429e+001 -3.000000e+000  5.588960e+001
    endloop
  endfacet
  facet normal  9.970491e-001  -0.000000e+000  7.676727e-002
    outer loop
      vertex  1.009429e+001 -3.000000e+000  5.588960e+001
      vertex  1.009429e+001  3.000000e+000  5.588960e+001
      vertex  1.000000e+001  3.000000e+000  5.711426e+001
    endloop
  endfacet
  facet normal  9.970491e-001  0.000000e+000  7.676727e-002
    outer loop
      vertex  1.009429e+001 -3.000000e+000  5.588960e+001
      vertex  1.000000e+001  3.000000e+000  5.711426e+001
      vertex  1.000000e+001 -3.000000e+000  5.711426e+001
    endloop
  endfacet
  facet normal  9.735455e-001  -0.000000e+000  2.284929e-001
    outer loop
      vertex  1.009429e+001  3.000000e+000  5.588960e+001
      vertex  1.037494e+001 -3.000000e+000  5.469382e+001
      vertex  1.037494e+001  3.000000e+000  5.469382e+001
    endloop
  endfacet
  facet normal  9.270931e-001  0.000000e+000  3.748308e-001
    outer loop
      vertex  1.037494e+001  3.000000e+000  5.469382e+001
      vertex  1.037494e+001 -3.000000e+000  5.469382e+001
      vertex  1.083534e+001 -3.000000e+000  5.355509e+001
    endloop
  endfacet
  facet normal  9.270931e-001  -0.000000e+000  3.748308e-001
    outer loop
      vertex  1.037494e+001  3.000000e+000  5.469382e+001
      vertex  1.083534e+001 -3.000000e+000  5.355509e+001
      vertex  1.083534e+001  3.000000e+000  5.355509e+001
    endloop
  endfacet
  facet normal  8.587852e-001  0.000000e+000  5.123359e-001
    outer loop
      vertex  1.083534e+001  3.000000e+000  5.355509e+001
      vertex  1.083534e+001 -3.000000e+000  5.355509e+001
      vertex  1.146463e+001 -3.000000e+000  5.250026e+001
    endloop
  endfacet
  facet normal  8.587852e-001  -0.000000e+000  5.123359e-001
    outer loop
      vertex  1.083534e+001  3.000000e+000  5.355509e+001
      vertex  1.146463e+001 -3.000000e+000  5.250026e+001
      vertex  1.146463e+001  3.000000e+000  5.250026e+001
    endloop
  endfacet
  facet normal -1.000000e+000  0.000000e+000  0.000000e+000
    outer loop
      vertex -1.000000e+001  3.000000e+000  5.711426e+001
      vertex -1.000000e+001 -3.000000e+000  5.711426e+001
      vertex -1.000000e+001  3.000000e+000  7.957480e+001
    endloop
  endfacet
  facet normal -1.000000e+000  -0.000000e+000  0.000000e+000
    outer loop
      vertex -1.000000e+001  3.000000e+000  7.957480e+001
      vertex -1.000000e+001 -3.000000e+000  5.711426e+001
      vertex -1.000000e+001 -3.000000e+000  7.957480e+001
    endloop
  endfacet
  facet normal -8.169211e-001  0.000000e+000  5.767494e-001
    outer loop
      vertex -1.146463e+001  3.000000e+000  5.250026e+001
      vertex -4.500000e+001  3.000000e+000  5.000000e+000
      vertex -1.146463e+001 -3.000000e+000  5.250026e+001
    endloop
  endfacet
  facet normal -8.169211e-001  0.000000e+000  5.767494e-001
    outer loop
      vertex -1.146463e+001 -3.000000e+000  5.250026e+001
      vertex -4.500000e+001  3.000000e+000  5.000000e+000
      vertex -4.500000e+001 -3.000000e+000  5.000000e+000
    endloop
  endfacet
  facet normal -9.270931e-001  0.000000e+000  3.748308e-001
    outer loop
      vertex -1.037494e+001 -3.000000e+000  5.469382e+001
      vertex -1.083534e+001  3.000000e+000  5.355509e+001
      vertex -1.083534e+001 -3.000000e+000  5.355509e+001
    endloop
  endfacet
  facet normal -8.587852e-001  0.000000e+000  5.123359e-001
    outer loop
      vertex -1.083534e+001 -3.000000e+000  5.355509e+001
      vertex -1.083534e+001  3.000000e+000  5.355509e+001
      vertex -1.146463e+001  3.000000e+000  5.250026e+001
    endloop
  endfacet
  facet normal -8.587852e-001  0.000000e+000  5.123359e-001
    outer loop
      vertex -1.083534e+001 -3.000000e+000  5.355509e+001
      vertex -1.146463e+001  3.000000e+000  5.250026e+001
      vertex -1.146463e+001 -3.000000e+000  5.250026e+001
    endloop
  endfacet
  facet normal -9.270931e-001  0.000000e+000  3.748308e-001
    outer loop
      vertex -1.083534e+001  3.000000e+000  5.355509e+001
      vertex -1.037494e+001 -3.000000e+000  5.469382e+001
      vertex -1.037494e+001  3.000000e+000  5.469382e+001
    endloop
  endfacet
  facet normal -9.735455e-001  0.000000e+000  2.284929e-001
    outer loop
      vertex -1.037494e+001  3.000000e+000  5.469382e+001
      vertex -1.037494e+001 -3.000000e+000  5.469382e+001
      vertex -1.009429e+001 -3.000000e+000  5.588960e+001
    endloop
  endfacet
  facet normal -9.735455e-001  0.000000e+000  2.284929e-001
    outer loop
      vertex -1.037494e+001  3.000000e+000  5.469382e+001
      vertex -1.009429e+001 -3.000000e+000  5.588960e+001
      vertex -1.009429e+001  3.000000e+000  5.588960e+001
    endloop
  endfacet
  facet normal -9.970491e-001  0.000000e+000  7.676727e-002
    outer loop
      vertex -1.009429e+001  3.000000e+000  5.588960e+001
      vertex -1.009429e+001 -3.000000e+000  5.588960e+001
      vertex -1.000000e+001 -3.000000e+000  5.711426e+001
    endloop
  endfacet
  facet normal -9.970491e-001  0.000000e+000  7.676727e-002
    outer loop
      vertex -1.009429e+001  3.000000e+000  5.588960e+001
      vertex -1.000000e+001 -3.000000e+000  5.711426e+001
      vertex -1.000000e+001  3.000000e+000  5.711426e+001
    endloop
  endfacet
  facet normal  0.000000e+000  0.000000e+000  1.000000e+000
    outer loop
      vertex -2.000000e+000 -3.000000e+000  8.757480e+001
      vertex  2.000000e+000 -3.000000e+000  8.757480e+001
      vertex -2.000000e+000  3.000000e+000  8.757480e+001
    endloop
  endfacet
  facet normal  -0.000000e+000  0.000000e+000  1.000000e+000
    outer loop
      vertex -2.000000e+000  3.000000e+000  8.757480e+001
      vertex  2.000000e+000 -3.000000e+000  8.757480e+001
      vertex  2.000000e+000  3.000000e+000  8.757480e+001
    endloop
  endfacet
  facet normal  9.969172e-001  0.000000e+000  7.845953e-002
    outer loop
      vertex  1.000000e+001 -3.000000e+000  7.957480e+001
      vertex  1.000000e+001  3.000000e+000  7.957480e+001
      vertex  9.901506e+000 -3.000000e+000  8.082627e+001
    endloop
  endfacet
  facet normal  9.969172e-001  -0.000000e+000  7.845953e-002
    outer loop
      vertex  9.901506e+000 -3.000000e+000  8.082627e+001
      vertex  1.000000e+001  3.000000e+000  7.957480e+001
      vertex  9.901506e+000  3.000000e+000  8.082627e+001
    endloop
  endfacet
  facet normal  9.723701e-001  0.000000e+000  2.334445e-001
    outer loop
      vertex  9.901506e+000 -3.000000e+000  8.082627e+001
      vertex  9.901506e+000  3.000000e+000  8.082627e+001
      vertex  9.608452e+000 -3.000000e+000  8.204694e+001
    endloop
  endfacet
  facet normal  9.723701e-001  -0.000000e+000  2.334445e-001
    outer loop
      vertex  9.608452e+000 -3.000000e+000  8.204694e+001
      vertex  9.901506e+000  3.000000e+000  8.082627e+001
      vertex  9.608452e+000  3.000000e+000  8.204694e+001
    endloop
  endfacet
  facet normal  9.238797e-001  0.000000e+000  3.826829e-001
    outer loop
      vertex  9.608452e+000 -3.000000e+000  8.204694e+001
      vertex  9.608452e+000  3.000000e+000  8.204694e+001
      vertex  9.128052e+000 -3.000000e+000  8.320673e+001
    endloop
  endfacet
  facet normal  9.238797e-001  -0.000000e+000  3.826829e-001
    outer loop
      vertex  9.128052e+000 -3.000000e+000  8.320673e+001
      vertex  9.608452e+000  3.000000e+000  8.204694e+001
      vertex  9.128052e+000  3.000000e+000  8.320673e+001
    endloop
  endfacet
  facet normal  8.526402e-001  0.000000e+000  5.224984e-001
    outer loop
      vertex  9.128052e+000 -3.000000e+000  8.320673e+001
      vertex  9.128052e+000  3.000000e+000  8.320673e+001
      vertex  8.472136e+000 -3.000000e+000  8.427708e+001
    endloop
  endfacet
  facet normal  8.526402e-001  -0.000000e+000  5.224984e-001
    outer loop
      vertex  8.472136e+000 -3.000000e+000  8.427708e+001
      vertex  9.128052e+000  3.000000e+000  8.320673e+001
      vertex  8.472136e+000  3.000000e+000  8.427708e+001
    endloop
  endfacet
  facet normal  7.604043e-001  0.000000e+000  6.494500e-001
    outer loop
      vertex  8.472136e+000 -3.000000e+000  8.427708e+001
      vertex  8.472136e+000  3.000000e+000  8.427708e+001
      vertex  7.656854e+000 -3.000000e+000  8.523165e+001
    endloop
  endfacet
  facet normal  7.604043e-001  -0.000000e+000  6.494500e-001
    outer loop
      vertex  7.656854e+000 -3.000000e+000  8.523165e+001
      vertex  8.472136e+000  3.000000e+000  8.427708e+001
      vertex  7.656854e+000  3.000000e+000  8.523165e+001
    endloop
  endfacet
  facet normal  6.494495e-001  0.000000e+000  7.604048e-001
    outer loop
      vertex  7.656854e+000 -3.000000e+000  8.523165e+001
      vertex  7.656854e+000  3.000000e+000  8.523165e+001
      vertex  6.702282e+000 -3.000000e+000  8.604694e+001
    endloop
  endfacet
  facet normal  6.494495e-001  -0.000000e+000  7.604048e-001
    outer loop
      vertex  6.702282e+000 -3.000000e+000  8.604694e+001
      vertex  7.656854e+000  3.000000e+000  8.523165e+001
      vertex  6.702282e+000  3.000000e+000  8.604694e+001
    endloop
  endfacet
  facet normal  5.224975e-001  0.000000e+000  8.526408e-001
    outer loop
      vertex  6.702282e+000 -3.000000e+000  8.604694e+001
      vertex  6.702282e+000  3.000000e+000  8.604694e+001
      vertex  5.631924e+000 -3.000000e+000  8.670285e+001
    endloop
  endfacet
  facet normal  5.224975e-001  -0.000000e+000  8.526408e-001
    outer loop
      vertex  5.631924e+000 -3.000000e+000  8.670285e+001
      vertex  6.702282e+000  3.000000e+000  8.604694e+001
      vertex  5.631924e+000  3.000000e+000  8.670285e+001
    endloop
  endfacet
  facet normal  3.826835e-001  0.000000e+000  9.238796e-001
    outer loop
      vertex  5.631924e+000 -3.000000e+000  8.670285e+001
      vertex  5.631924e+000  3.000000e+000  8.670285e+001
      vertex  4.472136e+000 -3.000000e+000  8.718325e+001
    endloop
  endfacet
  facet normal  3.826835e-001  -0.000000e+000  9.238796e-001
    outer loop
      vertex  4.472136e+000 -3.000000e+000  8.718325e+001
      vertex  5.631924e+000  3.000000e+000  8.670285e+001
      vertex  4.472136e+000  3.000000e+000  8.718325e+001
    endloop
  endfacet
  facet normal  2.334439e-001  0.000000e+000  9.723703e-001
    outer loop
      vertex  4.472136e+000 -3.000000e+000  8.718325e+001
      vertex  4.472136e+000  3.000000e+000  8.718325e+001
      vertex  3.251476e+000 -3.000000e+000  8.747630e+001
    endloop
  endfacet
  facet normal  2.334439e-001  -0.000000e+000  9.723703e-001
    outer loop
      vertex  3.251476e+000 -3.000000e+000  8.747630e+001
      vertex  4.472136e+000  3.000000e+000  8.718325e+001
      vertex  3.251476e+000  3.000000e+000  8.747630e+001
    endloop
  endfacet
  facet normal  7.846084e-002  0.000000e+000  9.969172e-001
    outer loop
      vertex  3.251476e+000 -3.000000e+000  8.747630e+001
      vertex  3.251476e+000  3.000000e+000  8.747630e+001
      vertex  2.000000e+000 -3.000000e+000  8.757480e+001
    endloop
  endfacet
  facet normal  7.846084e-002  -0.000000e+000  9.969172e-001
    outer loop
      vertex  2.000000e+000 -3.000000e+000  8.757480e+001
      vertex  3.251476e+000  3.000000e+000  8.747630e+001
      vertex  2.000000e+000  3.000000e+000  8.757480e+001
    endloop
  endfacet
  facet normal -7.846084e-002  0.000000e+000  9.969172e-001
    outer loop
      vertex -2.000000e+000 -3.000000e+000  8.757480e+001
      vertex -2.000000e+000  3.000000e+000  8.757480e+001
      vertex -3.251476e+000 -3.000000e+000  8.747630e+001
    endloop
  endfacet
  facet normal -7.846084e-002  0.000000e+000  9.969172e-001
    outer loop
      vertex -3.251476e+000 -3.000000e+000  8.747630e+001
      vertex -2.000000e+000  3.000000e+000  8.757480e+001
      vertex -3.251476e+000  3.000000e+000  8.747630e+001
    endloop
  endfacet
  facet normal -2.334439e-001  0.000000e+000  9.723703e-001
    outer loop
      vertex -3.251476e+000 -3.000000e+000  8.747630e+001
      vertex -3.251476e+000  3.000000e+000  8.747630e+001
      vertex -4.472136e+000 -3.000000e+000  8.718325e+001
    endloop
  endfacet
  facet normal -2.334439e-001  0.000000e+000  9.723703e-001
    outer loop
      vertex -4.472136e+000 -3.000000e+000  8.718325e+001
      vertex -3.251476e+000  3.000000e+000  8.747630e+001
      vertex -4.472136e+000  3.000000e+000  8.718325e+001
    endloop
  endfacet
  facet normal -3.826835e-001  0.000000e+000  9.238796e-001
    outer loop
      vertex -4.472136e+000 -3.000000e+000  8.718325e+001
      vertex -4.472136e+000  3.000000e+000  8.718325e+001
      vertex -5.631924e+000 -3.000000e+000  8.670285e+001
    endloop
  endfacet
  facet normal -3.826835e-001  0.000000e+000  9.238796e-001
    outer loop
      vertex -5.631924e+000 -3.000000e+000  8.670285e+001
      vertex -4.472136e+000  3.000000e+000  8.718325e+001
      vertex -5.631924e+000  3.000000e+000  8.670285e+001
    endloop
  endfacet
  facet normal -5.224975e-001  0.000000e+000  8.526408e-001
    outer loop
      vertex -5.631924e+000 -3.000000e+000  8.670285e+001
      vertex -5.631924e+000  3.000000e+000  8.670285e+001
      vertex -6.702282e+000 -3.000000e+000  8.604694e+001
    endloop
  endfacet
  facet normal -5.224975e-001  0.000000e+000  8.526408e-001
    outer loop
      vertex -6.702282e+000 -3.000000e+000  8.604694e+001
      vertex -5.631924e+000  3.000000e+000  8.670285e+001
      vertex -6.702282e+000  3.000000e+000  8.604694e+001
    endloop
  endfacet
  facet normal -6.494495e-001  0.000000e+000  7.604048e-001
    outer loop
      vertex -6.702282e+000 -3.000000e+000  8.604694e+001
      vertex -6.702282e+000  3.000000e+000  8.604694e+001
      vertex -7.656854e+000 -3.000000e+000  8.523165e+001
    endloop
  endfacet
  facet normal -6.494495e-001  0.000000e+000  7.604048e-001
    outer loop
      vertex -7.656854e+000 -3.000000e+000  8.523165e+001
      vertex -6.702282e+000  3.000000e+000  8.604694e+001
      vertex -7.656854e+000  3.000000e+000  8.523165e+001
    endloop
  endfacet
  facet normal -7.604043e-001  0.000000e+000  6.494500e-001
    outer loop
      vertex -7.656854e+000 -3.000000e+000  8.523165e+001
      vertex -7.656854e+000  3.000000e+000  8.523165e+001
      vertex -8.472136e+000 -3.000000e+000  8.427708e+001
    endloop
  endfacet
  facet normal -7.604043e-001  0.000000e+000  6.494500e-001
    outer loop
      vertex -8.472136e+000 -3.000000e+000  8.427708e+001
      vertex -7.656854e+000  3.000000e+000  8.523165e+001
      vertex -8.472136e+000  3.000000e+000  8.427708e+001
    endloop
  endfacet
  facet normal -8.526402e-001  0.000000e+000  5.224984e-001
    outer loop
      vertex -8.472136e+000 -3.000000e+000  8.427708e+001
      vertex -8.472136e+000  3.000000e+000  8.427708e+001
      vertex -9.128052e+000 -3.000000e+000  8.320673e+001
    endloop
  endfacet
  facet normal -8.526402e-001  0.000000e+000  5.224984e-001
    outer loop
      vertex -9.128052e+000 -3.000000e+000  8.320673e+001
      vertex -8.472136e+000  3.000000e+000  8.427708e+001
      vertex -9.128052e+000  3.000000e+000  8.320673e+001
    endloop
  endfacet
  facet normal -9.238797e-001  0.000000e+000  3.826829e-001
    outer loop
      vertex -9.128052e+000 -3.000000e+000  8.320673e+001
      vertex -9.128052e+000  3.000000e+000  8.320673e+001
      vertex -9.608452e+000 -3.000000e+000  8.204694e+001
    endloop
  endfacet
  facet normal -9.238797e-001  0.000000e+000  3.826829e-001
    outer loop
      vertex -9.608452e+000 -3.000000e+000  8.204694e+001
      vertex -9.128052e+000  3.000000e+000  8.320673e+001
      vertex -9.608452e+000  3.000000e+000  8.204694e+001
    endloop
  endfacet
  facet normal -9.723701e-001  0.000000e+000  2.334445e-001
    outer loop
      vertex -9.608452e+000 -3.000000e+000  8.204694e+001
      vertex -9.608452e+000  3.000000e+000  8.204694e+001
      vertex -9.901506e+000 -3.000000e+000  8.082627e+001
    endloop
  endfacet
  facet normal -9.723701e-001  0.000000e+000  2.334445e-001
    outer loop
      vertex -9.901506e+000 -3.000000e+000  8.082627e+001
      vertex -9.608452e+000  3.000000e+000  8.204694e+001
      vertex -9.901506e+000  3.000000e+000  8.082627e+001
    endloop
  endfacet
  facet normal -9.969172e-001  0.000000e+000  7.845953e-002
    outer loop
      vertex -9.901506e+000 -3.000000e+000  8.082627e+001
      vertex -9.901506e+000  3.000000e+000  8.082627e+001
      vertex -1.000000e+001 -3.000000e+000  7.957480e+001
    endloop
  endfacet
  facet normal -9.969172e-001  0.000000e+000  7.845953e-002
    outer loop
      vertex -1.000000e+001 -3.000000e+000  7.957480e+001
      vertex -9.901506e+000  3.000000e+000  8.082627e+001
      vertex -1.000000e+001  3.000000e+000  7.957480e+001
    endloop
  endfacet
  facet normal  0.000000e+000  0.000000e+000  1.000000e+000
    outer loop
      vertex -4.500000e+001 -3.250000e+001  5.000000e+000
      vertex  4.500000e+001 -3.250000e+001  5.000000e+000
      vertex -4.500000e+001 -3.000000e+000  5.000000e+000
    endloop
  endfacet
  facet normal  -0.000000e+000  0.000000e+000  1.000000e+000
    outer loop
      vertex -4.500000e+001 -3.000000e+000  5.000000e+000
      vertex  4.500000e+001 -3.250000e+001  5.000000e+000
      vertex  4.500000e+001 -3.000000e+000  5.000000e+000
    endloop
  endfacet
  facet normal  1.000000e+000  0.000000e+000  -0.000000e+000
    outer loop
      vertex  4.500000e+001 -3.250000e+001  0.000000e+000
      vertex  4.500000e+001  3.250000e+001  0.000000e+000
      vertex  4.500000e+001  3.250000e+001  5.000000e+000
    endloop
  endfacet
  facet normal  1.000000e+000  0.000000e+000  0.000000e+000
    outer loop
      vertex  4.500000e+001 -3.250000e+001  0.000000e+000
      vertex  4.500000e+001  3.250000e+001  5.000000e+000
      vertex  4.500000e+001  3.000000e+000  5.000000e+000
    endloop
  endfacet
  facet normal  1.000000e+000  0.000000e+000  0.000000e+000
    outer loop
      vertex  4.500000e+001 -3.250000e+001  0.000000e+000
      vertex  4.500000e+001  3.000000e+000  5.000000e+000
      vertex  4.500000e+001 -3.000000e+000  5.000000e+000
    endloop
  endfacet
  facet normal  1.000000e+000  0.000000e+000  0.000000e+000
    outer loop
      vertex  4.500000e+001 -3.250000e+001  0.000000e+000
      vertex  4.500000e+001 -3.000000e+000  5.000000e+000
      vertex  4.500000e+001 -3.250000e+001  5.000000e+000
    endloop
  endfacet
  facet normal -1.000000e+000  0.000000e+000  0.000000e+000
    outer loop
      vertex -4.500000e+001  3.250000e+001  0.000000e+000
      vertex -4.500000e+001 -3.250000e+001  0.000000e+000
      vertex -4.500000e+001 -3.250000e+001  5.000000e+000
    endloop
  endfacet
  facet normal -1.000000e+000  0.000000e+000  0.000000e+000
    outer loop
      vertex -4.500000e+001  3.250000e+001  0.000000e+000
      vertex -4.500000e+001 -3.250000e+001  5.000000e+000
      vertex -4.500000e+001 -3.000000e+000  5.000000e+000
    endloop
  endfacet
  facet normal -1.000000e+000  0.000000e+000  0.000000e+000
    outer loop
      vertex -4.500000e+001  3.250000e+001  0.000000e+000
      vertex -4.500000e+001 -3.000000e+000  5.000000e+000
      vertex -4.500000e+001  3.000000e+000  5.000000e+000
    endloop
  endfacet
  facet normal -1.000000e+000  0.000000e+000  0.000000e+000
    outer loop
      vertex -4.500000e+001  3.250000e+001  0.000000e+000
      vertex -4.500000e+001  3.000000e+000  5.000000e+000
      vertex -4.500000e+001  3.250000e+001  5.000000e+000
    endloop
  endfacet
  facet normal  0.000000e+000  0.000000e+000 -1.000000e+000
    outer loop
      vertex -4.500000e+001 -3.250000e+001  0.000000e+000
      vertex -4.500000e+001  3.250000e+001  0.000000e+000
      vertex  4.500000e+001 -3.250000e+001  0.000000e+000
    endloop
  endfacet
  facet normal  0.000000e+000  0.000000e+000 -1.000000e+000
    outer loop
      vertex  4.500000e+001 -3.250000e+001  0.000000e+000
      vertex -4.500000e+001  3.250000e+001  0.000000e+000
      vertex  4.500000e+001  3.250000e+001  0.000000e+000
    endloop
  endfacet
  facet normal  0.000000e+000  1.000000e+000  0.000000e+000
    outer loop
      vertex -4.500000e+001  3.250000e+001  5.000000e+000
      vertex  4.500000e+001  3.250000e+001  5.000000e+000
      vertex -4.500000e+001  3.250000e+001  0.000000e+000
    endloop
  endfacet
  facet normal  0.000000e+000  1.000000e+000  0.000000e+000
    outer loop
      vertex -4.500000e+001  3.250000e+001  0.000000e+000
      vertex  4.500000e+001  3.250000e+001  5.000000e+000
      vertex  4.500000e+001  3.250000e+001  0.000000e+000
    endloop
  endfacet
  facet normal  0.000000e+000 -1.000000e+000  0.000000e+000
    outer loop
      vertex  4.500000e+001 -3.250000e+001  5.000000e+000
      vertex -4.500000e+001 -3.250000e+001  5.000000e+000
      vertex  4.500000e+001 -3.250000e+001  0.000000e+000
    endloop
  endfacet
  facet normal  0.000000e+000 -1.000000e+000  0.000000e+000
    outer loop
      vertex  4.500000e+001 -3.250000e+001  0.000000e+000
      vertex -4.500000e+001 -3.250000e+001  5.000000e+000
      vertex -4.500000e+001 -3.250000e+001  0.000000e+000
    endloop
  endfacet
endsolid CATIA STL
