solid CATIA STL
  facet normal  1.000000e+000  0.000000e+000  0.000000e+000
    outer loop
      vertex  3.500000e+000 -5.000000e+000  1.250000e+002
      vertex  3.500000e+000 -3.250000e+001  5.000000e+000
      vertex  3.500000e+000 -5.000000e+000  5.000000e+000
    endloop
  endfacet
  facet normal -1.000000e+000  0.000000e+000  0.000000e+000
    outer loop
      vertex -3.500000e+000 -5.000000e+000  5.000000e+000
      vertex -3.500000e+000 -3.250000e+001  5.000000e+000
      vertex -3.500000e+000 -5.000000e+000  1.250000e+002
    endloop
  endfacet
  facet normal  0.000000e+000 -9.747323e-001  2.233761e-001
    outer loop
      vertex  3.500000e+000 -5.000000e+000  1.250000e+002
      vertex -3.500000e+000 -5.000000e+000  1.250000e+002
      vertex  3.500000e+000 -3.250000e+001  5.000000e+000
    endloop
  endfacet
  facet normal  0.000000e+000 -9.747323e-001  2.233761e-001
    outer loop
      vertex  3.500000e+000 -3.250000e+001  5.000000e+000
      vertex -3.500000e+000 -5.000000e+000  1.250000e+002
      vertex -3.500000e+000 -3.250000e+001  5.000000e+000
    endloop
  endfacet
  facet normal -1.000000e+000  0.000000e+000  0.000000e+000
    outer loop
      vertex -3.500000e+000  5.000000e+000  1.250000e+002
      vertex -3.500000e+000  3.250000e+001  5.000000e+000
      vertex -3.500000e+000  5.000000e+000  5.000000e+000
    endloop
  endfacet
  facet normal  1.000000e+000  0.000000e+000  0.000000e+000
    outer loop
      vertex  3.500000e+000  5.000000e+000  5.000000e+000
      vertex  3.500000e+000  3.250000e+001  5.000000e+000
      vertex  3.500000e+000  5.000000e+000  1.250000e+002
    endloop
  endfacet
  facet normal  0.000000e+000  9.747323e-001  2.233761e-001
    outer loop
      vertex  3.500000e+000  5.000000e+000  1.250000e+002
      vertex  3.500000e+000  3.250000e+001  5.000000e+000
      vertex -3.500000e+000  5.000000e+000  1.250000e+002
    endloop
  endfacet
  facet normal  0.000000e+000  9.747323e-001  2.233761e-001
    outer loop
      vertex -3.500000e+000  5.000000e+000  1.250000e+002
      vertex  3.500000e+000  3.250000e+001  5.000000e+000
      vertex -3.500000e+000  3.250000e+001  5.000000e+000
    endloop
  endfacet
  facet normal  0.000000e+000  0.000000e+000  1.000000e+000
    outer loop
      vertex -4.500000e+001 -3.250000e+001  5.000000e+000
      vertex -3.500000e+000 -3.250000e+001  5.000000e+000
      vertex -4.500000e+001 -5.000000e+000  5.000000e+000
    endloop
  endfacet
  facet normal  -0.000000e+000  0.000000e+000  1.000000e+000
    outer loop
      vertex -4.500000e+001 -5.000000e+000  5.000000e+000
      vertex -3.500000e+000 -3.250000e+001  5.000000e+000
      vertex -3.500000e+000 -5.000000e+000  5.000000e+000
    endloop
  endfacet
  facet normal  0.000000e+000  0.000000e+000  1.000000e+000
    outer loop
      vertex  3.500000e+000 -3.250000e+001  5.000000e+000
      vertex  4.500000e+001 -3.250000e+001  5.000000e+000
      vertex  3.500000e+000 -5.000000e+000  5.000000e+000
    endloop
  endfacet
  facet normal  -0.000000e+000  0.000000e+000  1.000000e+000
    outer loop
      vertex  3.500000e+000 -5.000000e+000  5.000000e+000
      vertex  4.500000e+001 -3.250000e+001  5.000000e+000
      vertex  4.500000e+001 -5.000000e+000  5.000000e+000
    endloop
  endfacet
  facet normal  0.000000e+000  0.000000e+000  1.000000e+000
    outer loop
      vertex  3.500000e+000  5.000000e+000  5.000000e+000
      vertex  4.500000e+001  5.000000e+000  5.000000e+000
      vertex  3.500000e+000  3.250000e+001  5.000000e+000
    endloop
  endfacet
  facet normal  -0.000000e+000  0.000000e+000  1.000000e+000
    outer loop
      vertex  3.500000e+000  3.250000e+001  5.000000e+000
      vertex  4.500000e+001  5.000000e+000  5.000000e+000
      vertex  4.500000e+001  3.250000e+001  5.000000e+000
    endloop
  endfacet
  facet normal  0.000000e+000  0.000000e+000  1.000000e+000
    outer loop
      vertex -4.500000e+001  5.000000e+000  5.000000e+000
      vertex -3.500000e+000  5.000000e+000  5.000000e+000
      vertex -4.500000e+001  3.250000e+001  5.000000e+000
    endloop
  endfacet
  facet normal  -0.000000e+000  0.000000e+000  1.000000e+000
    outer loop
      vertex -4.500000e+001  3.250000e+001  5.000000e+000
      vertex -3.500000e+000  5.000000e+000  5.000000e+000
      vertex -3.500000e+000  3.250000e+001  5.000000e+000
    endloop
  endfacet
  facet normal  0.000000e+000  1.000000e+000  0.000000e+000
    outer loop
      vertex -9.898214e+000  5.000000e+000  1.364231e+002
      vertex -6.180340e-001  5.000000e+000  1.369021e+002
      vertex -1.175570e+000  5.000000e+000  1.366180e+002
    endloop
  endfacet
  facet normal  0.000000e+000  1.000000e+000  0.000000e+000
    outer loop
      vertex  3.500000e+000  5.000000e+000  1.250000e+002
      vertex -3.500000e+000  5.000000e+000  1.250000e+002
      vertex  3.673819e-016  5.000000e+000  1.330000e+002
    endloop
  endfacet
  facet normal  0.000000e+000  1.000000e+000  0.000000e+000
    outer loop
      vertex  3.500000e+000  5.000000e+000  1.250000e+002
      vertex  3.673819e-016  5.000000e+000  1.330000e+002
      vertex  1.000000e+001  5.000000e+000  1.250000e+002
    endloop
  endfacet
  facet normal  0.000000e+000  1.000000e+000  0.000000e+000
    outer loop
      vertex  3.500000e+000  5.000000e+000  1.250000e+002
      vertex  1.000000e+001  5.000000e+000  1.250000e+002
      vertex  4.500000e+001  5.000000e+000  5.000000e+000
    endloop
  endfacet
  facet normal  0.000000e+000  1.000000e+000  0.000000e+000
    outer loop
      vertex  3.500000e+000  5.000000e+000  1.250000e+002
      vertex  4.500000e+001  5.000000e+000  5.000000e+000
      vertex  3.500000e+000  5.000000e+000  5.000000e+000
    endloop
  endfacet
  facet normal  0.000000e+000  1.000000e+000  -0.000000e+000
    outer loop
      vertex  1.000000e+001  5.000000e+000  1.350000e+002
      vertex  2.000000e+000  5.000000e+000  1.350000e+002
      vertex  1.902113e+000  5.000000e+000  1.356180e+002
    endloop
  endfacet
  facet normal  -0.000000e+000  1.000000e+000  -0.000000e+000
    outer loop
      vertex  1.000000e+001  5.000000e+000  1.350000e+002
      vertex  1.902113e+000  5.000000e+000  1.356180e+002
      vertex  1.618034e+000  5.000000e+000  1.361756e+002
    endloop
  endfacet
  facet normal  -0.000000e+000  1.000000e+000  -0.000000e+000
    outer loop
      vertex  1.000000e+001  5.000000e+000  1.350000e+002
      vertex  1.618034e+000  5.000000e+000  1.361756e+002
      vertex  1.175570e+000  5.000000e+000  1.366180e+002
    endloop
  endfacet
  facet normal  0.000000e+000  1.000000e+000  0.000000e+000
    outer loop
      vertex  1.000000e+001  5.000000e+000  1.350000e+002
      vertex  1.175570e+000  5.000000e+000  1.366180e+002
      vertex  9.898214e+000  5.000000e+000  1.364231e+002
    endloop
  endfacet
  facet normal  -0.000000e+000  1.000000e+000  0.000000e+000
    outer loop
      vertex -1.000000e+001  5.000000e+000  1.350000e+002
      vertex -9.898214e+000  5.000000e+000  1.364231e+002
      vertex -1.175570e+000  5.000000e+000  1.366180e+002
    endloop
  endfacet
  facet normal  0.000000e+000  9.999999e-001  0.000000e+000
    outer loop
      vertex -1.000000e+001  5.000000e+000  1.350000e+002
      vertex -1.175570e+000  5.000000e+000  1.366180e+002
      vertex -1.618034e+000  5.000000e+000  1.361756e+002
    endloop
  endfacet
  facet normal  0.000000e+000  1.000000e+000  0.000000e+000
    outer loop
      vertex -1.000000e+001  5.000000e+000  1.350000e+002
      vertex -1.618034e+000  5.000000e+000  1.361756e+002
      vertex -1.902113e+000  5.000000e+000  1.356180e+002
    endloop
  endfacet
  facet normal  0.000000e+000  1.000000e+000  0.000000e+000
    outer loop
      vertex -1.000000e+001  5.000000e+000  1.350000e+002
      vertex -1.902113e+000  5.000000e+000  1.356180e+002
      vertex -2.000000e+000  5.000000e+000  1.350000e+002
    endloop
  endfacet
  facet normal  0.000000e+000  1.000000e+000  0.000000e+000
    outer loop
      vertex -1.000000e+001  5.000000e+000  1.350000e+002
      vertex -2.000000e+000  5.000000e+000  1.350000e+002
      vertex -1.902113e+000  5.000000e+000  1.343820e+002
    endloop
  endfacet
  facet normal  0.000000e+000  9.999999e-001  0.000000e+000
    outer loop
      vertex -1.000000e+001  5.000000e+000  1.350000e+002
      vertex -1.902113e+000  5.000000e+000  1.343820e+002
      vertex -1.000000e+001  5.000000e+000  1.250000e+002
    endloop
  endfacet
  facet normal  0.000000e+000  1.000000e+000  -0.000000e+000
    outer loop
      vertex -1.224606e-016  5.000000e+000  1.370000e+002
      vertex -6.180340e-001  5.000000e+000  1.369021e+002
      vertex -9.898214e+000  5.000000e+000  1.364231e+002
    endloop
  endfacet
  facet normal  0.000000e+000  1.000000e+000  0.000000e+000
    outer loop
      vertex -1.224606e-016  5.000000e+000  1.370000e+002
      vertex -9.898214e+000  5.000000e+000  1.364231e+002
      vertex -9.594930e+000  5.000000e+000  1.378173e+002
    endloop
  endfacet
  facet normal  -0.000000e+000  1.000000e+000  0.000000e+000
    outer loop
      vertex -1.224606e-016  5.000000e+000  1.370000e+002
      vertex -9.594930e+000  5.000000e+000  1.378173e+002
      vertex -9.096320e+000  5.000000e+000  1.391541e+002
    endloop
  endfacet
  facet normal  -0.000000e+000  1.000000e+000  0.000000e+000
    outer loop
      vertex -1.224606e-016  5.000000e+000  1.370000e+002
      vertex -9.096320e+000  5.000000e+000  1.391541e+002
      vertex -8.412536e+000  5.000000e+000  1.404064e+002
    endloop
  endfacet
  facet normal  -0.000000e+000  1.000000e+000  0.000000e+000
    outer loop
      vertex -1.224606e-016  5.000000e+000  1.370000e+002
      vertex -8.412536e+000  5.000000e+000  1.404064e+002
      vertex -7.557496e+000  5.000000e+000  1.415486e+002
    endloop
  endfacet
  facet normal  -0.000000e+000  1.000000e+000  0.000000e+000
    outer loop
      vertex -1.224606e-016  5.000000e+000  1.370000e+002
      vertex -7.557496e+000  5.000000e+000  1.415486e+002
      vertex -6.548607e+000  5.000000e+000  1.425575e+002
    endloop
  endfacet
  facet normal  -0.000000e+000  9.999999e-001  0.000000e+000
    outer loop
      vertex -1.224606e-016  5.000000e+000  1.370000e+002
      vertex -6.548607e+000  5.000000e+000  1.425575e+002
      vertex -5.406408e+000  5.000000e+000  1.434125e+002
    endloop
  endfacet
  facet normal  -0.000000e+000  1.000000e+000  0.000000e+000
    outer loop
      vertex -1.224606e-016  5.000000e+000  1.370000e+002
      vertex -5.406408e+000  5.000000e+000  1.434125e+002
      vertex -4.154150e+000  5.000000e+000  1.440963e+002
    endloop
  endfacet
  facet normal  -0.000000e+000  1.000000e+000  0.000000e+000
    outer loop
      vertex -1.224606e-016  5.000000e+000  1.370000e+002
      vertex -4.154150e+000  5.000000e+000  1.440963e+002
      vertex -2.817326e+000  5.000000e+000  1.445949e+002
    endloop
  endfacet
  facet normal  -0.000000e+000  1.000000e+000  0.000000e+000
    outer loop
      vertex -1.224606e-016  5.000000e+000  1.370000e+002
      vertex -2.817326e+000  5.000000e+000  1.445949e+002
      vertex -1.423148e+000  5.000000e+000  1.448982e+002
    endloop
  endfacet
  facet normal  -0.000000e+000  1.000000e+000  0.000000e+000
    outer loop
      vertex -1.224606e-016  5.000000e+000  1.370000e+002
      vertex -1.423148e+000  5.000000e+000  1.448982e+002
      vertex -4.440892e-015  5.000000e+000  1.450000e+002
    endloop
  endfacet
  facet normal  0.000000e+000  1.000000e+000  0.000000e+000
    outer loop
      vertex -1.224606e-016  5.000000e+000  1.370000e+002
      vertex -4.440892e-015  5.000000e+000  1.450000e+002
      vertex  1.423148e+000  5.000000e+000  1.448982e+002
    endloop
  endfacet
  facet normal  0.000000e+000  1.000000e+000  0.000000e+000
    outer loop
      vertex -1.224606e-016  5.000000e+000  1.370000e+002
      vertex  1.423148e+000  5.000000e+000  1.448982e+002
      vertex  2.817326e+000  5.000000e+000  1.445949e+002
    endloop
  endfacet
  facet normal  0.000000e+000  1.000000e+000  0.000000e+000
    outer loop
      vertex -1.224606e-016  5.000000e+000  1.370000e+002
      vertex  2.817326e+000  5.000000e+000  1.445949e+002
      vertex  4.154150e+000  5.000000e+000  1.440963e+002
    endloop
  endfacet
  facet normal  0.000000e+000  1.000000e+000  0.000000e+000
    outer loop
      vertex -1.224606e-016  5.000000e+000  1.370000e+002
      vertex  4.154150e+000  5.000000e+000  1.440963e+002
      vertex  5.406408e+000  5.000000e+000  1.434125e+002
    endloop
  endfacet
  facet normal  0.000000e+000  9.999999e-001  0.000000e+000
    outer loop
      vertex -1.224606e-016  5.000000e+000  1.370000e+002
      vertex  5.406408e+000  5.000000e+000  1.434125e+002
      vertex  6.548607e+000  5.000000e+000  1.425575e+002
    endloop
  endfacet
  facet normal  0.000000e+000  1.000000e+000  0.000000e+000
    outer loop
      vertex -1.224606e-016  5.000000e+000  1.370000e+002
      vertex  6.548607e+000  5.000000e+000  1.425575e+002
      vertex  7.557496e+000  5.000000e+000  1.415486e+002
    endloop
  endfacet
  facet normal  0.000000e+000  1.000000e+000  0.000000e+000
    outer loop
      vertex -1.224606e-016  5.000000e+000  1.370000e+002
      vertex  7.557496e+000  5.000000e+000  1.415486e+002
      vertex  8.412536e+000  5.000000e+000  1.404064e+002
    endloop
  endfacet
  facet normal  0.000000e+000  1.000000e+000  0.000000e+000
    outer loop
      vertex -1.224606e-016  5.000000e+000  1.370000e+002
      vertex  8.412536e+000  5.000000e+000  1.404064e+002
      vertex  9.096320e+000  5.000000e+000  1.391541e+002
    endloop
  endfacet
  facet normal  0.000000e+000  1.000000e+000  0.000000e+000
    outer loop
      vertex -1.224606e-016  5.000000e+000  1.370000e+002
      vertex  9.096320e+000  5.000000e+000  1.391541e+002
      vertex  9.594930e+000  5.000000e+000  1.378173e+002
    endloop
  endfacet
  facet normal  -0.000000e+000  1.000000e+000  -0.000000e+000
    outer loop
      vertex  9.898214e+000  5.000000e+000  1.364231e+002
      vertex  1.175570e+000  5.000000e+000  1.366180e+002
      vertex  6.180340e-001  5.000000e+000  1.369021e+002
    endloop
  endfacet
  facet normal  -0.000000e+000  1.000000e+000  -0.000000e+000
    outer loop
      vertex  9.898214e+000  5.000000e+000  1.364231e+002
      vertex  6.180340e-001  5.000000e+000  1.369021e+002
      vertex -1.224606e-016  5.000000e+000  1.370000e+002
    endloop
  endfacet
  facet normal  -0.000000e+000  1.000000e+000  0.000000e+000
    outer loop
      vertex  9.898214e+000  5.000000e+000  1.364231e+002
      vertex -1.224606e-016  5.000000e+000  1.370000e+002
      vertex  9.594930e+000  5.000000e+000  1.378173e+002
    endloop
  endfacet
  facet normal  -0.000000e+000  1.000000e+000  0.000000e+000
    outer loop
      vertex  1.000000e+001  5.000000e+000  1.250000e+002
      vertex  3.673819e-016  5.000000e+000  1.330000e+002
      vertex  6.180340e-001  5.000000e+000  1.330979e+002
    endloop
  endfacet
  facet normal  -0.000000e+000  1.000000e+000  0.000000e+000
    outer loop
      vertex  1.000000e+001  5.000000e+000  1.250000e+002
      vertex  6.180340e-001  5.000000e+000  1.330979e+002
      vertex  1.175570e+000  5.000000e+000  1.333820e+002
    endloop
  endfacet
  facet normal  -0.000000e+000  1.000000e+000  0.000000e+000
    outer loop
      vertex  1.000000e+001  5.000000e+000  1.250000e+002
      vertex  1.175570e+000  5.000000e+000  1.333820e+002
      vertex  1.618034e+000  5.000000e+000  1.338244e+002
    endloop
  endfacet
  facet normal  -0.000000e+000  9.999999e-001  0.000000e+000
    outer loop
      vertex  1.000000e+001  5.000000e+000  1.250000e+002
      vertex  1.618034e+000  5.000000e+000  1.338244e+002
      vertex  1.902113e+000  5.000000e+000  1.343820e+002
    endloop
  endfacet
  facet normal  -0.000000e+000  1.000000e+000  0.000000e+000
    outer loop
      vertex  1.000000e+001  5.000000e+000  1.250000e+002
      vertex  1.902113e+000  5.000000e+000  1.343820e+002
      vertex  2.000000e+000  5.000000e+000  1.350000e+002
    endloop
  endfacet
  facet normal  -0.000000e+000  1.000000e+000  0.000000e+000
    outer loop
      vertex  1.000000e+001  5.000000e+000  1.250000e+002
      vertex  2.000000e+000  5.000000e+000  1.350000e+002
      vertex  1.000000e+001  5.000000e+000  1.350000e+002
    endloop
  endfacet
  facet normal  0.000000e+000  9.999999e-001  0.000000e+000
    outer loop
      vertex -1.000000e+001  5.000000e+000  1.250000e+002
      vertex -1.902113e+000  5.000000e+000  1.343820e+002
      vertex -1.618034e+000  5.000000e+000  1.338244e+002
    endloop
  endfacet
  facet normal  0.000000e+000  1.000000e+000  0.000000e+000
    outer loop
      vertex -1.000000e+001  5.000000e+000  1.250000e+002
      vertex -1.618034e+000  5.000000e+000  1.338244e+002
      vertex -1.175570e+000  5.000000e+000  1.333820e+002
    endloop
  endfacet
  facet normal  0.000000e+000  1.000000e+000  0.000000e+000
    outer loop
      vertex -1.000000e+001  5.000000e+000  1.250000e+002
      vertex -1.175570e+000  5.000000e+000  1.333820e+002
      vertex -6.180340e-001  5.000000e+000  1.330979e+002
    endloop
  endfacet
  facet normal  0.000000e+000  1.000000e+000  0.000000e+000
    outer loop
      vertex -1.000000e+001  5.000000e+000  1.250000e+002
      vertex -6.180340e-001  5.000000e+000  1.330979e+002
      vertex  3.673819e-016  5.000000e+000  1.330000e+002
    endloop
  endfacet
  facet normal  0.000000e+000  1.000000e+000  0.000000e+000
    outer loop
      vertex -1.000000e+001  5.000000e+000  1.250000e+002
      vertex  3.673819e-016  5.000000e+000  1.330000e+002
      vertex -3.500000e+000  5.000000e+000  1.250000e+002
    endloop
  endfacet
  facet normal  0.000000e+000  1.000000e+000  0.000000e+000
    outer loop
      vertex -1.000000e+001  5.000000e+000  1.250000e+002
      vertex -3.500000e+000  5.000000e+000  1.250000e+002
      vertex -3.500000e+000  5.000000e+000  5.000000e+000
    endloop
  endfacet
  facet normal  0.000000e+000  1.000000e+000  0.000000e+000
    outer loop
      vertex -1.000000e+001  5.000000e+000  1.250000e+002
      vertex -3.500000e+000  5.000000e+000  5.000000e+000
      vertex -4.500000e+001  5.000000e+000  5.000000e+000
    endloop
  endfacet
  facet normal  0.000000e+000 -1.000000e+000  0.000000e+000
    outer loop
      vertex  9.898214e+000 -5.000000e+000  1.364231e+002
      vertex  6.180340e-001 -5.000000e+000  1.369021e+002
      vertex  1.175570e+000 -5.000000e+000  1.366180e+002
    endloop
  endfacet
  facet normal  0.000000e+000 -1.000000e+000  0.000000e+000
    outer loop
      vertex -3.500000e+000 -5.000000e+000  1.250000e+002
      vertex  3.500000e+000 -5.000000e+000  1.250000e+002
      vertex  0.000000e+000 -5.000000e+000  1.330000e+002
    endloop
  endfacet
  facet normal  0.000000e+000 -1.000000e+000  0.000000e+000
    outer loop
      vertex -3.500000e+000 -5.000000e+000  1.250000e+002
      vertex  0.000000e+000 -5.000000e+000  1.330000e+002
      vertex -1.000000e+001 -5.000000e+000  1.250000e+002
    endloop
  endfacet
  facet normal  0.000000e+000 -1.000000e+000  -0.000000e+000
    outer loop
      vertex -3.500000e+000 -5.000000e+000  1.250000e+002
      vertex -1.000000e+001 -5.000000e+000  1.250000e+002
      vertex -4.500000e+001 -5.000000e+000  5.000000e+000
    endloop
  endfacet
  facet normal  0.000000e+000 -1.000000e+000  0.000000e+000
    outer loop
      vertex -3.500000e+000 -5.000000e+000  1.250000e+002
      vertex -4.500000e+001 -5.000000e+000  5.000000e+000
      vertex -3.500000e+000 -5.000000e+000  5.000000e+000
    endloop
  endfacet
  facet normal  0.000000e+000 -1.000000e+000  0.000000e+000
    outer loop
      vertex -1.000000e+001 -5.000000e+000  1.350000e+002
      vertex -2.000000e+000 -5.000000e+000  1.350000e+002
      vertex -1.902113e+000 -5.000000e+000  1.356180e+002
    endloop
  endfacet
  facet normal  -0.000000e+000 -1.000000e+000  0.000000e+000
    outer loop
      vertex -1.000000e+001 -5.000000e+000  1.350000e+002
      vertex -1.902113e+000 -5.000000e+000  1.356180e+002
      vertex -1.618034e+000 -5.000000e+000  1.361756e+002
    endloop
  endfacet
  facet normal  -0.000000e+000 -1.000000e+000  0.000000e+000
    outer loop
      vertex -1.000000e+001 -5.000000e+000  1.350000e+002
      vertex -1.618034e+000 -5.000000e+000  1.361756e+002
      vertex -1.175570e+000 -5.000000e+000  1.366180e+002
    endloop
  endfacet
  facet normal  0.000000e+000 -1.000000e+000  0.000000e+000
    outer loop
      vertex -1.000000e+001 -5.000000e+000  1.350000e+002
      vertex -1.175570e+000 -5.000000e+000  1.366180e+002
      vertex -9.898214e+000 -5.000000e+000  1.364231e+002
    endloop
  endfacet
  facet normal  -0.000000e+000 -1.000000e+000  -0.000000e+000
    outer loop
      vertex  1.000000e+001 -5.000000e+000  1.350000e+002
      vertex  9.898214e+000 -5.000000e+000  1.364231e+002
      vertex  1.175570e+000 -5.000000e+000  1.366180e+002
    endloop
  endfacet
  facet normal  0.000000e+000 -9.999999e-001  0.000000e+000
    outer loop
      vertex  1.000000e+001 -5.000000e+000  1.350000e+002
      vertex  1.175570e+000 -5.000000e+000  1.366180e+002
      vertex  1.618034e+000 -5.000000e+000  1.361756e+002
    endloop
  endfacet
  facet normal  0.000000e+000 -1.000000e+000  0.000000e+000
    outer loop
      vertex  1.000000e+001 -5.000000e+000  1.350000e+002
      vertex  1.618034e+000 -5.000000e+000  1.361756e+002
      vertex  1.902113e+000 -5.000000e+000  1.356180e+002
    endloop
  endfacet
  facet normal  0.000000e+000 -1.000000e+000  0.000000e+000
    outer loop
      vertex  1.000000e+001 -5.000000e+000  1.350000e+002
      vertex  1.902113e+000 -5.000000e+000  1.356180e+002
      vertex  2.000000e+000 -5.000000e+000  1.350000e+002
    endloop
  endfacet
  facet normal  0.000000e+000 -1.000000e+000  -0.000000e+000
    outer loop
      vertex  1.000000e+001 -5.000000e+000  1.350000e+002
      vertex  2.000000e+000 -5.000000e+000  1.350000e+002
      vertex  1.902113e+000 -5.000000e+000  1.343820e+002
    endloop
  endfacet
  facet normal  0.000000e+000 -9.999999e-001  0.000000e+000
    outer loop
      vertex  1.000000e+001 -5.000000e+000  1.350000e+002
      vertex  1.902113e+000 -5.000000e+000  1.343820e+002
      vertex  1.000000e+001 -5.000000e+000  1.250000e+002
    endloop
  endfacet
  facet normal  0.000000e+000 -1.000000e+000  0.000000e+000
    outer loop
      vertex  0.000000e+000 -5.000000e+000  1.370000e+002
      vertex  6.180340e-001 -5.000000e+000  1.369021e+002
      vertex  9.898214e+000 -5.000000e+000  1.364231e+002
    endloop
  endfacet
  facet normal  0.000000e+000 -1.000000e+000  0.000000e+000
    outer loop
      vertex  0.000000e+000 -5.000000e+000  1.370000e+002
      vertex  9.898214e+000 -5.000000e+000  1.364231e+002
      vertex  9.594930e+000 -5.000000e+000  1.378173e+002
    endloop
  endfacet
  facet normal  -0.000000e+000 -1.000000e+000  0.000000e+000
    outer loop
      vertex  0.000000e+000 -5.000000e+000  1.370000e+002
      vertex  9.594930e+000 -5.000000e+000  1.378173e+002
      vertex  9.096320e+000 -5.000000e+000  1.391541e+002
    endloop
  endfacet
  facet normal  -0.000000e+000 -1.000000e+000  0.000000e+000
    outer loop
      vertex  0.000000e+000 -5.000000e+000  1.370000e+002
      vertex  9.096320e+000 -5.000000e+000  1.391541e+002
      vertex  8.412536e+000 -5.000000e+000  1.404064e+002
    endloop
  endfacet
  facet normal  -0.000000e+000 -1.000000e+000  0.000000e+000
    outer loop
      vertex  0.000000e+000 -5.000000e+000  1.370000e+002
      vertex  8.412536e+000 -5.000000e+000  1.404064e+002
      vertex  7.557496e+000 -5.000000e+000  1.415486e+002
    endloop
  endfacet
  facet normal  -0.000000e+000 -1.000000e+000  0.000000e+000
    outer loop
      vertex  0.000000e+000 -5.000000e+000  1.370000e+002
      vertex  7.557496e+000 -5.000000e+000  1.415486e+002
      vertex  6.548607e+000 -5.000000e+000  1.425575e+002
    endloop
  endfacet
  facet normal  -0.000000e+000 -9.999999e-001  0.000000e+000
    outer loop
      vertex  0.000000e+000 -5.000000e+000  1.370000e+002
      vertex  6.548607e+000 -5.000000e+000  1.425575e+002
      vertex  5.406408e+000 -5.000000e+000  1.434125e+002
    endloop
  endfacet
  facet normal  -0.000000e+000 -1.000000e+000  0.000000e+000
    outer loop
      vertex  0.000000e+000 -5.000000e+000  1.370000e+002
      vertex  5.406408e+000 -5.000000e+000  1.434125e+002
      vertex  4.154150e+000 -5.000000e+000  1.440963e+002
    endloop
  endfacet
  facet normal  -0.000000e+000 -1.000000e+000  0.000000e+000
    outer loop
      vertex  0.000000e+000 -5.000000e+000  1.370000e+002
      vertex  4.154150e+000 -5.000000e+000  1.440963e+002
      vertex  2.817326e+000 -5.000000e+000  1.445949e+002
    endloop
  endfacet
  facet normal  -0.000000e+000 -1.000000e+000  0.000000e+000
    outer loop
      vertex  0.000000e+000 -5.000000e+000  1.370000e+002
      vertex  2.817326e+000 -5.000000e+000  1.445949e+002
      vertex  1.423148e+000 -5.000000e+000  1.448982e+002
    endloop
  endfacet
  facet normal  -0.000000e+000 -1.000000e+000  0.000000e+000
    outer loop
      vertex  0.000000e+000 -5.000000e+000  1.370000e+002
      vertex  1.423148e+000 -5.000000e+000  1.448982e+002
      vertex -3.552714e-015 -5.000000e+000  1.450000e+002
    endloop
  endfacet
  facet normal  0.000000e+000 -1.000000e+000  -0.000000e+000
    outer loop
      vertex  0.000000e+000 -5.000000e+000  1.370000e+002
      vertex -3.552714e-015 -5.000000e+000  1.450000e+002
      vertex -1.423148e+000 -5.000000e+000  1.448982e+002
    endloop
  endfacet
  facet normal  0.000000e+000 -1.000000e+000  -0.000000e+000
    outer loop
      vertex  0.000000e+000 -5.000000e+000  1.370000e+002
      vertex -1.423148e+000 -5.000000e+000  1.448982e+002
      vertex -2.817326e+000 -5.000000e+000  1.445949e+002
    endloop
  endfacet
  facet normal  0.000000e+000 -1.000000e+000  -0.000000e+000
    outer loop
      vertex  0.000000e+000 -5.000000e+000  1.370000e+002
      vertex -2.817326e+000 -5.000000e+000  1.445949e+002
      vertex -4.154150e+000 -5.000000e+000  1.440963e+002
    endloop
  endfacet
  facet normal  0.000000e+000 -1.000000e+000  -0.000000e+000
    outer loop
      vertex  0.000000e+000 -5.000000e+000  1.370000e+002
      vertex -4.154150e+000 -5.000000e+000  1.440963e+002
      vertex -5.406408e+000 -5.000000e+000  1.434125e+002
    endloop
  endfacet
  facet normal  0.000000e+000 -9.999999e-001  -0.000000e+000
    outer loop
      vertex  0.000000e+000 -5.000000e+000  1.370000e+002
      vertex -5.406408e+000 -5.000000e+000  1.434125e+002
      vertex -6.548607e+000 -5.000000e+000  1.425575e+002
    endloop
  endfacet
  facet normal  0.000000e+000 -1.000000e+000  -0.000000e+000
    outer loop
      vertex  0.000000e+000 -5.000000e+000  1.370000e+002
      vertex -6.548607e+000 -5.000000e+000  1.425575e+002
      vertex -7.557496e+000 -5.000000e+000  1.415486e+002
    endloop
  endfacet
  facet normal  0.000000e+000 -1.000000e+000  -0.000000e+000
    outer loop
      vertex  0.000000e+000 -5.000000e+000  1.370000e+002
      vertex -7.557496e+000 -5.000000e+000  1.415486e+002
      vertex -8.412536e+000 -5.000000e+000  1.404064e+002
    endloop
  endfacet
  facet normal  0.000000e+000 -1.000000e+000  -0.000000e+000
    outer loop
      vertex  0.000000e+000 -5.000000e+000  1.370000e+002
      vertex -8.412536e+000 -5.000000e+000  1.404064e+002
      vertex -9.096320e+000 -5.000000e+000  1.391541e+002
    endloop
  endfacet
  facet normal  0.000000e+000 -1.000000e+000  -0.000000e+000
    outer loop
      vertex  0.000000e+000 -5.000000e+000  1.370000e+002
      vertex -9.096320e+000 -5.000000e+000  1.391541e+002
      vertex -9.594930e+000 -5.000000e+000  1.378173e+002
    endloop
  endfacet
  facet normal  -0.000000e+000 -1.000000e+000  0.000000e+000
    outer loop
      vertex -9.898214e+000 -5.000000e+000  1.364231e+002
      vertex -1.175570e+000 -5.000000e+000  1.366180e+002
      vertex -6.180340e-001 -5.000000e+000  1.369021e+002
    endloop
  endfacet
  facet normal  -0.000000e+000 -1.000000e+000  0.000000e+000
    outer loop
      vertex -9.898214e+000 -5.000000e+000  1.364231e+002
      vertex -6.180340e-001 -5.000000e+000  1.369021e+002
      vertex  0.000000e+000 -5.000000e+000  1.370000e+002
    endloop
  endfacet
  facet normal  -0.000000e+000 -1.000000e+000  0.000000e+000
    outer loop
      vertex -9.898214e+000 -5.000000e+000  1.364231e+002
      vertex  0.000000e+000 -5.000000e+000  1.370000e+002
      vertex -9.594930e+000 -5.000000e+000  1.378173e+002
    endloop
  endfacet
  facet normal  -0.000000e+000 -1.000000e+000  0.000000e+000
    outer loop
      vertex -1.000000e+001 -5.000000e+000  1.250000e+002
      vertex  0.000000e+000 -5.000000e+000  1.330000e+002
      vertex -6.180340e-001 -5.000000e+000  1.330979e+002
    endloop
  endfacet
  facet normal  -0.000000e+000 -1.000000e+000  0.000000e+000
    outer loop
      vertex -1.000000e+001 -5.000000e+000  1.250000e+002
      vertex -6.180340e-001 -5.000000e+000  1.330979e+002
      vertex -1.175570e+000 -5.000000e+000  1.333820e+002
    endloop
  endfacet
  facet normal  -0.000000e+000 -1.000000e+000  0.000000e+000
    outer loop
      vertex -1.000000e+001 -5.000000e+000  1.250000e+002
      vertex -1.175570e+000 -5.000000e+000  1.333820e+002
      vertex -1.618034e+000 -5.000000e+000  1.338244e+002
    endloop
  endfacet
  facet normal  -0.000000e+000 -9.999999e-001  0.000000e+000
    outer loop
      vertex -1.000000e+001 -5.000000e+000  1.250000e+002
      vertex -1.618034e+000 -5.000000e+000  1.338244e+002
      vertex -1.902113e+000 -5.000000e+000  1.343820e+002
    endloop
  endfacet
  facet normal  -0.000000e+000 -1.000000e+000  0.000000e+000
    outer loop
      vertex -1.000000e+001 -5.000000e+000  1.250000e+002
      vertex -1.902113e+000 -5.000000e+000  1.343820e+002
      vertex -2.000000e+000 -5.000000e+000  1.350000e+002
    endloop
  endfacet
  facet normal  -0.000000e+000 -1.000000e+000  0.000000e+000
    outer loop
      vertex -1.000000e+001 -5.000000e+000  1.250000e+002
      vertex -2.000000e+000 -5.000000e+000  1.350000e+002
      vertex -1.000000e+001 -5.000000e+000  1.350000e+002
    endloop
  endfacet
  facet normal  0.000000e+000 -9.999999e-001  -0.000000e+000
    outer loop
      vertex  1.000000e+001 -5.000000e+000  1.250000e+002
      vertex  1.902113e+000 -5.000000e+000  1.343820e+002
      vertex  1.618034e+000 -5.000000e+000  1.338244e+002
    endloop
  endfacet
  facet normal  0.000000e+000 -1.000000e+000  -0.000000e+000
    outer loop
      vertex  1.000000e+001 -5.000000e+000  1.250000e+002
      vertex  1.618034e+000 -5.000000e+000  1.338244e+002
      vertex  1.175570e+000 -5.000000e+000  1.333820e+002
    endloop
  endfacet
  facet normal  0.000000e+000 -1.000000e+000  -0.000000e+000
    outer loop
      vertex  1.000000e+001 -5.000000e+000  1.250000e+002
      vertex  1.175570e+000 -5.000000e+000  1.333820e+002
      vertex  6.180340e-001 -5.000000e+000  1.330979e+002
    endloop
  endfacet
  facet normal  0.000000e+000 -1.000000e+000  -0.000000e+000
    outer loop
      vertex  1.000000e+001 -5.000000e+000  1.250000e+002
      vertex  6.180340e-001 -5.000000e+000  1.330979e+002
      vertex  0.000000e+000 -5.000000e+000  1.330000e+002
    endloop
  endfacet
  facet normal  0.000000e+000 -1.000000e+000  0.000000e+000
    outer loop
      vertex  1.000000e+001 -5.000000e+000  1.250000e+002
      vertex  0.000000e+000 -5.000000e+000  1.330000e+002
      vertex  3.500000e+000 -5.000000e+000  1.250000e+002
    endloop
  endfacet
  facet normal  0.000000e+000 -1.000000e+000  0.000000e+000
    outer loop
      vertex  1.000000e+001 -5.000000e+000  1.250000e+002
      vertex  3.500000e+000 -5.000000e+000  1.250000e+002
      vertex  3.500000e+000 -5.000000e+000  5.000000e+000
    endloop
  endfacet
  facet normal  0.000000e+000 -1.000000e+000  0.000000e+000
    outer loop
      vertex  1.000000e+001 -5.000000e+000  1.250000e+002
      vertex  3.500000e+000 -5.000000e+000  5.000000e+000
      vertex  4.500000e+001 -5.000000e+000  5.000000e+000
    endloop
  endfacet
  facet normal  -0.000000e+000 -1.000000e+000  -0.000000e+000
    outer loop
      vertex  4.500000e+001 -3.250000e+001  0.000000e+000
      vertex  4.500000e+001 -3.250000e+001  5.000000e+000
      vertex  3.500000e+000 -3.250000e+001  5.000000e+000
    endloop
  endfacet
  facet normal  0.000000e+000 -1.000000e+000  0.000000e+000
    outer loop
      vertex  3.500000e+000 -3.250000e+001  5.000000e+000
      vertex -3.500000e+000 -3.250000e+001  5.000000e+000
      vertex  4.500000e+001 -3.250000e+001  0.000000e+000
    endloop
  endfacet
  facet normal  0.000000e+000 -1.000000e+000  0.000000e+000
    outer loop
      vertex  4.500000e+001 -3.250000e+001  0.000000e+000
      vertex -3.500000e+000 -3.250000e+001  5.000000e+000
      vertex -4.500000e+001 -3.250000e+001  5.000000e+000
    endloop
  endfacet
  facet normal  0.000000e+000 -1.000000e+000  0.000000e+000
    outer loop
      vertex  4.500000e+001 -3.250000e+001  0.000000e+000
      vertex -4.500000e+001 -3.250000e+001  5.000000e+000
      vertex -4.500000e+001 -3.250000e+001  0.000000e+000
    endloop
  endfacet
  facet normal  -0.000000e+000  1.000000e+000  0.000000e+000
    outer loop
      vertex -4.500000e+001  3.250000e+001  0.000000e+000
      vertex -4.500000e+001  3.250000e+001  5.000000e+000
      vertex -3.500000e+000  3.250000e+001  5.000000e+000
    endloop
  endfacet
  facet normal  0.000000e+000  1.000000e+000  0.000000e+000
    outer loop
      vertex -3.500000e+000  3.250000e+001  5.000000e+000
      vertex  3.500000e+000  3.250000e+001  5.000000e+000
      vertex -4.500000e+001  3.250000e+001  0.000000e+000
    endloop
  endfacet
  facet normal  0.000000e+000  1.000000e+000  0.000000e+000
    outer loop
      vertex -4.500000e+001  3.250000e+001  0.000000e+000
      vertex  3.500000e+000  3.250000e+001  5.000000e+000
      vertex  4.500000e+001  3.250000e+001  5.000000e+000
    endloop
  endfacet
  facet normal  0.000000e+000  1.000000e+000  0.000000e+000
    outer loop
      vertex -4.500000e+001  3.250000e+001  0.000000e+000
      vertex  4.500000e+001  3.250000e+001  5.000000e+000
      vertex  4.500000e+001  3.250000e+001  0.000000e+000
    endloop
  endfacet
  facet normal -9.600000e-001  0.000000e+000  2.800000e-001
    outer loop
      vertex -1.000000e+001  5.000000e+000  1.250000e+002
      vertex -4.500000e+001  5.000000e+000  5.000000e+000
      vertex -1.000000e+001 -5.000000e+000  1.250000e+002
    endloop
  endfacet
  facet normal -9.600000e-001  0.000000e+000  2.800000e-001
    outer loop
      vertex -1.000000e+001 -5.000000e+000  1.250000e+002
      vertex -4.500000e+001  5.000000e+000  5.000000e+000
      vertex -4.500000e+001 -5.000000e+000  5.000000e+000
    endloop
  endfacet
  facet normal  9.600000e-001  -0.000000e+000  2.800000e-001
    outer loop
      vertex  1.000000e+001  5.000000e+000  1.250000e+002
      vertex  1.000000e+001 -5.000000e+000  1.250000e+002
      vertex  4.500000e+001  5.000000e+000  5.000000e+000
    endloop
  endfacet
  facet normal  9.600000e-001  0.000000e+000  2.800000e-001
    outer loop
      vertex  4.500000e+001  5.000000e+000  5.000000e+000
      vertex  1.000000e+001 -5.000000e+000  1.250000e+002
      vertex  4.500000e+001 -5.000000e+000  5.000000e+000
    endloop
  endfacet
  facet normal  1.000000e+000  0.000000e+000  -0.000000e+000
    outer loop
      vertex  4.500000e+001 -3.250000e+001  0.000000e+000
      vertex  4.500000e+001  3.250000e+001  0.000000e+000
      vertex  4.500000e+001  3.250000e+001  5.000000e+000
    endloop
  endfacet
  facet normal  1.000000e+000  0.000000e+000  0.000000e+000
    outer loop
      vertex  4.500000e+001 -3.250000e+001  0.000000e+000
      vertex  4.500000e+001  3.250000e+001  5.000000e+000
      vertex  4.500000e+001  5.000000e+000  5.000000e+000
    endloop
  endfacet
  facet normal  1.000000e+000  0.000000e+000  0.000000e+000
    outer loop
      vertex  4.500000e+001 -3.250000e+001  0.000000e+000
      vertex  4.500000e+001  5.000000e+000  5.000000e+000
      vertex  4.500000e+001 -5.000000e+000  5.000000e+000
    endloop
  endfacet
  facet normal  1.000000e+000  0.000000e+000  0.000000e+000
    outer loop
      vertex  4.500000e+001 -3.250000e+001  0.000000e+000
      vertex  4.500000e+001 -5.000000e+000  5.000000e+000
      vertex  4.500000e+001 -3.250000e+001  5.000000e+000
    endloop
  endfacet
  facet normal -1.000000e+000  0.000000e+000  0.000000e+000
    outer loop
      vertex -4.500000e+001  3.250000e+001  0.000000e+000
      vertex -4.500000e+001 -3.250000e+001  0.000000e+000
      vertex -4.500000e+001 -3.250000e+001  5.000000e+000
    endloop
  endfacet
  facet normal -1.000000e+000  0.000000e+000  0.000000e+000
    outer loop
      vertex -4.500000e+001  3.250000e+001  0.000000e+000
      vertex -4.500000e+001 -3.250000e+001  5.000000e+000
      vertex -4.500000e+001 -5.000000e+000  5.000000e+000
    endloop
  endfacet
  facet normal -1.000000e+000  0.000000e+000  0.000000e+000
    outer loop
      vertex -4.500000e+001  3.250000e+001  0.000000e+000
      vertex -4.500000e+001 -5.000000e+000  5.000000e+000
      vertex -4.500000e+001  5.000000e+000  5.000000e+000
    endloop
  endfacet
  facet normal -1.000000e+000  0.000000e+000  0.000000e+000
    outer loop
      vertex -4.500000e+001  3.250000e+001  0.000000e+000
      vertex -4.500000e+001  5.000000e+000  5.000000e+000
      vertex -4.500000e+001  3.250000e+001  5.000000e+000
    endloop
  endfacet
  facet normal -1.000000e+000  0.000000e+000  0.000000e+000
    outer loop
      vertex -1.000000e+001 -5.000000e+000  1.250000e+002
      vertex -1.000000e+001 -5.000000e+000  1.350000e+002
      vertex -1.000000e+001  5.000000e+000  1.250000e+002
    endloop
  endfacet
  facet normal -1.000000e+000  0.000000e+000  0.000000e+000
    outer loop
      vertex -1.000000e+001  5.000000e+000  1.250000e+002
      vertex -1.000000e+001 -5.000000e+000  1.350000e+002
      vertex -1.000000e+001  5.000000e+000  1.350000e+002
    endloop
  endfacet
  facet normal  1.000000e+000  0.000000e+000  0.000000e+000
    outer loop
      vertex  1.000000e+001  5.000000e+000  1.250000e+002
      vertex  1.000000e+001  5.000000e+000  1.350000e+002
      vertex  1.000000e+001 -5.000000e+000  1.250000e+002
    endloop
  endfacet
  facet normal  1.000000e+000  0.000000e+000  0.000000e+000
    outer loop
      vertex  1.000000e+001 -5.000000e+000  1.250000e+002
      vertex  1.000000e+001  5.000000e+000  1.350000e+002
      vertex  1.000000e+001 -5.000000e+000  1.350000e+002
    endloop
  endfacet
  facet normal  7.134322e-002  6.336551e-018  9.974518e-001
    outer loop
      vertex -4.440892e-015  5.000000e+000  1.450000e+002
      vertex -3.552714e-015 -5.000000e+000  1.450000e+002
      vertex  1.423148e+000  5.000000e+000  1.448982e+002
    endloop
  endfacet
  facet normal  7.134323e-002  0.000000e+000  9.974518e-001
    outer loop
      vertex  1.423148e+000  5.000000e+000  1.448982e+002
      vertex -3.552714e-015 -5.000000e+000  1.450000e+002
      vertex  1.423148e+000 -5.000000e+000  1.448982e+002
    endloop
  endfacet
  facet normal  2.125646e-001  -0.000000e+000  9.771470e-001
    outer loop
      vertex  1.423148e+000  5.000000e+000  1.448982e+002
      vertex  1.423148e+000 -5.000000e+000  1.448982e+002
      vertex  2.817326e+000  5.000000e+000  1.445949e+002
    endloop
  endfacet
  facet normal  2.125646e-001  0.000000e+000  9.771470e-001
    outer loop
      vertex  2.817326e+000  5.000000e+000  1.445949e+002
      vertex  1.423148e+000 -5.000000e+000  1.448982e+002
      vertex  2.817326e+000 -5.000000e+000  1.445949e+002
    endloop
  endfacet
  facet normal  3.494652e-001  -0.000000e+000  9.369493e-001
    outer loop
      vertex  2.817326e+000  5.000000e+000  1.445949e+002
      vertex  2.817326e+000 -5.000000e+000  1.445949e+002
      vertex  4.154150e+000  5.000000e+000  1.440963e+002
    endloop
  endfacet
  facet normal  3.494652e-001  0.000000e+000  9.369493e-001
    outer loop
      vertex  4.154150e+000  5.000000e+000  1.440963e+002
      vertex  2.817326e+000 -5.000000e+000  1.445949e+002
      vertex  4.154150e+000 -5.000000e+000  1.440963e+002
    endloop
  endfacet
  facet normal  4.792447e-001  -0.000000e+000  8.776814e-001
    outer loop
      vertex  4.154150e+000  5.000000e+000  1.440963e+002
      vertex  4.154150e+000 -5.000000e+000  1.440963e+002
      vertex  5.406408e+000  5.000000e+000  1.434125e+002
    endloop
  endfacet
  facet normal  4.792447e-001  0.000000e+000  8.776814e-001
    outer loop
      vertex  5.406408e+000  5.000000e+000  1.434125e+002
      vertex  4.154150e+000 -5.000000e+000  1.440963e+002
      vertex  5.406408e+000 -5.000000e+000  1.434125e+002
    endloop
  endfacet
  facet normal  5.992786e-001  -0.000000e+000  8.005406e-001
    outer loop
      vertex  5.406408e+000  5.000000e+000  1.434125e+002
      vertex  5.406408e+000 -5.000000e+000  1.434125e+002
      vertex  6.548607e+000  5.000000e+000  1.425575e+002
    endloop
  endfacet
  facet normal  5.992786e-001  0.000000e+000  8.005406e-001
    outer loop
      vertex  6.548607e+000  5.000000e+000  1.425575e+002
      vertex  5.406408e+000 -5.000000e+000  1.434125e+002
      vertex  6.548607e+000 -5.000000e+000  1.425575e+002
    endloop
  endfacet
  facet normal  7.071041e-001  -0.000000e+000  7.071095e-001
    outer loop
      vertex  6.548607e+000  5.000000e+000  1.425575e+002
      vertex  6.548607e+000 -5.000000e+000  1.425575e+002
      vertex  7.557496e+000  5.000000e+000  1.415486e+002
    endloop
  endfacet
  facet normal  7.071041e-001  0.000000e+000  7.071095e-001
    outer loop
      vertex  7.557496e+000  5.000000e+000  1.415486e+002
      vertex  6.548607e+000 -5.000000e+000  1.425575e+002
      vertex  7.557496e+000 -5.000000e+000  1.415486e+002
    endloop
  endfacet
  facet normal  8.005443e-001  -0.000000e+000  5.992736e-001
    outer loop
      vertex  7.557496e+000  5.000000e+000  1.415486e+002
      vertex  7.557496e+000 -5.000000e+000  1.415486e+002
      vertex  8.412536e+000  5.000000e+000  1.404064e+002
    endloop
  endfacet
  facet normal  8.005443e-001  0.000000e+000  5.992736e-001
    outer loop
      vertex  8.412536e+000  5.000000e+000  1.404064e+002
      vertex  7.557496e+000 -5.000000e+000  1.415486e+002
      vertex  8.412536e+000 -5.000000e+000  1.404064e+002
    endloop
  endfacet
  facet normal  8.776790e-001  -0.000000e+000  4.792488e-001
    outer loop
      vertex  8.412536e+000  5.000000e+000  1.404064e+002
      vertex  8.412536e+000 -5.000000e+000  1.404064e+002
      vertex  9.096320e+000  5.000000e+000  1.391541e+002
    endloop
  endfacet
  facet normal  8.776790e-001  0.000000e+000  4.792488e-001
    outer loop
      vertex  9.096320e+000  5.000000e+000  1.391541e+002
      vertex  8.412536e+000 -5.000000e+000  1.404064e+002
      vertex  9.096320e+000 -5.000000e+000  1.391541e+002
    endloop
  endfacet
  facet normal  9.369496e-001  -0.000000e+000  3.494645e-001
    outer loop
      vertex  9.096320e+000  5.000000e+000  1.391541e+002
      vertex  9.096320e+000 -5.000000e+000  1.391541e+002
      vertex  9.594930e+000  5.000000e+000  1.378173e+002
    endloop
  endfacet
  facet normal  9.369496e-001  0.000000e+000  3.494645e-001
    outer loop
      vertex  9.594930e+000  5.000000e+000  1.378173e+002
      vertex  9.096320e+000 -5.000000e+000  1.391541e+002
      vertex  9.594930e+000 -5.000000e+000  1.378173e+002
    endloop
  endfacet
  facet normal  9.771469e-001  -0.000000e+000  2.125648e-001
    outer loop
      vertex  9.594930e+000  5.000000e+000  1.378173e+002
      vertex  9.594930e+000 -5.000000e+000  1.378173e+002
      vertex  9.898214e+000  5.000000e+000  1.364231e+002
    endloop
  endfacet
  facet normal  9.771469e-001  0.000000e+000  2.125648e-001
    outer loop
      vertex  9.898214e+000  5.000000e+000  1.364231e+002
      vertex  9.594930e+000 -5.000000e+000  1.378173e+002
      vertex  9.898214e+000 -5.000000e+000  1.364231e+002
    endloop
  endfacet
  facet normal  9.974521e-001  -0.000000e+000  7.133958e-002
    outer loop
      vertex  9.898214e+000  5.000000e+000  1.364231e+002
      vertex  9.898214e+000 -5.000000e+000  1.364231e+002
      vertex  1.000000e+001  5.000000e+000  1.350000e+002
    endloop
  endfacet
  facet normal  9.974521e-001  0.000000e+000  7.133958e-002
    outer loop
      vertex  1.000000e+001  5.000000e+000  1.350000e+002
      vertex  9.898214e+000 -5.000000e+000  1.364231e+002
      vertex  1.000000e+001 -5.000000e+000  1.350000e+002
    endloop
  endfacet
  facet normal -7.134322e-002 -6.336551e-018  9.974518e-001
    outer loop
      vertex -3.552714e-015 -5.000000e+000  1.450000e+002
      vertex -4.440892e-015  5.000000e+000  1.450000e+002
      vertex -1.423148e+000 -5.000000e+000  1.448982e+002
    endloop
  endfacet
  facet normal -7.134323e-002  0.000000e+000  9.974518e-001
    outer loop
      vertex -1.423148e+000 -5.000000e+000  1.448982e+002
      vertex -4.440892e-015  5.000000e+000  1.450000e+002
      vertex -1.423148e+000  5.000000e+000  1.448982e+002
    endloop
  endfacet
  facet normal -2.125646e-001  0.000000e+000  9.771470e-001
    outer loop
      vertex -1.423148e+000 -5.000000e+000  1.448982e+002
      vertex -1.423148e+000  5.000000e+000  1.448982e+002
      vertex -2.817326e+000 -5.000000e+000  1.445949e+002
    endloop
  endfacet
  facet normal -2.125646e-001  0.000000e+000  9.771470e-001
    outer loop
      vertex -2.817326e+000 -5.000000e+000  1.445949e+002
      vertex -1.423148e+000  5.000000e+000  1.448982e+002
      vertex -2.817326e+000  5.000000e+000  1.445949e+002
    endloop
  endfacet
  facet normal -3.494652e-001  0.000000e+000  9.369493e-001
    outer loop
      vertex -2.817326e+000 -5.000000e+000  1.445949e+002
      vertex -2.817326e+000  5.000000e+000  1.445949e+002
      vertex -4.154150e+000 -5.000000e+000  1.440963e+002
    endloop
  endfacet
  facet normal -3.494652e-001  0.000000e+000  9.369493e-001
    outer loop
      vertex -4.154150e+000 -5.000000e+000  1.440963e+002
      vertex -2.817326e+000  5.000000e+000  1.445949e+002
      vertex -4.154150e+000  5.000000e+000  1.440963e+002
    endloop
  endfacet
  facet normal -4.792447e-001  0.000000e+000  8.776814e-001
    outer loop
      vertex -4.154150e+000 -5.000000e+000  1.440963e+002
      vertex -4.154150e+000  5.000000e+000  1.440963e+002
      vertex -5.406408e+000 -5.000000e+000  1.434125e+002
    endloop
  endfacet
  facet normal -4.792447e-001  0.000000e+000  8.776814e-001
    outer loop
      vertex -5.406408e+000 -5.000000e+000  1.434125e+002
      vertex -4.154150e+000  5.000000e+000  1.440963e+002
      vertex -5.406408e+000  5.000000e+000  1.434125e+002
    endloop
  endfacet
  facet normal -5.992786e-001  0.000000e+000  8.005406e-001
    outer loop
      vertex -5.406408e+000 -5.000000e+000  1.434125e+002
      vertex -5.406408e+000  5.000000e+000  1.434125e+002
      vertex -6.548607e+000 -5.000000e+000  1.425575e+002
    endloop
  endfacet
  facet normal -5.992786e-001  0.000000e+000  8.005406e-001
    outer loop
      vertex -6.548607e+000 -5.000000e+000  1.425575e+002
      vertex -5.406408e+000  5.000000e+000  1.434125e+002
      vertex -6.548607e+000  5.000000e+000  1.425575e+002
    endloop
  endfacet
  facet normal -7.071041e-001  0.000000e+000  7.071095e-001
    outer loop
      vertex -6.548607e+000 -5.000000e+000  1.425575e+002
      vertex -6.548607e+000  5.000000e+000  1.425575e+002
      vertex -7.557496e+000 -5.000000e+000  1.415486e+002
    endloop
  endfacet
  facet normal -7.071041e-001  0.000000e+000  7.071095e-001
    outer loop
      vertex -7.557496e+000 -5.000000e+000  1.415486e+002
      vertex -6.548607e+000  5.000000e+000  1.425575e+002
      vertex -7.557496e+000  5.000000e+000  1.415486e+002
    endloop
  endfacet
  facet normal -8.005443e-001  0.000000e+000  5.992736e-001
    outer loop
      vertex -7.557496e+000 -5.000000e+000  1.415486e+002
      vertex -7.557496e+000  5.000000e+000  1.415486e+002
      vertex -8.412536e+000 -5.000000e+000  1.404064e+002
    endloop
  endfacet
  facet normal -8.005443e-001  0.000000e+000  5.992736e-001
    outer loop
      vertex -8.412536e+000 -5.000000e+000  1.404064e+002
      vertex -7.557496e+000  5.000000e+000  1.415486e+002
      vertex -8.412536e+000  5.000000e+000  1.404064e+002
    endloop
  endfacet
  facet normal -8.776790e-001  0.000000e+000  4.792488e-001
    outer loop
      vertex -8.412536e+000 -5.000000e+000  1.404064e+002
      vertex -8.412536e+000  5.000000e+000  1.404064e+002
      vertex -9.096320e+000 -5.000000e+000  1.391541e+002
    endloop
  endfacet
  facet normal -8.776790e-001  0.000000e+000  4.792488e-001
    outer loop
      vertex -9.096320e+000 -5.000000e+000  1.391541e+002
      vertex -8.412536e+000  5.000000e+000  1.404064e+002
      vertex -9.096320e+000  5.000000e+000  1.391541e+002
    endloop
  endfacet
  facet normal -9.369496e-001  0.000000e+000  3.494645e-001
    outer loop
      vertex -9.096320e+000 -5.000000e+000  1.391541e+002
      vertex -9.096320e+000  5.000000e+000  1.391541e+002
      vertex -9.594930e+000 -5.000000e+000  1.378173e+002
    endloop
  endfacet
  facet normal -9.369496e-001  0.000000e+000  3.494645e-001
    outer loop
      vertex -9.594930e+000 -5.000000e+000  1.378173e+002
      vertex -9.096320e+000  5.000000e+000  1.391541e+002
      vertex -9.594930e+000  5.000000e+000  1.378173e+002
    endloop
  endfacet
  facet normal -9.771469e-001  0.000000e+000  2.125648e-001
    outer loop
      vertex -9.594930e+000 -5.000000e+000  1.378173e+002
      vertex -9.594930e+000  5.000000e+000  1.378173e+002
      vertex -9.898214e+000 -5.000000e+000  1.364231e+002
    endloop
  endfacet
  facet normal -9.771469e-001  0.000000e+000  2.125648e-001
    outer loop
      vertex -9.898214e+000 -5.000000e+000  1.364231e+002
      vertex -9.594930e+000  5.000000e+000  1.378173e+002
      vertex -9.898214e+000  5.000000e+000  1.364231e+002
    endloop
  endfacet
  facet normal -9.974521e-001  0.000000e+000  7.133958e-002
    outer loop
      vertex -9.898214e+000 -5.000000e+000  1.364231e+002
      vertex -9.898214e+000  5.000000e+000  1.364231e+002
      vertex -1.000000e+001 -5.000000e+000  1.350000e+002
    endloop
  endfacet
  facet normal -9.974521e-001  0.000000e+000  7.133958e-002
    outer loop
      vertex -1.000000e+001 -5.000000e+000  1.350000e+002
      vertex -9.898214e+000  5.000000e+000  1.364231e+002
      vertex -1.000000e+001  5.000000e+000  1.350000e+002
    endloop
  endfacet
  facet normal -1.564316e-001  -0.000000e+000 -9.876888e-001
    outer loop
      vertex  0.000000e+000 -5.000000e+000  1.370000e+002
      vertex  6.180340e-001  5.000000e+000  1.369021e+002
      vertex  6.180340e-001 -5.000000e+000  1.369021e+002
    endloop
  endfacet
  facet normal -4.540020e-001  0.000000e+000 -8.910006e-001
    outer loop
      vertex  6.180340e-001 -5.000000e+000  1.369021e+002
      vertex  6.180340e-001  5.000000e+000  1.369021e+002
      vertex  1.175570e+000  5.000000e+000  1.366180e+002
    endloop
  endfacet
  facet normal -4.540020e-001  -0.000000e+000 -8.910006e-001
    outer loop
      vertex  6.180340e-001 -5.000000e+000  1.369021e+002
      vertex  1.175570e+000  5.000000e+000  1.366180e+002
      vertex  1.175570e+000 -5.000000e+000  1.366180e+002
    endloop
  endfacet
  facet normal -7.071033e-001  0.000000e+000 -7.071103e-001
    outer loop
      vertex  1.175570e+000 -5.000000e+000  1.366180e+002
      vertex  1.175570e+000  5.000000e+000  1.366180e+002
      vertex  1.618034e+000  5.000000e+000  1.361756e+002
    endloop
  endfacet
  facet normal -7.071033e-001  -0.000000e+000 -7.071103e-001
    outer loop
      vertex  1.175570e+000 -5.000000e+000  1.366180e+002
      vertex  1.618034e+000  5.000000e+000  1.361756e+002
      vertex  1.618034e+000 -5.000000e+000  1.361756e+002
    endloop
  endfacet
  facet normal -8.910080e-001  0.000000e+000 -4.539877e-001
    outer loop
      vertex  1.618034e+000 -5.000000e+000  1.361756e+002
      vertex  1.618034e+000  5.000000e+000  1.361756e+002
      vertex  1.902113e+000  5.000000e+000  1.356180e+002
    endloop
  endfacet
  facet normal -8.910080e-001  -0.000000e+000 -4.539877e-001
    outer loop
      vertex  1.618034e+000 -5.000000e+000  1.361756e+002
      vertex  1.902113e+000  5.000000e+000  1.356180e+002
      vertex  1.902113e+000 -5.000000e+000  1.356180e+002
    endloop
  endfacet
  facet normal -9.876880e-001  0.000000e+000 -1.564362e-001
    outer loop
      vertex  1.902113e+000 -5.000000e+000  1.356180e+002
      vertex  1.902113e+000  5.000000e+000  1.356180e+002
      vertex  2.000000e+000  5.000000e+000  1.350000e+002
    endloop
  endfacet
  facet normal -9.876880e-001  -0.000000e+000 -1.564362e-001
    outer loop
      vertex  1.902113e+000 -5.000000e+000  1.356180e+002
      vertex  2.000000e+000  5.000000e+000  1.350000e+002
      vertex  2.000000e+000 -5.000000e+000  1.350000e+002
    endloop
  endfacet
  facet normal -1.564316e-001 -1.915671e-018 -9.876888e-001
    outer loop
      vertex  6.180340e-001  5.000000e+000  1.369021e+002
      vertex  0.000000e+000 -5.000000e+000  1.370000e+002
      vertex -1.224606e-016  5.000000e+000  1.370000e+002
    endloop
  endfacet
  facet normal  1.564316e-001  1.915671e-018 -9.876888e-001
    outer loop
      vertex -1.224606e-016  5.000000e+000  1.370000e+002
      vertex  0.000000e+000 -5.000000e+000  1.370000e+002
      vertex -6.180340e-001 -5.000000e+000  1.369021e+002
    endloop
  endfacet
  facet normal  1.564316e-001  0.000000e+000 -9.876888e-001
    outer loop
      vertex -1.224606e-016  5.000000e+000  1.370000e+002
      vertex -6.180340e-001 -5.000000e+000  1.369021e+002
      vertex -6.180340e-001  5.000000e+000  1.369021e+002
    endloop
  endfacet
  facet normal  4.540020e-001  0.000000e+000 -8.910006e-001
    outer loop
      vertex -6.180340e-001  5.000000e+000  1.369021e+002
      vertex -6.180340e-001 -5.000000e+000  1.369021e+002
      vertex -1.175570e+000 -5.000000e+000  1.366180e+002
    endloop
  endfacet
  facet normal  4.540020e-001  0.000000e+000 -8.910006e-001
    outer loop
      vertex -6.180340e-001  5.000000e+000  1.369021e+002
      vertex -1.175570e+000 -5.000000e+000  1.366180e+002
      vertex -1.175570e+000  5.000000e+000  1.366180e+002
    endloop
  endfacet
  facet normal  7.071033e-001  0.000000e+000 -7.071103e-001
    outer loop
      vertex -1.175570e+000  5.000000e+000  1.366180e+002
      vertex -1.175570e+000 -5.000000e+000  1.366180e+002
      vertex -1.618034e+000 -5.000000e+000  1.361756e+002
    endloop
  endfacet
  facet normal  7.071033e-001  0.000000e+000 -7.071103e-001
    outer loop
      vertex -1.175570e+000  5.000000e+000  1.366180e+002
      vertex -1.618034e+000 -5.000000e+000  1.361756e+002
      vertex -1.618034e+000  5.000000e+000  1.361756e+002
    endloop
  endfacet
  facet normal  8.910080e-001  0.000000e+000 -4.539877e-001
    outer loop
      vertex -1.618034e+000  5.000000e+000  1.361756e+002
      vertex -1.618034e+000 -5.000000e+000  1.361756e+002
      vertex -1.902113e+000 -5.000000e+000  1.356180e+002
    endloop
  endfacet
  facet normal  8.910080e-001  0.000000e+000 -4.539877e-001
    outer loop
      vertex -1.618034e+000  5.000000e+000  1.361756e+002
      vertex -1.902113e+000 -5.000000e+000  1.356180e+002
      vertex -1.902113e+000  5.000000e+000  1.356180e+002
    endloop
  endfacet
  facet normal  9.876880e-001  0.000000e+000 -1.564362e-001
    outer loop
      vertex -1.902113e+000  5.000000e+000  1.356180e+002
      vertex -1.902113e+000 -5.000000e+000  1.356180e+002
      vertex -2.000000e+000 -5.000000e+000  1.350000e+002
    endloop
  endfacet
  facet normal  9.876880e-001  0.000000e+000 -1.564362e-001
    outer loop
      vertex -1.902113e+000  5.000000e+000  1.356180e+002
      vertex -2.000000e+000 -5.000000e+000  1.350000e+002
      vertex -2.000000e+000  5.000000e+000  1.350000e+002
    endloop
  endfacet
  facet normal  1.564316e-001  0.000000e+000  9.876888e-001
    outer loop
      vertex  0.000000e+000 -5.000000e+000  1.330000e+002
      vertex -6.180340e-001  5.000000e+000  1.330979e+002
      vertex -6.180340e-001 -5.000000e+000  1.330979e+002
    endloop
  endfacet
  facet normal  4.540020e-001  -0.000000e+000  8.910006e-001
    outer loop
      vertex -6.180340e-001 -5.000000e+000  1.330979e+002
      vertex -6.180340e-001  5.000000e+000  1.330979e+002
      vertex -1.175570e+000  5.000000e+000  1.333820e+002
    endloop
  endfacet
  facet normal  4.540020e-001  0.000000e+000  8.910006e-001
    outer loop
      vertex -6.180340e-001 -5.000000e+000  1.330979e+002
      vertex -1.175570e+000  5.000000e+000  1.333820e+002
      vertex -1.175570e+000 -5.000000e+000  1.333820e+002
    endloop
  endfacet
  facet normal  7.071033e-001  -0.000000e+000  7.071103e-001
    outer loop
      vertex -1.175570e+000 -5.000000e+000  1.333820e+002
      vertex -1.175570e+000  5.000000e+000  1.333820e+002
      vertex -1.618034e+000  5.000000e+000  1.338244e+002
    endloop
  endfacet
  facet normal  7.071033e-001  0.000000e+000  7.071103e-001
    outer loop
      vertex -1.175570e+000 -5.000000e+000  1.333820e+002
      vertex -1.618034e+000  5.000000e+000  1.338244e+002
      vertex -1.618034e+000 -5.000000e+000  1.338244e+002
    endloop
  endfacet
  facet normal  8.910080e-001  -0.000000e+000  4.539877e-001
    outer loop
      vertex -1.618034e+000 -5.000000e+000  1.338244e+002
      vertex -1.618034e+000  5.000000e+000  1.338244e+002
      vertex -1.902113e+000  5.000000e+000  1.343820e+002
    endloop
  endfacet
  facet normal  8.910080e-001  0.000000e+000  4.539877e-001
    outer loop
      vertex -1.618034e+000 -5.000000e+000  1.338244e+002
      vertex -1.902113e+000  5.000000e+000  1.343820e+002
      vertex -1.902113e+000 -5.000000e+000  1.343820e+002
    endloop
  endfacet
  facet normal  9.876880e-001  -0.000000e+000  1.564362e-001
    outer loop
      vertex -1.902113e+000 -5.000000e+000  1.343820e+002
      vertex -1.902113e+000  5.000000e+000  1.343820e+002
      vertex -2.000000e+000  5.000000e+000  1.350000e+002
    endloop
  endfacet
  facet normal  9.876880e-001  0.000000e+000  1.564362e-001
    outer loop
      vertex -1.902113e+000 -5.000000e+000  1.343820e+002
      vertex -2.000000e+000  5.000000e+000  1.350000e+002
      vertex -2.000000e+000 -5.000000e+000  1.350000e+002
    endloop
  endfacet
  facet normal  1.564316e-001 -5.747014e-018  9.876888e-001
    outer loop
      vertex -6.180340e-001  5.000000e+000  1.330979e+002
      vertex  0.000000e+000 -5.000000e+000  1.330000e+002
      vertex  3.673819e-016  5.000000e+000  1.330000e+002
    endloop
  endfacet
  facet normal -1.564316e-001  5.747014e-018  9.876888e-001
    outer loop
      vertex  3.673819e-016  5.000000e+000  1.330000e+002
      vertex  0.000000e+000 -5.000000e+000  1.330000e+002
      vertex  6.180340e-001 -5.000000e+000  1.330979e+002
    endloop
  endfacet
  facet normal -1.564316e-001  0.000000e+000  9.876888e-001
    outer loop
      vertex  3.673819e-016  5.000000e+000  1.330000e+002
      vertex  6.180340e-001 -5.000000e+000  1.330979e+002
      vertex  6.180340e-001  5.000000e+000  1.330979e+002
    endloop
  endfacet
  facet normal -4.540020e-001  0.000000e+000  8.910006e-001
    outer loop
      vertex  6.180340e-001  5.000000e+000  1.330979e+002
      vertex  6.180340e-001 -5.000000e+000  1.330979e+002
      vertex  1.175570e+000 -5.000000e+000  1.333820e+002
    endloop
  endfacet
  facet normal -4.540020e-001  0.000000e+000  8.910006e-001
    outer loop
      vertex  6.180340e-001  5.000000e+000  1.330979e+002
      vertex  1.175570e+000 -5.000000e+000  1.333820e+002
      vertex  1.175570e+000  5.000000e+000  1.333820e+002
    endloop
  endfacet
  facet normal -7.071033e-001  0.000000e+000  7.071103e-001
    outer loop
      vertex  1.175570e+000  5.000000e+000  1.333820e+002
      vertex  1.175570e+000 -5.000000e+000  1.333820e+002
      vertex  1.618034e+000 -5.000000e+000  1.338244e+002
    endloop
  endfacet
  facet normal -7.071033e-001  0.000000e+000  7.071103e-001
    outer loop
      vertex  1.175570e+000  5.000000e+000  1.333820e+002
      vertex  1.618034e+000 -5.000000e+000  1.338244e+002
      vertex  1.618034e+000  5.000000e+000  1.338244e+002
    endloop
  endfacet
  facet normal -8.910080e-001  0.000000e+000  4.539877e-001
    outer loop
      vertex  1.618034e+000  5.000000e+000  1.338244e+002
      vertex  1.618034e+000 -5.000000e+000  1.338244e+002
      vertex  1.902113e+000 -5.000000e+000  1.343820e+002
    endloop
  endfacet
  facet normal -8.910080e-001  0.000000e+000  4.539877e-001
    outer loop
      vertex  1.618034e+000  5.000000e+000  1.338244e+002
      vertex  1.902113e+000 -5.000000e+000  1.343820e+002
      vertex  1.902113e+000  5.000000e+000  1.343820e+002
    endloop
  endfacet
  facet normal -9.876880e-001  0.000000e+000  1.564362e-001
    outer loop
      vertex  1.902113e+000  5.000000e+000  1.343820e+002
      vertex  1.902113e+000 -5.000000e+000  1.343820e+002
      vertex  2.000000e+000 -5.000000e+000  1.350000e+002
    endloop
  endfacet
  facet normal -9.876880e-001  0.000000e+000  1.564362e-001
    outer loop
      vertex  1.902113e+000  5.000000e+000  1.343820e+002
      vertex  2.000000e+000 -5.000000e+000  1.350000e+002
      vertex  2.000000e+000  5.000000e+000  1.350000e+002
    endloop
  endfacet
  facet normal  0.000000e+000  0.000000e+000 -1.000000e+000
    outer loop
      vertex -4.500000e+001 -3.250000e+001  0.000000e+000
      vertex -4.500000e+001  3.250000e+001  0.000000e+000
      vertex  4.500000e+001 -3.250000e+001  0.000000e+000
    endloop
  endfacet
  facet normal  0.000000e+000  0.000000e+000 -1.000000e+000
    outer loop
      vertex  4.500000e+001 -3.250000e+001  0.000000e+000
      vertex -4.500000e+001  3.250000e+001  0.000000e+000
      vertex  4.500000e+001  3.250000e+001  0.000000e+000
    endloop
  endfacet
endsolid CATIA STL
