solid CATIA STL
  facet normal  0.000000e+000  0.000000e+000 -1.000000e+000
    outer loop
      vertex  5.200000e+000 -2.020726e+000  2.592337e+001
      vertex  5.200000e+000  2.020726e+000  2.592337e+001
      vertex  5.700000e+000 -2.020726e+000  2.592337e+001
    endloop
  endfacet
  facet normal  0.000000e+000  0.000000e+000 -1.000000e+000
    outer loop
      vertex  5.700000e+000 -2.020726e+000  2.592337e+001
      vertex  5.200000e+000  2.020726e+000  2.592337e+001
      vertex  5.700000e+000  2.020726e+000  2.592337e+001
    endloop
  endfacet
  facet normal  0.000000e+000 -8.660254e-001 -5.000000e-001
    outer loop
      vertex  5.200000e+000  2.020726e+000  2.592337e+001
      vertex  5.200000e+000  4.041452e+000  2.242337e+001
      vertex  5.700000e+000  2.020726e+000  2.592337e+001
    endloop
  endfacet
  facet normal  0.000000e+000 -8.660254e-001 -5.000000e-001
    outer loop
      vertex  5.700000e+000  2.020726e+000  2.592337e+001
      vertex  5.200000e+000  4.041452e+000  2.242337e+001
      vertex  5.700000e+000  4.041452e+000  2.242337e+001
    endloop
  endfacet
  facet normal  0.000000e+000 -8.660254e-001  5.000000e-001
    outer loop
      vertex  5.200000e+000  4.041452e+000  2.242337e+001
      vertex  5.200000e+000  2.020726e+000  1.892337e+001
      vertex  5.700000e+000  4.041452e+000  2.242337e+001
    endloop
  endfacet
  facet normal  0.000000e+000 -8.660254e-001  5.000000e-001
    outer loop
      vertex  5.700000e+000  4.041452e+000  2.242337e+001
      vertex  5.200000e+000  2.020726e+000  1.892337e+001
      vertex  5.700000e+000  2.020726e+000  1.892337e+001
    endloop
  endfacet
  facet normal  0.000000e+000  0.000000e+000  1.000000e+000
    outer loop
      vertex  5.200000e+000  2.020726e+000  1.892337e+001
      vertex  5.200000e+000 -2.020726e+000  1.892337e+001
      vertex  5.700000e+000  2.020726e+000  1.892337e+001
    endloop
  endfacet
  facet normal  0.000000e+000  0.000000e+000  1.000000e+000
    outer loop
      vertex  5.700000e+000  2.020726e+000  1.892337e+001
      vertex  5.200000e+000 -2.020726e+000  1.892337e+001
      vertex  5.700000e+000 -2.020726e+000  1.892337e+001
    endloop
  endfacet
  facet normal  0.000000e+000  8.660254e-001  5.000000e-001
    outer loop
      vertex  5.200000e+000 -2.020726e+000  1.892337e+001
      vertex  5.200000e+000 -4.041452e+000  2.242337e+001
      vertex  5.700000e+000 -2.020726e+000  1.892337e+001
    endloop
  endfacet
  facet normal  0.000000e+000  8.660254e-001  5.000000e-001
    outer loop
      vertex  5.700000e+000 -2.020726e+000  1.892337e+001
      vertex  5.200000e+000 -4.041452e+000  2.242337e+001
      vertex  5.700000e+000 -4.041452e+000  2.242337e+001
    endloop
  endfacet
  facet normal  0.000000e+000  8.660254e-001 -5.000000e-001
    outer loop
      vertex  5.200000e+000 -4.041452e+000  2.242337e+001
      vertex  5.200000e+000 -2.020726e+000  2.592337e+001
      vertex  5.700000e+000 -4.041452e+000  2.242337e+001
    endloop
  endfacet
  facet normal  0.000000e+000  8.660254e-001 -5.000000e-001
    outer loop
      vertex  5.700000e+000 -4.041452e+000  2.242337e+001
      vertex  5.200000e+000 -2.020726e+000  2.592337e+001
      vertex  5.700000e+000 -2.020726e+000  2.592337e+001
    endloop
  endfacet
  facet normal -1.000000e+000  0.000000e+000  0.000000e+000
    outer loop
      vertex  5.200000e+000  7.000000e+000  5.607252e+001
      vertex  5.200000e+000  7.000000e+000  4.530834e+001
      vertex  5.200000e+000  2.020726e+000  5.592337e+001
    endloop
  endfacet
  facet normal -9.999999e-001  0.000000e+000  0.000000e+000
    outer loop
      vertex  5.200000e+000 -7.000000e+000  1.757437e+001
      vertex  5.200000e+000 -7.000000e+000  5.607252e+001
      vertex  5.200000e+000 -2.020726e+000  5.592337e+001
    endloop
  endfacet
  facet normal -1.000000e+000  0.000000e+000  -0.000000e+000
    outer loop
      vertex  5.200000e+000 -7.000000e+000  1.757437e+001
      vertex  5.200000e+000 -2.020726e+000  5.592337e+001
      vertex  5.200000e+000 -2.020726e+000  2.592337e+001
    endloop
  endfacet
  facet normal -1.000000e+000  0.000000e+000  0.000000e+000
    outer loop
      vertex  5.200000e+000 -7.000000e+000  1.757437e+001
      vertex  5.200000e+000 -2.020726e+000  2.592337e+001
      vertex  5.200000e+000 -4.041452e+000  2.242337e+001
    endloop
  endfacet
  facet normal -9.999999e-001  0.000000e+000  -0.000000e+000
    outer loop
      vertex  5.200000e+000 -7.000000e+000  1.757437e+001
      vertex  5.200000e+000 -4.041452e+000  2.242337e+001
      vertex  5.200000e+000 -2.020726e+000  1.892337e+001
    endloop
  endfacet
  facet normal -1.000000e+000  0.000000e+000  -0.000000e+000
    outer loop
      vertex  5.200000e+000 -7.000000e+000  1.757437e+001
      vertex  5.200000e+000 -2.020726e+000  1.892337e+001
      vertex  5.200000e+000  2.020726e+000  1.892337e+001
    endloop
  endfacet
  facet normal -1.000000e+000  0.000000e+000  -0.000000e+000
    outer loop
      vertex  5.200000e+000 -7.000000e+000  1.757437e+001
      vertex  5.200000e+000  2.020726e+000  1.892337e+001
      vertex  5.200000e+000  7.000000e+000  1.757437e+001
    endloop
  endfacet
  facet normal -1.000000e+000  0.000000e+000  0.000000e+000
    outer loop
      vertex  5.200000e+000 -4.041452e+000  5.942337e+001
      vertex  5.200000e+000 -6.000417e+000  5.967738e+001
      vertex  5.200000e+000 -5.256580e+000  6.069511e+001
    endloop
  endfacet
  facet normal -1.000000e+000  0.000000e+000  0.000000e+000
    outer loop
      vertex  5.200000e+000 -4.041452e+000  5.942337e+001
      vertex  5.200000e+000 -5.256580e+000  6.069511e+001
      vertex  5.200000e+000 -4.342272e+000  6.156293e+001
    endloop
  endfacet
  facet normal -1.000000e+000  0.000000e+000  0.000000e+000
    outer loop
      vertex  5.200000e+000 -4.041452e+000  5.942337e+001
      vertex  5.200000e+000 -4.342272e+000  6.156293e+001
      vertex  5.200000e+000 -3.287144e+000  6.225270e+001
    endloop
  endfacet
  facet normal -9.999999e-001  0.000000e+000  -0.000000e+000
    outer loop
      vertex  5.200000e+000 -4.041452e+000  5.942337e+001
      vertex  5.200000e+000 -3.287144e+000  6.225270e+001
      vertex  5.200000e+000 -2.125413e+000  6.274205e+001
    endloop
  endfacet
  facet normal -9.999999e-001  0.000000e+000  0.000000e+000
    outer loop
      vertex  5.200000e+000  4.041452e+000  5.942337e+001
      vertex  5.200000e+000  2.125413e+000  6.274205e+001
      vertex  5.200000e+000  3.287144e+000  6.225270e+001
    endloop
  endfacet
  facet normal -1.000000e+000  0.000000e+000  0.000000e+000
    outer loop
      vertex  5.200000e+000  4.041452e+000  5.942337e+001
      vertex  5.200000e+000  3.287144e+000  6.225270e+001
      vertex  5.200000e+000  4.342272e+000  6.156293e+001
    endloop
  endfacet
  facet normal -1.000000e+000  0.000000e+000  -0.000000e+000
    outer loop
      vertex  5.200000e+000  4.041452e+000  5.942337e+001
      vertex  5.200000e+000  4.342272e+000  6.156293e+001
      vertex  5.200000e+000  5.256580e+000  6.069511e+001
    endloop
  endfacet
  facet normal -1.000000e+000  0.000000e+000  -0.000000e+000
    outer loop
      vertex  5.200000e+000  4.041452e+000  5.942337e+001
      vertex  5.200000e+000  5.256580e+000  6.069511e+001
      vertex  5.200000e+000  6.000417e+000  5.967738e+001
    endloop
  endfacet
  facet normal -1.000000e+000  0.000000e+000  -0.000000e+000
    outer loop
      vertex  5.200000e+000  7.000000e+000  3.481742e+001
      vertex  5.200000e+000  1.258228e+001  4.530834e+001
      vertex  5.200000e+000  1.258228e+001  3.481742e+001
    endloop
  endfacet
  facet normal -1.000000e+000  0.000000e+000  0.000000e+000
    outer loop
      vertex  5.200000e+000  1.258228e+001  4.530834e+001
      vertex  5.200000e+000  7.000000e+000  3.481742e+001
      vertex  5.200000e+000  7.000000e+000  4.530834e+001
    endloop
  endfacet
  facet normal -1.000000e+000  0.000000e+000  -0.000000e+000
    outer loop
      vertex  5.200000e+000  7.000000e+000  4.530834e+001
      vertex  5.200000e+000  7.000000e+000  3.481742e+001
      vertex  5.200000e+000  2.020726e+000  2.592337e+001
    endloop
  endfacet
  facet normal -1.000000e+000  0.000000e+000  0.000000e+000
    outer loop
      vertex  5.200000e+000  7.000000e+000  4.530834e+001
      vertex  5.200000e+000  2.020726e+000  2.592337e+001
      vertex  5.200000e+000  2.020726e+000  5.592337e+001
    endloop
  endfacet
  facet normal -1.000000e+000  0.000000e+000  -0.000000e+000
    outer loop
      vertex  5.200000e+000  2.020726e+000  5.592337e+001
      vertex  5.200000e+000  2.020726e+000  2.592337e+001
      vertex  5.200000e+000 -2.020726e+000  2.592337e+001
    endloop
  endfacet
  facet normal -1.000000e+000  0.000000e+000  0.000000e+000
    outer loop
      vertex  5.200000e+000  2.020726e+000  5.592337e+001
      vertex  5.200000e+000 -2.020726e+000  2.592337e+001
      vertex  5.200000e+000 -2.020726e+000  5.592337e+001
    endloop
  endfacet
  facet normal -1.000000e+000  0.000000e+000  0.000000e+000
    outer loop
      vertex  5.200000e+000 -4.041452e+000  5.942337e+001
      vertex  5.200000e+000 -2.020726e+000  5.592337e+001
      vertex  5.200000e+000 -6.000417e+000  5.967738e+001
    endloop
  endfacet
  facet normal -1.000000e+000  0.000000e+000  -0.000000e+000
    outer loop
      vertex  5.200000e+000 -6.000417e+000  5.967738e+001
      vertex  5.200000e+000 -2.020726e+000  5.592337e+001
      vertex  5.200000e+000 -6.549659e+000  5.854273e+001
    endloop
  endfacet
  facet normal -1.000000e+000  0.000000e+000  0.000000e+000
    outer loop
      vertex  5.200000e+000 -2.020726e+000  5.592337e+001
      vertex  5.200000e+000 -7.000000e+000  5.607252e+001
      vertex  5.200000e+000 -6.549659e+000  5.854273e+001
    endloop
  endfacet
  facet normal -1.000000e+000  0.000000e+000  0.000000e+000
    outer loop
      vertex  5.200000e+000 -6.549659e+000  5.854273e+001
      vertex  5.200000e+000 -7.000000e+000  5.607252e+001
      vertex  5.200000e+000 -6.886495e+000  5.732798e+001
    endloop
  endfacet
  facet normal -1.000000e+000  0.000000e+000  0.000000e+000
    outer loop
      vertex  5.200000e+000  6.000417e+000  5.967738e+001
      vertex  5.200000e+000  6.549659e+000  5.854273e+001
      vertex  5.200000e+000  4.041452e+000  5.942337e+001
    endloop
  endfacet
  facet normal -1.000000e+000  0.000000e+000  -0.000000e+000
    outer loop
      vertex  5.200000e+000  4.041452e+000  5.942337e+001
      vertex  5.200000e+000  6.549659e+000  5.854273e+001
      vertex  5.200000e+000  2.020726e+000  5.592337e+001
    endloop
  endfacet
  facet normal -1.000000e+000  -0.000000e+000  0.000000e+000
    outer loop
      vertex  5.200000e+000  6.549659e+000  5.854273e+001
      vertex  5.200000e+000  6.886495e+000  5.732798e+001
      vertex  5.200000e+000  2.020726e+000  5.592337e+001
    endloop
  endfacet
  facet normal -1.000000e+000  0.000000e+000  0.000000e+000
    outer loop
      vertex  5.200000e+000  2.020726e+000  5.592337e+001
      vertex  5.200000e+000  6.886495e+000  5.732798e+001
      vertex  5.200000e+000  7.000000e+000  5.607252e+001
    endloop
  endfacet
  facet normal -9.999999e-001  0.000000e+000  -0.000000e+000
    outer loop
      vertex  5.200000e+000  2.020726e+000  1.892337e+001
      vertex  5.200000e+000  4.041452e+000  2.242337e+001
      vertex  5.200000e+000  7.000000e+000  1.757437e+001
    endloop
  endfacet
  facet normal -1.000000e+000  0.000000e+000  0.000000e+000
    outer loop
      vertex  5.200000e+000  7.000000e+000  1.757437e+001
      vertex  5.200000e+000  4.041452e+000  2.242337e+001
      vertex  5.200000e+000  2.020726e+000  2.592337e+001
    endloop
  endfacet
  facet normal -9.999999e-001  0.000000e+000  0.000000e+000
    outer loop
      vertex  5.200000e+000  7.000000e+000  1.757437e+001
      vertex  5.200000e+000  2.020726e+000  2.592337e+001
      vertex  5.200000e+000  7.000000e+000  3.481742e+001
    endloop
  endfacet
  facet normal -1.000000e+000  -0.000000e+000  0.000000e+000
    outer loop
      vertex  5.700000e+000 -2.020726e+000  2.592337e+001
      vertex  5.700000e+000  2.020726e+000  2.592337e+001
      vertex  5.700000e+000 -4.041452e+000  2.242337e+001
    endloop
  endfacet
  facet normal -1.000000e+000  0.000000e+000  0.000000e+000
    outer loop
      vertex  5.700000e+000 -4.041452e+000  2.242337e+001
      vertex  5.700000e+000  2.020726e+000  2.592337e+001
      vertex  5.700000e+000  4.041452e+000  2.242337e+001
    endloop
  endfacet
  facet normal -1.000000e+000  -0.000000e+000  0.000000e+000
    outer loop
      vertex  5.700000e+000 -4.041452e+000  2.242337e+001
      vertex  5.700000e+000  4.041452e+000  2.242337e+001
      vertex  5.700000e+000 -2.020726e+000  1.892337e+001
    endloop
  endfacet
  facet normal -1.000000e+000  0.000000e+000  0.000000e+000
    outer loop
      vertex  5.700000e+000 -2.020726e+000  1.892337e+001
      vertex  5.700000e+000  4.041452e+000  2.242337e+001
      vertex  5.700000e+000  2.020726e+000  1.892337e+001
    endloop
  endfacet
  facet normal  3.054013e-003 -9.618211e-001  2.736621e-001
    outer loop
      vertex  7.000000e+000 -6.880812e+000  5.735876e+001
      vertex  7.000000e+000 -6.527306e+000  5.860121e+001
      vertex  5.200000e+000 -6.549659e+000  5.854273e+001
    endloop
  endfacet
  facet normal -2.976690e-003 -9.000866e-001  4.357010e-001
    outer loop
      vertex  5.200000e+000 -6.000417e+000  5.967738e+001
      vertex  5.200000e+000 -6.549659e+000  5.854273e+001
      vertex  7.000000e+000 -6.527306e+000  5.860121e+001
    endloop
  endfacet
  facet normal  4.465303e-003 -8.951545e-001  4.457338e-001
    outer loop
      vertex  7.000000e+000 -6.527306e+000  5.860121e+001
      vertex  7.000000e+000 -5.951520e+000  5.975754e+001
      vertex  5.200000e+000 -6.000417e+000  5.967738e+001
    endloop
  endfacet
  facet normal -4.348174e-003 -8.073429e-001  5.900665e-001
    outer loop
      vertex  5.200000e+000 -5.256580e+000  6.069511e+001
      vertex  5.200000e+000 -6.000417e+000  5.967738e+001
      vertex  7.000000e+000 -5.951520e+000  5.975754e+001
    endloop
  endfacet
  facet normal  5.798209e-003 -7.980042e-001  6.026241e-001
    outer loop
      vertex  7.000000e+000 -5.951520e+000  5.975754e+001
      vertex  7.000000e+000 -5.173062e+000  6.078839e+001
      vertex  5.200000e+000 -5.256580e+000  6.069511e+001
    endloop
  endfacet
  facet normal -5.643181e-003 -6.884181e-001  7.252921e-001
    outer loop
      vertex  5.200000e+000 -4.342272e+000  6.156293e+001
      vertex  5.200000e+000 -5.256580e+000  6.069511e+001
      vertex  7.000000e+000 -5.173062e+000  6.078839e+001
    endloop
  endfacet
  facet normal  7.054343e-003 -6.736788e-001  7.389907e-001
    outer loop
      vertex  7.000000e+000 -5.173062e+000  6.078839e+001
      vertex  7.000000e+000 -4.218442e+000  6.165864e+001
      vertex  5.200000e+000 -4.342272e+000  6.156293e+001
    endloop
  endfacet
  facet normal -6.859740e-003 -5.471666e-001  8.369956e-001
    outer loop
      vertex  5.200000e+000 -3.287144e+000  6.225270e+001
      vertex  5.200000e+000 -4.342272e+000  6.156293e+001
      vertex  7.000000e+000 -4.218442e+000  6.165864e+001
    endloop
  endfacet
  facet normal -1.035461e-002 -2.293048e-001  9.732996e-001
    outer loop
      vertex  5.700000e+000 -2.125413e+000  6.274205e+001
      vertex  7.000000e+000 -1.915641e+000  6.280530e+001
      vertex  5.700000e+000 -1.075475e+000  6.298941e+001
    endloop
  endfacet
  facet normal  2.045341e-002 -1.837098e-001  9.827676e-001
    outer loop
      vertex  7.000000e+000 -1.915641e+000  6.280530e+001
      vertex  7.000000e+000 -6.458785e-001  6.304266e+001
      vertex  5.700000e+000 -1.075475e+000  6.298941e+001
    endloop
  endfacet
  facet normal -1.537608e-002 -7.703938e-002  9.969095e-001
    outer loop
      vertex  5.700000e+000  6.645861e-015  6.307252e+001
      vertex  5.700000e+000 -1.075475e+000  6.298941e+001
      vertex  7.000000e+000 -6.458785e-001  6.304266e+001
    endloop
  endfacet
  facet normal  2.296429e-002  0.000000e+000  9.997362e-001
    outer loop
      vertex  7.000000e+000 -6.458785e-001  6.304266e+001
      vertex  7.000000e+000  6.458785e-001  6.304266e+001
      vertex  5.700000e+000  6.645861e-015  6.307252e+001
    endloop
  endfacet
  facet normal -1.537608e-002  7.703938e-002  9.969095e-001
    outer loop
      vertex  5.700000e+000  6.645861e-015  6.307252e+001
      vertex  7.000000e+000  6.458785e-001  6.304266e+001
      vertex  5.700000e+000  1.075475e+000  6.298941e+001
    endloop
  endfacet
  facet normal  2.045341e-002  1.837098e-001  9.827676e-001
    outer loop
      vertex  5.700000e+000  1.075475e+000  6.298941e+001
      vertex  7.000000e+000  6.458785e-001  6.304266e+001
      vertex  7.000000e+000  1.915641e+000  6.280530e+001
    endloop
  endfacet
  facet normal  8.231035e-003  5.264148e-001  8.501881e-001
    outer loop
      vertex  5.200000e+000  3.287144e+000  6.225270e+001
      vertex  7.000000e+000  3.120168e+000  6.233866e+001
      vertex  7.000000e+000  4.218442e+000  6.165864e+001
    endloop
  endfacet
  facet normal -6.859740e-003  5.471666e-001  8.369956e-001
    outer loop
      vertex  5.200000e+000  3.287144e+000  6.225270e+001
      vertex  7.000000e+000  4.218442e+000  6.165864e+001
      vertex  5.200000e+000  4.342272e+000  6.156293e+001
    endloop
  endfacet
  facet normal  7.054343e-003  6.736788e-001  7.389907e-001
    outer loop
      vertex  5.200000e+000  4.342272e+000  6.156293e+001
      vertex  7.000000e+000  4.218442e+000  6.165864e+001
      vertex  7.000000e+000  5.173062e+000  6.078839e+001
    endloop
  endfacet
  facet normal -5.643181e-003  6.884181e-001  7.252921e-001
    outer loop
      vertex  5.200000e+000  4.342272e+000  6.156293e+001
      vertex  7.000000e+000  5.173062e+000  6.078839e+001
      vertex  5.200000e+000  5.256580e+000  6.069511e+001
    endloop
  endfacet
  facet normal  5.798209e-003  7.980042e-001  6.026241e-001
    outer loop
      vertex  5.200000e+000  5.256580e+000  6.069511e+001
      vertex  7.000000e+000  5.173062e+000  6.078839e+001
      vertex  7.000000e+000  5.951520e+000  5.975754e+001
    endloop
  endfacet
  facet normal -4.348174e-003  8.073429e-001  5.900665e-001
    outer loop
      vertex  5.200000e+000  5.256580e+000  6.069511e+001
      vertex  7.000000e+000  5.951520e+000  5.975754e+001
      vertex  5.200000e+000  6.000417e+000  5.967738e+001
    endloop
  endfacet
  facet normal  4.465303e-003  8.951545e-001  4.457338e-001
    outer loop
      vertex  5.200000e+000  6.000417e+000  5.967738e+001
      vertex  7.000000e+000  5.951520e+000  5.975754e+001
      vertex  7.000000e+000  6.527306e+000  5.860121e+001
    endloop
  endfacet
  facet normal -2.976690e-003  9.000866e-001  4.357010e-001
    outer loop
      vertex  5.200000e+000  6.000417e+000  5.967738e+001
      vertex  7.000000e+000  6.527306e+000  5.860121e+001
      vertex  5.200000e+000  6.549659e+000  5.854273e+001
    endloop
  endfacet
  facet normal  3.054013e-003  9.618211e-001  2.736621e-001
    outer loop
      vertex  5.200000e+000  6.549659e+000  5.854273e+001
      vertex  7.000000e+000  6.527306e+000  5.860121e+001
      vertex  7.000000e+000  6.880812e+000  5.735876e+001
    endloop
  endfacet
  facet normal -1.035461e-002  2.293048e-001  9.732996e-001
    outer loop
      vertex  5.700000e+000  2.125413e+000  6.274205e+001
      vertex  5.700000e+000  1.075475e+000  6.298941e+001
      vertex  7.000000e+000  1.915641e+000  6.280530e+001
    endloop
  endfacet
  facet normal  1.292051e-002  3.612117e-001  9.323943e-001
    outer loop
      vertex  5.700000e+000  2.125413e+000  6.274205e+001
      vertex  7.000000e+000  1.915641e+000  6.280530e+001
      vertex  7.000000e+000  3.120168e+000  6.233866e+001
    endloop
  endfacet
  facet normal -8.344746e-003  3.851228e-001  9.228275e-001
    outer loop
      vertex  5.700000e+000  2.125413e+000  6.274205e+001
      vertex  7.000000e+000  3.120168e+000  6.233866e+001
      vertex  5.200000e+000  3.287144e+000  6.225270e+001
    endloop
  endfacet
  facet normal  0.000000e+000  3.881887e-001  9.215798e-001
    outer loop
      vertex  5.700000e+000  2.125413e+000  6.274205e+001
      vertex  5.200000e+000  3.287144e+000  6.225270e+001
      vertex  5.200000e+000  2.125413e+000  6.274205e+001
    endloop
  endfacet
  facet normal  1.292051e-002 -3.612117e-001  9.323943e-001
    outer loop
      vertex  7.000000e+000 -3.120168e+000  6.233866e+001
      vertex  7.000000e+000 -1.915641e+000  6.280530e+001
      vertex  5.700000e+000 -2.125413e+000  6.274205e+001
    endloop
  endfacet
  facet normal  0.000000e+000 -3.757897e-001  9.267049e-001
    outer loop
      vertex  7.000000e+000 -3.120168e+000  6.233866e+001
      vertex  5.700000e+000 -2.125413e+000  6.274205e+001
      vertex  5.200000e+000 -2.125413e+000  6.274205e+001
    endloop
  endfacet
  facet normal -8.000495e-003 -3.881764e-001  9.215505e-001
    outer loop
      vertex  7.000000e+000 -3.120168e+000  6.233866e+001
      vertex  5.200000e+000 -2.125413e+000  6.274205e+001
      vertex  5.200000e+000 -3.287144e+000  6.225270e+001
    endloop
  endfacet
  facet normal  8.231035e-003 -5.264148e-001  8.501881e-001
    outer loop
      vertex  7.000000e+000 -3.120168e+000  6.233866e+001
      vertex  5.200000e+000 -3.287144e+000  6.225270e+001
      vertex  7.000000e+000 -4.218442e+000  6.165864e+001
    endloop
  endfacet
  facet normal  0.000000e+000 -9.959380e-001  9.004167e-002
    outer loop
      vertex  5.200000e+000 -7.000000e+000  5.607252e+001
      vertex  7.000000e+000 -7.000000e+000  5.607252e+001
      vertex  5.200000e+000 -6.886495e+000  5.732798e+001
    endloop
  endfacet
  facet normal  1.565893e-003 -9.957330e-001  9.226821e-002
    outer loop
      vertex  5.200000e+000 -6.886495e+000  5.732798e+001
      vertex  7.000000e+000 -7.000000e+000  5.607252e+001
      vertex  7.000000e+000 -6.880812e+000  5.735876e+001
    endloop
  endfacet
  facet normal -1.526947e-003 -9.636383e-001  2.672059e-001
    outer loop
      vertex  5.200000e+000 -6.886495e+000  5.732798e+001
      vertex  7.000000e+000 -6.880812e+000  5.735876e+001
      vertex  5.200000e+000 -6.549659e+000  5.854273e+001
    endloop
  endfacet
  facet normal  -0.000000e+000  9.957342e-001  9.226832e-002
    outer loop
      vertex  7.000000e+000  7.000000e+000  5.607252e+001
      vertex  5.200000e+000  7.000000e+000  5.607252e+001
      vertex  7.000000e+000  6.880812e+000  5.735876e+001
    endloop
  endfacet
  facet normal  1.604613e-003  9.959367e-001  9.004156e-002
    outer loop
      vertex  7.000000e+000  6.880812e+000  5.735876e+001
      vertex  5.200000e+000  7.000000e+000  5.607252e+001
      vertex  5.200000e+000  6.886495e+000  5.732798e+001
    endloop
  endfacet
  facet normal -1.526947e-003  9.636383e-001  2.672059e-001
    outer loop
      vertex  7.000000e+000  6.880812e+000  5.735876e+001
      vertex  5.200000e+000  6.886495e+000  5.732798e+001
      vertex  5.200000e+000  6.549659e+000  5.854273e+001
    endloop
  endfacet
  facet normal  0.000000e+000 -8.660253e-001 -5.000001e-001
    outer loop
      vertex  5.200000e+000  2.125413e+000  6.274205e+001
      vertex  5.200000e+000  4.041452e+000  5.942337e+001
      vertex  5.700000e+000  2.125413e+000  6.274205e+001
    endloop
  endfacet
  facet normal  0.000000e+000 -8.660253e-001 -5.000001e-001
    outer loop
      vertex  5.700000e+000  2.125413e+000  6.274205e+001
      vertex  5.200000e+000  4.041452e+000  5.942337e+001
      vertex  5.700000e+000  4.041452e+000  5.942337e+001
    endloop
  endfacet
  facet normal  0.000000e+000 -8.660254e-001  5.000000e-001
    outer loop
      vertex  5.200000e+000  4.041452e+000  5.942337e+001
      vertex  5.200000e+000  2.020726e+000  5.592337e+001
      vertex  5.700000e+000  4.041452e+000  5.942337e+001
    endloop
  endfacet
  facet normal  0.000000e+000 -8.660254e-001  5.000000e-001
    outer loop
      vertex  5.700000e+000  4.041452e+000  5.942337e+001
      vertex  5.200000e+000  2.020726e+000  5.592337e+001
      vertex  5.700000e+000  2.020726e+000  5.592337e+001
    endloop
  endfacet
  facet normal  0.000000e+000  0.000000e+000  1.000000e+000
    outer loop
      vertex  5.200000e+000  2.020726e+000  5.592337e+001
      vertex  5.200000e+000 -2.020726e+000  5.592337e+001
      vertex  5.700000e+000  2.020726e+000  5.592337e+001
    endloop
  endfacet
  facet normal  0.000000e+000  0.000000e+000  1.000000e+000
    outer loop
      vertex  5.700000e+000  2.020726e+000  5.592337e+001
      vertex  5.200000e+000 -2.020726e+000  5.592337e+001
      vertex  5.700000e+000 -2.020726e+000  5.592337e+001
    endloop
  endfacet
  facet normal  0.000000e+000  8.660254e-001  5.000000e-001
    outer loop
      vertex  5.200000e+000 -2.020726e+000  5.592337e+001
      vertex  5.200000e+000 -4.041452e+000  5.942337e+001
      vertex  5.700000e+000 -2.020726e+000  5.592337e+001
    endloop
  endfacet
  facet normal  0.000000e+000  8.660254e-001  5.000000e-001
    outer loop
      vertex  5.700000e+000 -2.020726e+000  5.592337e+001
      vertex  5.200000e+000 -4.041452e+000  5.942337e+001
      vertex  5.700000e+000 -4.041452e+000  5.942337e+001
    endloop
  endfacet
  facet normal  0.000000e+000  8.660253e-001 -5.000001e-001
    outer loop
      vertex  5.200000e+000 -4.041452e+000  5.942337e+001
      vertex  5.200000e+000 -2.125413e+000  6.274205e+001
      vertex  5.700000e+000 -4.041452e+000  5.942337e+001
    endloop
  endfacet
  facet normal  0.000000e+000  8.660253e-001 -5.000001e-001
    outer loop
      vertex  5.700000e+000 -4.041452e+000  5.942337e+001
      vertex  5.200000e+000 -2.125413e+000  6.274205e+001
      vertex  5.700000e+000 -2.125413e+000  6.274205e+001
    endloop
  endfacet
  facet normal -1.000000e+000  0.000000e+000  0.000000e+000
    outer loop
      vertex  5.700000e+000  2.020726e+000  5.592337e+001
      vertex  5.700000e+000 -2.020726e+000  5.592337e+001
      vertex  5.700000e+000  4.041452e+000  5.942337e+001
    endloop
  endfacet
  facet normal -1.000000e+000  -0.000000e+000  0.000000e+000
    outer loop
      vertex  5.700000e+000  4.041452e+000  5.942337e+001
      vertex  5.700000e+000 -2.020726e+000  5.592337e+001
      vertex  5.700000e+000 -4.041452e+000  5.942337e+001
    endloop
  endfacet
  facet normal -9.999999e-001  0.000000e+000  0.000000e+000
    outer loop
      vertex  5.700000e+000  4.041452e+000  5.942337e+001
      vertex  5.700000e+000 -4.041452e+000  5.942337e+001
      vertex  5.700000e+000  2.125413e+000  6.274205e+001
    endloop
  endfacet
  facet normal -1.000000e+000  -0.000000e+000  0.000000e+000
    outer loop
      vertex  5.700000e+000  2.125413e+000  6.274205e+001
      vertex  5.700000e+000 -4.041452e+000  5.942337e+001
      vertex  5.700000e+000 -2.125413e+000  6.274205e+001
    endloop
  endfacet
  facet normal -1.000000e+000  0.000000e+000  0.000000e+000
    outer loop
      vertex  5.700000e+000  2.125413e+000  6.274205e+001
      vertex  5.700000e+000 -2.125413e+000  6.274205e+001
      vertex  5.700000e+000  1.075475e+000  6.298941e+001
    endloop
  endfacet
  facet normal -1.000000e+000  -0.000000e+000  0.000000e+000
    outer loop
      vertex  5.700000e+000  1.075475e+000  6.298941e+001
      vertex  5.700000e+000 -2.125413e+000  6.274205e+001
      vertex  5.700000e+000 -1.075475e+000  6.298941e+001
    endloop
  endfacet
  facet normal -1.000000e+000  0.000000e+000  0.000000e+000
    outer loop
      vertex  5.700000e+000  1.075475e+000  6.298941e+001
      vertex  5.700000e+000 -1.075475e+000  6.298941e+001
      vertex  5.700000e+000  6.645861e-015  6.307252e+001
    endloop
  endfacet
  facet normal  0.000000e+000  0.000000e+000 -1.000000e+000
    outer loop
      vertex  7.000000e+000  7.000000e+000  1.757437e+001
      vertex  7.000000e+000 -7.000000e+000  1.757437e+001
      vertex  5.200000e+000  7.000000e+000  1.757437e+001
    endloop
  endfacet
  facet normal  0.000000e+000  0.000000e+000 -1.000000e+000
    outer loop
      vertex  5.200000e+000  7.000000e+000  1.757437e+001
      vertex  7.000000e+000 -7.000000e+000  1.757437e+001
      vertex  5.200000e+000 -7.000000e+000  1.757437e+001
    endloop
  endfacet
  facet normal  0.000000e+000  1.000000e+000  0.000000e+000
    outer loop
      vertex  7.000000e+000  7.000000e+000  1.757437e+001
      vertex  5.200000e+000  7.000000e+000  1.757437e+001
      vertex  7.000000e+000  7.000000e+000  3.481742e+001
    endloop
  endfacet
  facet normal  0.000000e+000  1.000000e+000  0.000000e+000
    outer loop
      vertex  7.000000e+000  7.000000e+000  3.481742e+001
      vertex  5.200000e+000  7.000000e+000  1.757437e+001
      vertex  5.200000e+000  7.000000e+000  3.481742e+001
    endloop
  endfacet
  facet normal  0.000000e+000  1.000000e+000  0.000000e+000
    outer loop
      vertex  7.000000e+000  7.000000e+000  4.530834e+001
      vertex  5.200000e+000  7.000000e+000  4.530834e+001
      vertex  7.000000e+000  7.000000e+000  5.607252e+001
    endloop
  endfacet
  facet normal  0.000000e+000  1.000000e+000  0.000000e+000
    outer loop
      vertex  7.000000e+000  7.000000e+000  5.607252e+001
      vertex  5.200000e+000  7.000000e+000  4.530834e+001
      vertex  5.200000e+000  7.000000e+000  5.607252e+001
    endloop
  endfacet
  facet normal  0.000000e+000 -1.000000e+000  0.000000e+000
    outer loop
      vertex  7.000000e+000 -7.000000e+000  5.607252e+001
      vertex  5.200000e+000 -7.000000e+000  5.607252e+001
      vertex  7.000000e+000 -7.000000e+000  1.757437e+001
    endloop
  endfacet
  facet normal  0.000000e+000 -1.000000e+000  0.000000e+000
    outer loop
      vertex  7.000000e+000 -7.000000e+000  1.757437e+001
      vertex  5.200000e+000 -7.000000e+000  5.607252e+001
      vertex  5.200000e+000 -7.000000e+000  1.757437e+001
    endloop
  endfacet
  facet normal  0.000000e+000  0.000000e+000  1.000000e+000
    outer loop
      vertex  5.200000e+000  7.000000e+000  4.530834e+001
      vertex  7.000000e+000  7.000000e+000  4.530834e+001
      vertex  5.200000e+000  1.258228e+001  4.530834e+001
    endloop
  endfacet
  facet normal  -0.000000e+000  0.000000e+000  1.000000e+000
    outer loop
      vertex  5.200000e+000  1.258228e+001  4.530834e+001
      vertex  7.000000e+000  7.000000e+000  4.530834e+001
      vertex  7.000000e+000  1.258228e+001  4.530834e+001
    endloop
  endfacet
  facet normal  -0.000000e+000  0.000000e+000 -1.000000e+000
    outer loop
      vertex  5.200000e+000  1.258228e+001  3.481742e+001
      vertex  7.000000e+000  1.258228e+001  3.481742e+001
      vertex  5.200000e+000  7.000000e+000  3.481742e+001
    endloop
  endfacet
  facet normal  0.000000e+000  0.000000e+000 -1.000000e+000
    outer loop
      vertex  5.200000e+000  7.000000e+000  3.481742e+001
      vertex  7.000000e+000  1.258228e+001  3.481742e+001
      vertex  7.000000e+000  7.000000e+000  3.481742e+001
    endloop
  endfacet
  facet normal  0.000000e+000  1.000000e+000  0.000000e+000
    outer loop
      vertex  7.000000e+000  1.258228e+001  3.481742e+001
      vertex  5.200000e+000  1.258228e+001  3.481742e+001
      vertex  7.000000e+000  1.258228e+001  4.530834e+001
    endloop
  endfacet
  facet normal  0.000000e+000  1.000000e+000  0.000000e+000
    outer loop
      vertex  7.000000e+000  1.258228e+001  4.530834e+001
      vertex  5.200000e+000  1.258228e+001  3.481742e+001
      vertex  5.200000e+000  1.258228e+001  4.530834e+001
    endloop
  endfacet
  facet normal  1.000000e+000  0.000000e+000  0.000000e+000
    outer loop
      vertex  7.000000e+000  7.000000e+000  4.530834e+001
      vertex  7.000000e+000  7.000000e+000  5.607252e+001
      vertex  7.000000e+000 -7.000000e+000  5.607252e+001
    endloop
  endfacet
  facet normal  1.000000e+000  0.000000e+000  0.000000e+000
    outer loop
      vertex  7.000000e+000  7.000000e+000  4.530834e+001
      vertex  7.000000e+000 -7.000000e+000  5.607252e+001
      vertex  7.000000e+000  7.000000e+000  3.481742e+001
    endloop
  endfacet
  facet normal  1.000000e+000  0.000000e+000  0.000000e+000
    outer loop
      vertex  7.000000e+000  7.000000e+000  4.530834e+001
      vertex  7.000000e+000  7.000000e+000  3.481742e+001
      vertex  7.000000e+000  1.258228e+001  3.481742e+001
    endloop
  endfacet
  facet normal  1.000000e+000  0.000000e+000  -0.000000e+000
    outer loop
      vertex  7.000000e+000  7.000000e+000  4.530834e+001
      vertex  7.000000e+000  1.258228e+001  3.481742e+001
      vertex  7.000000e+000  1.258228e+001  4.530834e+001
    endloop
  endfacet
  facet normal  1.000000e+000  -0.000000e+000  0.000000e+000
    outer loop
      vertex  7.000000e+000  6.458785e-001  6.304266e+001
      vertex  7.000000e+000 -6.458785e-001  6.304266e+001
      vertex  7.000000e+000  1.915641e+000  6.280530e+001
    endloop
  endfacet
  facet normal  1.000000e+000  0.000000e+000  0.000000e+000
    outer loop
      vertex  7.000000e+000  1.915641e+000  6.280530e+001
      vertex  7.000000e+000 -6.458785e-001  6.304266e+001
      vertex  7.000000e+000 -1.915641e+000  6.280530e+001
    endloop
  endfacet
  facet normal  9.999999e-001  -0.000000e+000  0.000000e+000
    outer loop
      vertex  7.000000e+000  1.915641e+000  6.280530e+001
      vertex  7.000000e+000 -1.915641e+000  6.280530e+001
      vertex  7.000000e+000  3.120168e+000  6.233866e+001
    endloop
  endfacet
  facet normal  1.000000e+000  0.000000e+000  0.000000e+000
    outer loop
      vertex  7.000000e+000  3.120168e+000  6.233866e+001
      vertex  7.000000e+000 -1.915641e+000  6.280530e+001
      vertex  7.000000e+000 -3.120168e+000  6.233866e+001
    endloop
  endfacet
  facet normal  1.000000e+000  -0.000000e+000  0.000000e+000
    outer loop
      vertex  7.000000e+000  3.120168e+000  6.233866e+001
      vertex  7.000000e+000 -3.120168e+000  6.233866e+001
      vertex  7.000000e+000  4.218442e+000  6.165864e+001
    endloop
  endfacet
  facet normal  1.000000e+000  0.000000e+000  0.000000e+000
    outer loop
      vertex  7.000000e+000  4.218442e+000  6.165864e+001
      vertex  7.000000e+000 -3.120168e+000  6.233866e+001
      vertex  7.000000e+000 -4.218442e+000  6.165864e+001
    endloop
  endfacet
  facet normal  1.000000e+000  -0.000000e+000  0.000000e+000
    outer loop
      vertex  7.000000e+000  4.218442e+000  6.165864e+001
      vertex  7.000000e+000 -4.218442e+000  6.165864e+001
      vertex  7.000000e+000  5.173062e+000  6.078839e+001
    endloop
  endfacet
  facet normal  1.000000e+000  0.000000e+000  0.000000e+000
    outer loop
      vertex  7.000000e+000  5.173062e+000  6.078839e+001
      vertex  7.000000e+000 -4.218442e+000  6.165864e+001
      vertex  7.000000e+000 -5.173062e+000  6.078839e+001
    endloop
  endfacet
  facet normal  1.000000e+000  -0.000000e+000  0.000000e+000
    outer loop
      vertex  7.000000e+000  5.173062e+000  6.078839e+001
      vertex  7.000000e+000 -5.173062e+000  6.078839e+001
      vertex  7.000000e+000  5.951520e+000  5.975754e+001
    endloop
  endfacet
  facet normal  1.000000e+000  0.000000e+000  0.000000e+000
    outer loop
      vertex  7.000000e+000  5.951520e+000  5.975754e+001
      vertex  7.000000e+000 -5.173062e+000  6.078839e+001
      vertex  7.000000e+000 -5.951520e+000  5.975754e+001
    endloop
  endfacet
  facet normal  1.000000e+000  -0.000000e+000  0.000000e+000
    outer loop
      vertex  7.000000e+000  5.951520e+000  5.975754e+001
      vertex  7.000000e+000 -5.951520e+000  5.975754e+001
      vertex  7.000000e+000  6.527306e+000  5.860121e+001
    endloop
  endfacet
  facet normal  1.000000e+000  0.000000e+000  0.000000e+000
    outer loop
      vertex  7.000000e+000  6.527306e+000  5.860121e+001
      vertex  7.000000e+000 -5.951520e+000  5.975754e+001
      vertex  7.000000e+000 -6.527306e+000  5.860121e+001
    endloop
  endfacet
  facet normal  1.000000e+000  -0.000000e+000  0.000000e+000
    outer loop
      vertex  7.000000e+000  6.527306e+000  5.860121e+001
      vertex  7.000000e+000 -6.527306e+000  5.860121e+001
      vertex  7.000000e+000  6.880812e+000  5.735876e+001
    endloop
  endfacet
  facet normal  1.000000e+000  0.000000e+000  0.000000e+000
    outer loop
      vertex  7.000000e+000  6.880812e+000  5.735876e+001
      vertex  7.000000e+000 -6.527306e+000  5.860121e+001
      vertex  7.000000e+000 -6.880812e+000  5.735876e+001
    endloop
  endfacet
  facet normal  1.000000e+000  -0.000000e+000  0.000000e+000
    outer loop
      vertex  7.000000e+000  6.880812e+000  5.735876e+001
      vertex  7.000000e+000 -6.880812e+000  5.735876e+001
      vertex  7.000000e+000  7.000000e+000  5.607252e+001
    endloop
  endfacet
  facet normal  1.000000e+000  0.000000e+000  0.000000e+000
    outer loop
      vertex  7.000000e+000  7.000000e+000  5.607252e+001
      vertex  7.000000e+000 -6.880812e+000  5.735876e+001
      vertex  7.000000e+000 -7.000000e+000  5.607252e+001
    endloop
  endfacet
  facet normal  1.000000e+000  0.000000e+000  0.000000e+000
    outer loop
      vertex  7.000000e+000 -7.000000e+000  1.757437e+001
      vertex  7.000000e+000  7.000000e+000  1.757437e+001
      vertex  7.000000e+000 -7.000000e+000  5.607252e+001
    endloop
  endfacet
  facet normal  1.000000e+000  0.000000e+000  0.000000e+000
    outer loop
      vertex  7.000000e+000 -7.000000e+000  5.607252e+001
      vertex  7.000000e+000  7.000000e+000  1.757437e+001
      vertex  7.000000e+000  7.000000e+000  3.481742e+001
    endloop
  endfacet
endsolid CATIA STL
